# Blender 4.1.1
# www.blender.org
mtllib chickenWing.mtl
o Untitled.001
v 0.170877 0.409185 0.047472
v 0.170877 0.409185 -0.152528
v 0.235057 0.485872 0.047472
v 0.235057 0.485872 -0.152528
v 0.324251 0.280825 -0.052528
v 0.324251 0.280825 -0.152528
v 0.388431 0.357512 -0.052528
v 0.388431 0.357512 -0.152528
v 0.400938 0.216644 0.047472
v 0.400938 0.216644 -0.052528
v 0.465118 0.293332 0.047472
v 0.465118 0.293332 -0.052528
v 0.170877 0.409185 0.047472
v 0.235057 0.485872 0.047472
v 0.400938 0.216644 0.047472
v 0.465118 0.293332 0.047472
v 0.324251 0.280825 -0.052528
v 0.388431 0.357512 -0.052528
v 0.400938 0.216644 -0.052528
v 0.465118 0.293332 -0.052528
v 0.170877 0.409185 -0.152528
v 0.235057 0.485872 -0.152528
v 0.324251 0.280825 -0.152528
v 0.388431 0.357512 -0.152528
v 0.170877 0.409185 0.047472
v 0.400938 0.216644 0.047472
v 0.324251 0.280825 -0.052528
v 0.400938 0.216644 -0.052528
v 0.170877 0.409185 -0.152528
v 0.324251 0.280825 -0.152528
v 0.235057 0.485872 0.047472
v 0.465118 0.293332 0.047472
v 0.388431 0.357512 -0.052528
v 0.465118 0.293332 -0.052528
v 0.235057 0.485872 -0.152528
v 0.388431 0.357512 -0.152528
vn -0.7669 0.6418 -0.0000
vn 0.7669 -0.6418 -0.0000
vn -0.0000 -0.0000 1.0000
vn -0.0000 -0.0000 -1.0000
vn -0.6418 -0.7669 -0.0000
vn 0.6418 0.7669 -0.0000
vt 0.025391 0.500000
s 0
usemtl palette.008
f 3/1/1 2/1/1 1/1/1
f 4/1/1 2/1/1 3/1/1
f 5/1/2 6/1/2 7/1/2
f 7/1/2 6/1/2 8/1/2
f 9/1/2 10/1/2 11/1/2
f 11/1/2 10/1/2 12/1/2
f 15/1/3 14/1/3 13/1/3
f 16/1/3 14/1/3 15/1/3
f 17/1/4 18/1/4 19/1/4
f 19/1/4 18/1/4 20/1/4
f 21/1/4 22/1/4 23/1/4
f 23/1/4 22/1/4 24/1/4
f 27/1/5 26/1/5 25/1/5
f 28/1/5 26/1/5 27/1/5
f 29/1/5 27/1/5 25/1/5
f 30/1/5 27/1/5 29/1/5
f 31/1/6 32/1/6 33/1/6
f 33/1/6 32/1/6 34/1/6
f 31/1/6 33/1/6 35/1/6
f 35/1/6 33/1/6 36/1/6
