# MagicaVoxel @ Ephtracy

# group
o 

# material
mtllib weeds01.mtl
usemtl palette

# normals
vn -1 0 0
vn 1 0 0
vn 0 0 1
vn 0 0 -1
vn 0 -1 0
vn 0 1 0

# texcoords
vt 0.0410156 0.5
vt 0.0449219 0.5

# verts
v -0.4 0 0.4
v -0.4 0 0.3
v -0.4 0 0.2
v -0.4 0 0.1
v -0.4 0 -0.2
v -0.4 0 -0.3
v -0.4 0.2 0.4
v -0.4 0.2 0.3
v -0.4 0.2 -0.2
v -0.4 0.2 -0.3
v -0.4 0.3 0.4
v -0.4 0.3 0.3
v -0.4 0.3 0.2
v -0.4 0.3 0.1
v -0.3 0 0
v -0.3 0 -0.1
v -0.3 0 -0.3
v -0.3 0 -0.4
v -0.3 0.2 -0.3
v -0.3 0.2 -0.4
v -0.3 0.3 0
v -0.3 0.3 -0.1
v -0.3 0.3 -0.3
v -0.3 0.3 -0.4
v -0.1 0 0.4
v -0.1 0 0.3
v -0.1 0 0.2
v -0.1 0 0.1
v -0.1 0 -0.3
v -0.1 0 -0.4
v -0.1 0.1 0.2
v -0.1 0.1 0.1
v -0.1 0.2 0.4
v -0.1 0.2 0.3
v -0.1 0.2 0.2
v -0.1 0.2 0.1
v -0.1 0.2 -0.3
v -0.1 0.2 -0.4
v 0 0 0
v 0 0 -0.1
v 0 0 -0.2
v 0 0 -0.3
v 0 0.2 0
v 0 0.2 -0.1
v 0 0.2 -0.3
v 0 0.3 -0.2
v 0 0.3 -0.3
v 0.1 0 0.3
v 0.1 0 0.2
v 0.1 0.2 0.3
v 0.1 0.2 0.2
v 0.2 0 0.2
v 0.2 0 0.1
v 0.2 0 -0.3
v 0.2 0 -0.4
v 0.2 0.2 0.2
v 0.2 0.2 -0.3
v 0.2 0.2 -0.4
v 0.2 0.3 0.2
v 0.2 0.3 0.1
v 0.2 0.3 -0.3
v 0.2 0.3 -0.4
v 0.3 0 0.4
v 0.3 0 0.3
v 0.3 0 -0.1
v 0.3 0 -0.2
v 0.3 0.2 0.4
v 0.3 0.2 0.3
v 0.3 0.3 -0.1
v 0.3 0.3 -0.2
v -0.3 0 -0.2
v -0.3 0 -0.3
v -0.3 0.2 0.4
v -0.3 0.2 0.3
v -0.3 0.2 0.2
v -0.3 0.2 0.1
v -0.3 0.2 -0.2
v -0.3 0.2 -0.3
v -0.3 0.3 0.4
v -0.3 0.3 0.3
v -0.3 0.3 0.2
v -0.3 0.3 0.1
v -0.2 0 0.4
v -0.2 0 0.3
v -0.2 0 0.2
v -0.2 0 0.1
v -0.2 0 -0.3
v -0.2 0 -0.4
v -0.2 0.2 0.4
v -0.2 0.2 0.3
v -0.2 0.2 0.2
v -0.2 0.2 0.1
v -0.2 0.2 0
v -0.2 0.2 -0.1
v -0.2 0.2 -0.3
v -0.2 0.2 -0.4
v -0.2 0.3 0
v -0.2 0.3 -0.1
v -0.2 0.3 -0.3
v -0.2 0.3 -0.4
v -0.1 0 0
v -0.1 0 -0.1
v -0.1 0.2 0
v -0.1 0.2 -0.1
v 0 0 0.4
v 0 0 0.3
v 0 0 0.2
v 0 0 0.1
v 0 0 -0.3
v 0 0 -0.4
v 0 0.1 0.2
v 0 0.1 0.1
v 0 0.2 0.4
v 0 0.2 0.3
v 0 0.2 0.2
v 0 0.2 0.1
v 0 0.2 -0.3
v 0 0.2 -0.4
v 0.1 0 -0.2
v 0.1 0 -0.3
v 0.1 0.3 -0.2
v 0.1 0.3 -0.3
v 0.2 0 0.3
v 0.2 0 0.2
v 0.2 0 0
v 0.2 0 -0.1
v 0.2 0.2 0.3
v 0.2 0.2 0.2
v 0.2 0.2 0
v 0.2 0.2 -0.1
v 0.3 0 0.2
v 0.3 0 0.1
v 0.3 0 -0.3
v 0.3 0 -0.4
v 0.3 0.2 -0.3
v 0.3 0.2 -0.4
v 0.3 0.3 0.2
v 0.3 0.3 0.1
v 0.3 0.3 -0.3
v 0.3 0.3 -0.4
v 0.4 0 0.4
v 0.4 0 0.3
v 0.4 0 -0.1
v 0.4 0 -0.2
v 0.4 0.2 0.4
v 0.4 0.2 0.3
v 0.4 0.3 -0.1
v 0.4 0.3 -0.2
v -0.4 0 0.4
v -0.4 0.2 0.4
v -0.4 0.3 0.4
v -0.3 0.2 0.4
v -0.3 0.3 0.4
v -0.2 0 0.4
v -0.2 0.2 0.4
v -0.1 0 0.4
v -0.1 0.2 0.4
v 0 0 0.4
v 0 0.2 0.4
v 0.3 0 0.4
v 0.3 0.2 0.4
v 0.4 0 0.4
v 0.4 0.2 0.4
v 0.1 0 0.3
v 0.1 0.2 0.3
v 0.2 0 0.3
v 0.2 0.2 0.3
v -0.4 0 0.2
v -0.4 0.3 0.2
v -0.3 0.2 0.2
v -0.3 0.3 0.2
v -0.2 0 0.2
v -0.2 0.2 0.2
v -0.1 0 0.2
v -0.1 0.1 0.2
v -0.1 0.2 0.2
v 0 0 0.2
v 0 0.1 0.2
v 0 0.2 0.2
v 0.2 0 0.2
v 0.2 0.2 0.2
v 0.2 0.3 0.2
v 0.3 0 0.2
v 0.3 0.3 0.2
v -0.3 0 0
v -0.3 0.3 0
v -0.2 0.2 0
v -0.2 0.3 0
v -0.1 0 0
v -0.1 0.2 0
v 0 0 0
v 0 0.2 0
v 0.2 0 0
v 0.2 0.2 0
v 0.3 0 -0.1
v 0.3 0.3 -0.1
v 0.4 0 -0.1
v 0.4 0.3 -0.1
v -0.4 0 -0.2
v -0.4 0.2 -0.2
v -0.3 0 -0.2
v -0.3 0.2 -0.2
v 0 0 -0.2
v 0 0.3 -0.2
v 0.1 0 -0.2
v 0.1 0.3 -0.2
v -0.3 0 -0.3
v -0.3 0.2 -0.3
v -0.3 0.3 -0.3
v -0.2 0 -0.3
v -0.2 0.2 -0.3
v -0.2 0.3 -0.3
v -0.1 0 -0.3
v -0.1 0.2 -0.3
v 0 0 -0.3
v 0 0.2 -0.3
v 0.2 0 -0.3
v 0.2 0.2 -0.3
v 0.2 0.3 -0.3
v 0.3 0 -0.3
v 0.3 0.2 -0.3
v 0.3 0.3 -0.3
v -0.4 0 0.3
v -0.4 0.2 0.3
v -0.4 0.3 0.3
v -0.3 0.2 0.3
v -0.3 0.3 0.3
v -0.2 0 0.3
v -0.2 0.2 0.3
v -0.1 0 0.3
v -0.1 0.2 0.3
v 0 0 0.3
v 0 0.2 0.3
v 0.3 0 0.3
v 0.3 0.2 0.3
v 0.4 0 0.3
v 0.4 0.2 0.3
v 0.1 0 0.2
v 0.1 0.2 0.2
v 0.2 0 0.2
v 0.2 0.2 0.2
v -0.4 0 0.1
v -0.4 0.3 0.1
v -0.3 0.2 0.1
v -0.3 0.3 0.1
v -0.2 0 0.1
v -0.2 0.2 0.1
v -0.1 0 0.1
v -0.1 0.1 0.1
v -0.1 0.2 0.1
v 0 0 0.1
v 0 0.1 0.1
v 0 0.2 0.1
v 0.2 0 0.1
v 0.2 0.3 0.1
v 0.3 0 0.1
v 0.3 0.3 0.1
v -0.3 0 -0.1
v -0.3 0.3 -0.1
v -0.2 0.2 -0.1
v -0.2 0.3 -0.1
v -0.1 0 -0.1
v -0.1 0.2 -0.1
v 0 0 -0.1
v 0 0.2 -0.1
v 0.2 0 -0.1
v 0.2 0.2 -0.1
v 0.3 0 -0.2
v 0.3 0.3 -0.2
v 0.4 0 -0.2
v 0.4 0.3 -0.2
v -0.4 0 -0.3
v -0.4 0.2 -0.3
v -0.3 0 -0.3
v -0.3 0.2 -0.3
v 0 0 -0.3
v 0 0.2 -0.3
v 0 0.3 -0.3
v 0.1 0 -0.3
v 0.1 0.3 -0.3
v -0.3 0 -0.4
v -0.3 0.2 -0.4
v -0.3 0.3 -0.4
v -0.2 0 -0.4
v -0.2 0.2 -0.4
v -0.2 0.3 -0.4
v -0.1 0 -0.4
v -0.1 0.2 -0.4
v 0 0 -0.4
v 0 0.2 -0.4
v 0.2 0 -0.4
v 0.2 0.2 -0.4
v 0.2 0.3 -0.4
v 0.3 0 -0.4
v 0.3 0.2 -0.4
v 0.3 0.3 -0.4
v -0.4 0 0.4
v -0.2 0 0.4
v -0.1 0 0.4
v 0 0 0.4
v 0.3 0 0.4
v 0.4 0 0.4
v -0.4 0 0.3
v -0.2 0 0.3
v -0.1 0 0.3
v 0 0 0.3
v 0.1 0 0.3
v 0.2 0 0.3
v 0.3 0 0.3
v 0.4 0 0.3
v -0.4 0 0.2
v -0.2 0 0.2
v -0.1 0 0.2
v 0 0 0.2
v 0.1 0 0.2
v 0.2 0 0.2
v 0.3 0 0.2
v -0.4 0 0.1
v -0.2 0 0.1
v -0.1 0 0.1
v 0 0 0.1
v 0.2 0 0.1
v 0.3 0 0.1
v -0.3 0 0
v -0.1 0 0
v 0 0 0
v 0.2 0 0
v -0.3 0 -0.1
v -0.1 0 -0.1
v 0 0 -0.1
v 0.2 0 -0.1
v 0.3 0 -0.1
v 0.4 0 -0.1
v -0.4 0 -0.2
v -0.3 0 -0.2
v 0 0 -0.2
v 0.1 0 -0.2
v 0.3 0 -0.2
v 0.4 0 -0.2
v -0.4 0 -0.3
v -0.3 0 -0.3
v -0.2 0 -0.3
v -0.1 0 -0.3
v 0 0 -0.3
v 0.1 0 -0.3
v 0.2 0 -0.3
v 0.3 0 -0.3
v -0.3 0 -0.4
v -0.2 0 -0.4
v -0.1 0 -0.4
v 0 0 -0.4
v 0.2 0 -0.4
v 0.3 0 -0.4
v -0.3 0.2 0.4
v -0.2 0.2 0.4
v -0.1 0.2 0.4
v 0 0.2 0.4
v 0.3 0.2 0.4
v 0.4 0.2 0.4
v -0.3 0.2 0.3
v -0.2 0.2 0.3
v -0.1 0.2 0.3
v 0 0.2 0.3
v 0.1 0.2 0.3
v 0.2 0.2 0.3
v 0.3 0.2 0.3
v 0.4 0.2 0.3
v -0.3 0.2 0.2
v -0.2 0.2 0.2
v -0.1 0.2 0.2
v 0 0.2 0.2
v 0.1 0.2 0.2
v 0.2 0.2 0.2
v -0.3 0.2 0.1
v -0.2 0.2 0.1
v -0.1 0.2 0.1
v 0 0.2 0.1
v -0.2 0.2 0
v -0.1 0.2 0
v 0 0.2 0
v 0.2 0.2 0
v -0.2 0.2 -0.1
v -0.1 0.2 -0.1
v 0 0.2 -0.1
v 0.2 0.2 -0.1
v -0.4 0.2 -0.2
v -0.3 0.2 -0.2
v -0.4 0.2 -0.3
v -0.3 0.2 -0.3
v -0.1 0.2 -0.3
v 0 0.2 -0.3
v -0.1 0.2 -0.4
v 0 0.2 -0.4
v -0.4 0.3 0.4
v -0.3 0.3 0.4
v -0.4 0.3 0.3
v -0.3 0.3 0.3
v -0.4 0.3 0.2
v -0.3 0.3 0.2
v 0.2 0.3 0.2
v 0.3 0.3 0.2
v -0.4 0.3 0.1
v -0.3 0.3 0.1
v 0.2 0.3 0.1
v 0.3 0.3 0.1
v -0.3 0.3 0
v -0.2 0.3 0
v -0.3 0.3 -0.1
v -0.2 0.3 -0.1
v 0.3 0.3 -0.1
v 0.4 0.3 -0.1
v 0 0.3 -0.2
v 0.1 0.3 -0.2
v 0.3 0.3 -0.2
v 0.4 0.3 -0.2
v -0.3 0.3 -0.3
v -0.2 0.3 -0.3
v 0 0.3 -0.3
v 0.1 0.3 -0.3
v 0.2 0.3 -0.3
v 0.3 0.3 -0.3
v -0.3 0.3 -0.4
v -0.2 0.3 -0.4
v 0.2 0.3 -0.4
v 0.3 0.3 -0.4

# faces
f 7/2/1 2/2/1 1/2/1
f 8/2/1 2/2/1 7/2/1
f 9/2/1 6/2/1 5/2/1
f 10/2/1 6/2/1 9/2/1
f 11/1/1 8/1/1 7/1/1
f 12/1/1 8/1/1 11/1/1
f 13/2/1 4/2/1 3/2/1
f 14/2/1 4/2/1 13/2/1
f 19/2/1 18/2/1 17/2/1
f 20/2/1 18/2/1 19/2/1
f 21/2/1 16/2/1 15/2/1
f 22/2/1 16/2/1 21/2/1
f 23/1/1 20/1/1 19/1/1
f 24/1/1 20/1/1 23/1/1
f 31/2/1 28/2/1 27/2/1
f 32/2/1 28/2/1 31/2/1
f 33/2/1 26/2/1 25/2/1
f 34/2/1 26/2/1 33/2/1
f 35/1/1 32/1/1 31/1/1
f 36/1/1 32/1/1 35/1/1
f 37/2/1 30/2/1 29/2/1
f 38/2/1 30/2/1 37/2/1
f 43/2/1 40/2/1 39/2/1
f 44/2/1 40/2/1 43/2/1
f 45/2/1 42/2/1 41/2/1
f 46/2/1 45/2/1 41/2/1
f 47/2/1 45/2/1 46/2/1
f 50/2/1 49/2/1 48/2/1
f 51/2/1 49/2/1 50/2/1
f 56/2/1 53/2/1 52/2/1
f 57/2/1 55/2/1 54/2/1
f 58/2/1 55/2/1 57/2/1
f 59/2/1 53/2/1 56/2/1
f 60/2/1 53/2/1 59/2/1
f 61/1/1 58/1/1 57/1/1
f 62/1/1 58/1/1 61/1/1
f 67/2/1 64/2/1 63/2/1
f 68/2/1 64/2/1 67/2/1
f 69/2/1 66/2/1 65/2/1
f 70/2/1 66/2/1 69/2/1
f 71/2/2 72/2/2 77/2/2
f 77/2/2 72/2/2 78/2/2
f 73/1/2 74/1/2 79/1/2
f 79/1/2 74/1/2 80/1/2
f 75/2/2 76/2/2 81/2/2
f 81/2/2 76/2/2 82/2/2
f 83/2/2 84/2/2 89/2/2
f 89/2/2 84/2/2 90/2/2
f 85/2/2 86/2/2 91/2/2
f 91/2/2 86/2/2 92/2/2
f 87/2/2 88/2/2 95/2/2
f 95/2/2 88/2/2 96/2/2
f 93/2/2 94/2/2 97/2/2
f 97/2/2 94/2/2 98/2/2
f 95/1/2 96/1/2 99/1/2
f 99/1/2 96/1/2 100/1/2
f 101/2/2 102/2/2 103/2/2
f 103/2/2 102/2/2 104/2/2
f 107/2/2 108/2/2 111/2/2
f 111/2/2 108/2/2 112/2/2
f 105/2/2 106/2/2 113/2/2
f 113/2/2 106/2/2 114/2/2
f 111/1/2 112/1/2 115/1/2
f 115/1/2 112/1/2 116/1/2
f 109/2/2 110/2/2 117/2/2
f 117/2/2 110/2/2 118/2/2
f 119/2/2 120/2/2 121/2/2
f 121/2/2 120/2/2 122/2/2
f 123/2/2 124/2/2 127/2/2
f 127/2/2 124/2/2 128/2/2
f 125/2/2 126/2/2 129/2/2
f 129/2/2 126/2/2 130/2/2
f 133/2/2 134/2/2 135/2/2
f 135/2/2 134/2/2 136/2/2
f 131/2/2 132/2/2 137/2/2
f 137/2/2 132/2/2 138/2/2
f 135/1/2 136/1/2 139/1/2
f 139/1/2 136/1/2 140/1/2
f 141/2/2 142/2/2 145/2/2
f 145/2/2 142/2/2 146/2/2
f 143/2/2 144/2/2 147/2/2
f 147/2/2 144/2/2 148/2/2
f 152/2/3 150/2/3 149/2/3
f 152/1/3 151/1/3 150/1/3
f 153/1/3 151/1/3 152/1/3
f 154/2/3 152/2/3 149/2/3
f 155/2/3 152/2/3 154/2/3
f 158/2/3 157/2/3 156/2/3
f 159/2/3 157/2/3 158/2/3
f 162/2/3 161/2/3 160/2/3
f 163/2/3 161/2/3 162/2/3
f 166/2/3 165/2/3 164/2/3
f 167/2/3 165/2/3 166/2/3
f 170/2/3 169/2/3 168/2/3
f 171/2/3 169/2/3 170/2/3
f 172/2/3 170/2/3 168/2/3
f 173/2/3 170/2/3 172/2/3
f 177/2/3 175/2/3 174/2/3
f 178/1/3 176/1/3 175/1/3
f 178/2/3 175/2/3 177/2/3
f 179/1/3 176/1/3 178/1/3
f 183/2/3 181/2/3 180/2/3
f 183/2/3 182/2/3 181/2/3
f 184/2/3 182/2/3 183/2/3
f 187/2/3 186/2/3 185/2/3
f 188/2/3 186/2/3 187/2/3
f 189/2/3 187/2/3 185/2/3
f 190/2/3 187/2/3 189/2/3
f 193/2/3 192/2/3 191/2/3
f 194/2/3 192/2/3 193/2/3
f 197/2/3 196/2/3 195/2/3
f 198/2/3 196/2/3 197/2/3
f 201/2/3 200/2/3 199/2/3
f 202/2/3 200/2/3 201/2/3
f 205/2/3 204/2/3 203/2/3
f 206/2/3 204/2/3 205/2/3
f 210/2/3 208/2/3 207/2/3
f 211/1/3 209/1/3 208/1/3
f 211/2/3 208/2/3 210/2/3
f 212/1/3 209/1/3 211/1/3
f 215/2/3 214/2/3 213/2/3
f 216/2/3 214/2/3 215/2/3
f 220/2/3 218/2/3 217/2/3
f 221/1/3 219/1/3 218/1/3
f 221/2/3 218/2/3 220/2/3
f 222/1/3 219/1/3 221/1/3
f 223/2/4 224/2/4 226/2/4
f 224/1/4 225/1/4 226/1/4
f 226/1/4 225/1/4 227/1/4
f 223/2/4 226/2/4 228/2/4
f 228/2/4 226/2/4 229/2/4
f 230/2/4 231/2/4 232/2/4
f 232/2/4 231/2/4 233/2/4
f 234/2/4 235/2/4 236/2/4
f 236/2/4 235/2/4 237/2/4
f 238/2/4 239/2/4 240/2/4
f 240/2/4 239/2/4 241/2/4
f 242/2/4 243/2/4 244/2/4
f 244/2/4 243/2/4 245/2/4
f 242/2/4 244/2/4 246/2/4
f 246/2/4 244/2/4 247/2/4
f 248/2/4 249/2/4 251/2/4
f 249/1/4 250/1/4 252/1/4
f 251/2/4 249/2/4 252/2/4
f 252/1/4 250/1/4 253/1/4
f 254/2/4 255/2/4 256/2/4
f 256/2/4 255/2/4 257/2/4
f 258/2/4 259/2/4 260/2/4
f 260/2/4 259/2/4 261/2/4
f 258/2/4 260/2/4 262/2/4
f 262/2/4 260/2/4 263/2/4
f 264/2/4 265/2/4 266/2/4
f 266/2/4 265/2/4 267/2/4
f 268/2/4 269/2/4 270/2/4
f 270/2/4 269/2/4 271/2/4
f 272/2/4 273/2/4 274/2/4
f 274/2/4 273/2/4 275/2/4
f 276/2/4 277/2/4 279/2/4
f 277/2/4 278/2/4 279/2/4
f 279/2/4 278/2/4 280/2/4
f 281/2/4 282/2/4 284/2/4
f 282/1/4 283/1/4 285/1/4
f 284/2/4 282/2/4 285/2/4
f 285/1/4 283/1/4 286/1/4
f 287/2/4 288/2/4 289/2/4
f 289/2/4 288/2/4 290/2/4
f 291/2/4 292/2/4 294/2/4
f 292/1/4 293/1/4 295/1/4
f 294/2/4 292/2/4 295/2/4
f 295/1/4 293/1/4 296/1/4
f 303/2/5 298/2/5 297/2/5
f 304/2/5 298/2/5 303/2/5
f 305/2/5 300/2/5 299/2/5
f 306/2/5 300/2/5 305/2/5
f 309/2/5 302/2/5 301/2/5
f 310/2/5 302/2/5 309/2/5
f 315/2/5 308/2/5 307/2/5
f 316/2/5 308/2/5 315/2/5
f 318/2/5 312/2/5 311/2/5
f 319/2/5 312/2/5 318/2/5
f 320/2/5 314/2/5 313/2/5
f 321/2/5 314/2/5 320/2/5
f 322/2/5 317/2/5 316/2/5
f 323/2/5 317/2/5 322/2/5
f 328/2/5 325/2/5 324/2/5
f 329/2/5 325/2/5 328/2/5
f 330/2/5 327/2/5 326/2/5
f 331/2/5 327/2/5 330/2/5
f 338/2/5 333/2/5 332/2/5
f 339/2/5 333/2/5 338/2/5
f 340/2/5 335/2/5 334/2/5
f 341/2/5 335/2/5 340/2/5
f 344/2/5 337/2/5 336/2/5
f 345/2/5 337/2/5 344/2/5
f 348/2/5 342/2/5 341/2/5
f 349/2/5 342/2/5 348/2/5
f 350/2/5 344/2/5 343/2/5
f 351/2/5 344/2/5 350/2/5
f 352/2/5 347/2/5 346/2/5
f 353/2/5 347/2/5 352/2/5
f 354/2/6 355/2/6 360/2/6
f 360/2/6 355/2/6 361/2/6
f 356/2/6 357/2/6 362/2/6
f 362/2/6 357/2/6 363/2/6
f 358/2/6 359/2/6 366/2/6
f 366/2/6 359/2/6 367/2/6
f 364/2/6 365/2/6 372/2/6
f 372/2/6 365/2/6 373/2/6
f 368/2/6 369/2/6 374/2/6
f 374/2/6 369/2/6 375/2/6
f 370/1/6 371/1/6 376/1/6
f 376/1/6 371/1/6 377/1/6
f 378/2/6 379/2/6 382/2/6
f 382/2/6 379/2/6 383/2/6
f 380/2/6 381/2/6 384/2/6
f 384/2/6 381/2/6 385/2/6
f 386/2/6 387/2/6 388/2/6
f 388/2/6 387/2/6 389/2/6
f 390/2/6 391/2/6 392/2/6
f 392/2/6 391/2/6 393/2/6
f 394/1/6 395/1/6 396/1/6
f 396/1/6 395/1/6 397/1/6
f 398/2/6 399/2/6 402/2/6
f 402/2/6 399/2/6 403/2/6
f 400/2/6 401/2/6 404/2/6
f 404/2/6 401/2/6 405/2/6
f 406/2/6 407/2/6 408/2/6
f 408/2/6 407/2/6 409/2/6
f 410/2/6 411/2/6 414/2/6
f 414/2/6 411/2/6 415/2/6
f 412/2/6 413/2/6 418/2/6
f 418/2/6 413/2/6 419/2/6
f 416/1/6 417/1/6 422/1/6
f 422/1/6 417/1/6 423/1/6
f 420/1/6 421/1/6 424/1/6
f 424/1/6 421/1/6 425/1/6
