# MagicaVoxel @ Ephtracy

# group
o 

# material
mtllib Boss.mtl
usemtl palette

# normals
vn -1 0 0
vn 1 0 0
vn 0 0 1
vn 0 0 -1
vn 0 -1 0
vn 0 1 0

# texcoords
vt 0.0175781 0.5
vt 0.0292969 0.5
vt 0.0371094 0.5
vt 0.0605469 0.5
vt 0.0644531 0.5
vt 0.0917969 0.5
vt 0.0957031 0.5
vt 0.123047 0.5
vt 0.248047 0.5
vt 0.263672 0.5

# verts
v -0.8 -0.8 0.2
v -0.8 -0.8 -0.2
v -0.8 -0.6 0.2
v -0.8 -0.6 -0.2
v -0.8 0.2 0.2
v -0.8 0.2 -0.2
v -0.6 -0.8 0.4
v -0.6 -0.8 0.2
v -0.6 -0.8 -0.2
v -0.6 -0.8 -0.4
v -0.6 -0.6 0.2
v -0.6 -0.6 -0.2
v -0.6 -0.2 0.4
v -0.6 -0.2 0.2
v -0.6 -0.2 -0.2
v -0.6 -0.2 -0.4
v -0.6 0.2 0.4
v -0.6 0.2 0.2
v -0.6 0.2 -0.2
v -0.6 0.2 -0.4
v -0.6 0.8 5.96046e-08
v -0.6 0.8 -0.2
v -0.6 1 5.96046e-08
v -0.6 1 -0.2
v -0.6 1.2 0.4
v -0.6 1.2 -0.4
v -0.6 1.4 0.4
v -0.6 1.4 -0.4
v -0.4 -1.6 0.2
v -0.4 -1.6 -0.2
v -0.4 -1.4 0.2
v -0.4 -1.4 -0.2
v -0.4 -1 0.2
v -0.4 -1 -0.2
v -0.4 -0.8 0.2
v -0.4 -0.8 -0.2
v -0.4 0.4 0.4
v -0.4 0.4 0.2
v -0.4 0.4 5.96046e-08
v -0.4 0.4 -0.4
v -0.4 0.6 0.4
v -0.4 0.6 0.2
v -0.4 0.8 0.4
v -0.4 0.8 0.2
v -0.4 0.8 5.96046e-08
v -0.4 0.8 -0.2
v -0.4 1 0.4
v -0.4 1 0.3
v -0.4 1 0.2
v -0.4 1 5.96046e-08
v -0.4 1 -0.2
v -0.4 1.1 0.4
v -0.4 1.1 0.3
v -0.4 1.2 0.6
v -0.4 1.2 0.4
v -0.4 1.2 5.96046e-08
v -0.4 1.2 -0.4
v -0.4 1.2 -0.6
v -0.4 1.4 0.6
v -0.4 1.4 0.4
v -0.4 1.4 -0.4
v -0.4 1.4 -0.6
v -0.4 1.6 0.4
v -0.4 1.6 -0.4
v -0.2 0.2 0.2
v -0.2 0.2 -0.2
v -0.2 0.4 0.2
v -0.2 0.4 5.96046e-08
v -0.2 0.4 -0.2
v 0.2 -1.6 0.2
v 0.2 -1.6 -0.2
v 0.2 -1.4 0.2
v 0.2 -1.4 -0.2
v 0.2 -1 0.2
v 0.2 -1 -0.2
v 0.2 -0.8 0.2
v 0.2 -0.8 -0.2
v -0.2 -1.6 0.2
v -0.2 -1.6 -0.2
v -0.2 -1.4 0.2
v -0.2 -1.4 -0.2
v -0.2 -1 0.2
v -0.2 -1 -0.2
v -0.2 -0.8 0.2
v -0.2 -0.8 -0.2
v 0.2 0.2 0.2
v 0.2 0.2 -0.2
v 0.2 0.4 0.2
v 0.2 0.4 5.96046e-08
v 0.2 0.4 -0.2
v 0.4 -1.6 0.2
v 0.4 -1.6 -0.2
v 0.4 -1.4 0.2
v 0.4 -1.4 -0.2
v 0.4 -1 0.2
v 0.4 -1 -0.2
v 0.4 -0.8 0.2
v 0.4 -0.8 -0.2
v 0.4 0.4 0.4
v 0.4 0.4 0.2
v 0.4 0.4 5.96046e-08
v 0.4 0.4 -0.4
v 0.4 0.6 0.4
v 0.4 0.6 0.2
v 0.4 0.8 0.4
v 0.4 0.8 0.2
v 0.4 0.8 5.96046e-08
v 0.4 0.8 -0.2
v 0.4 1 0.4
v 0.4 1 0.3
v 0.4 1 0.2
v 0.4 1 5.96046e-08
v 0.4 1 -0.2
v 0.4 1.1 0.4
v 0.4 1.1 0.3
v 0.4 1.2 0.6
v 0.4 1.2 0.4
v 0.4 1.2 5.96046e-08
v 0.4 1.2 -0.4
v 0.4 1.2 -0.6
v 0.4 1.4 0.6
v 0.4 1.4 0.4
v 0.4 1.4 -0.4
v 0.4 1.4 -0.6
v 0.4 1.6 0.4
v 0.4 1.6 -0.4
v 0.6 -0.8 0.4
v 0.6 -0.8 0.2
v 0.6 -0.8 -0.2
v 0.6 -0.8 -0.4
v 0.6 -0.6 0.2
v 0.6 -0.6 -0.2
v 0.6 -0.2 0.4
v 0.6 -0.2 0.2
v 0.6 -0.2 -0.2
v 0.6 -0.2 -0.4
v 0.6 0.2 0.4
v 0.6 0.2 0.2
v 0.6 0.2 -0.2
v 0.6 0.2 -0.4
v 0.6 0.8 5.96046e-08
v 0.6 0.8 -0.2
v 0.6 1 5.96046e-08
v 0.6 1 -0.2
v 0.6 1.2 0.4
v 0.6 1.2 -0.4
v 0.6 1.4 0.4
v 0.6 1.4 -0.4
v 0.8 -0.8 0.2
v 0.8 -0.8 -0.2
v 0.8 -0.6 0.2
v 0.8 -0.6 -0.2
v 0.8 0.2 0.2
v 0.8 0.2 -0.2
v -0.4 1.2 0.6
v -0.4 1.4 0.6
v 0.4 1.2 0.6
v 0.4 1.4 0.6
v -0.6 -0.8 0.4
v -0.6 -0.2 0.4
v -0.6 0.2 0.4
v -0.6 1.2 0.4
v -0.6 1.4 0.4
v -0.4 -0.4 0.4
v -0.4 -0.2 0.4
v -0.4 0.2 0.4
v -0.4 0.4 0.4
v -0.4 0.6 0.4
v -0.4 0.8 0.4
v -0.4 1 0.4
v -0.4 1.1 0.4
v -0.4 1.2 0.4
v -0.4 1.4 0.4
v -0.4 1.6 0.4
v -0.3 0.9 0.4
v -0.3 1 0.4
v -0.2 -0.8 0.4
v -0.2 -0.6 0.4
v -0.2 -0.4 0.4
v -0.2 -0.2 0.4
v -0.2 0.2 0.4
v -0.2 0.8 0.4
v -0.2 0.9 0.4
v -0.2 1 0.4
v -0.2 1.1 0.4
v -0.1 0.8 0.4
v -0.1 1 0.4
v 0 -0.8 0.4
v 0 -0.6 0.4
v 0.1 0.8 0.4
v 0.1 1 0.4
v 0.2 -0.4 0.4
v 0.2 -0.2 0.4
v 0.2 0.2 0.4
v 0.2 0.8 0.4
v 0.2 0.9 0.4
v 0.2 1 0.4
v 0.2 1.1 0.4
v 0.3 0.9 0.4
v 0.3 1 0.4
v 0.4 -0.4 0.4
v 0.4 -0.2 0.4
v 0.4 0.2 0.4
v 0.4 0.4 0.4
v 0.4 0.6 0.4
v 0.4 0.8 0.4
v 0.4 1 0.4
v 0.4 1.1 0.4
v 0.4 1.2 0.4
v 0.4 1.4 0.4
v 0.4 1.6 0.4
v 0.6 -0.8 0.4
v 0.6 -0.2 0.4
v 0.6 0.2 0.4
v 0.6 1.2 0.4
v 0.6 1.4 0.4
v -0.8 -0.8 0.2
v -0.8 -0.6 0.2
v -0.8 0.2 0.2
v -0.6 -0.8 0.2
v -0.6 -0.6 0.2
v -0.6 -0.2 0.2
v -0.6 0.2 0.2
v -0.4 -1.6 0.2
v -0.4 -1.4 0.2
v -0.4 -1 0.2
v -0.4 -0.8 0.2
v -0.2 -1.6 0.2
v -0.2 -1.4 0.2
v -0.2 -1 0.2
v -0.2 -0.8 0.2
v -0.2 0.2 0.2
v -0.2 0.4 0.2
v 0.2 -1.6 0.2
v 0.2 -1.4 0.2
v 0.2 -1 0.2
v 0.2 -0.8 0.2
v 0.2 0.2 0.2
v 0.2 0.4 0.2
v 0.4 -1.6 0.2
v 0.4 -1.4 0.2
v 0.4 -1 0.2
v 0.4 -0.8 0.2
v 0.6 -0.8 0.2
v 0.6 -0.6 0.2
v 0.6 -0.2 0.2
v 0.6 0.2 0.2
v 0.8 -0.8 0.2
v 0.8 -0.6 0.2
v 0.8 0.2 0.2
v -0.6 0.8 5.96046e-08
v -0.6 1 5.96046e-08
v -0.4 0.8 5.96046e-08
v -0.4 1 5.96046e-08
v 0.4 0.8 5.96046e-08
v 0.4 1 5.96046e-08
v 0.6 0.8 5.96046e-08
v 0.6 1 5.96046e-08
v -0.8 -0.8 -0.2
v -0.8 -0.6 -0.2
v -0.8 0.2 -0.2
v -0.6 -0.8 -0.2
v -0.6 -0.6 -0.2
v -0.6 -0.2 -0.2
v -0.6 0.2 -0.2
v -0.6 0.8 -0.2
v -0.6 1 -0.2
v -0.4 -1.6 -0.2
v -0.4 -1.4 -0.2
v -0.4 -1 -0.2
v -0.4 -0.8 -0.2
v -0.4 0.8 -0.2
v -0.4 1 -0.2
v -0.2 -1.6 -0.2
v -0.2 -1.4 -0.2
v -0.2 -1 -0.2
v -0.2 -0.8 -0.2
v -0.2 0.2 -0.2
v -0.2 0.4 -0.2
v 0.2 -1.6 -0.2
v 0.2 -1.4 -0.2
v 0.2 -1 -0.2
v 0.2 -0.8 -0.2
v 0.2 0.2 -0.2
v 0.2 0.4 -0.2
v 0.4 -1.6 -0.2
v 0.4 -1.4 -0.2
v 0.4 -1 -0.2
v 0.4 -0.8 -0.2
v 0.4 0.8 -0.2
v 0.4 1 -0.2
v 0.6 -0.8 -0.2
v 0.6 -0.6 -0.2
v 0.6 -0.2 -0.2
v 0.6 0.2 -0.2
v 0.6 0.8 -0.2
v 0.6 1 -0.2
v 0.8 -0.8 -0.2
v 0.8 -0.6 -0.2
v 0.8 0.2 -0.2
v -0.6 -0.8 -0.4
v -0.6 -0.2 -0.4
v -0.6 0.2 -0.4
v -0.6 1.2 -0.4
v -0.6 1.4 -0.4
v -0.4 -0.4 -0.4
v -0.4 -0.2 -0.4
v -0.4 0.2 -0.4
v -0.4 0.4 -0.4
v -0.4 1.2 -0.4
v -0.4 1.4 -0.4
v -0.4 1.6 -0.4
v -0.2 -0.4 -0.4
v -0.2 -0.2 -0.4
v -0.2 0.2 -0.4
v 0.2 -0.4 -0.4
v 0.2 -0.2 -0.4
v 0.2 0.2 -0.4
v 0.4 -0.4 -0.4
v 0.4 -0.2 -0.4
v 0.4 0.2 -0.4
v 0.4 0.4 -0.4
v 0.4 1.2 -0.4
v 0.4 1.4 -0.4
v 0.4 1.6 -0.4
v 0.6 -0.8 -0.4
v 0.6 -0.2 -0.4
v 0.6 0.2 -0.4
v 0.6 1.2 -0.4
v 0.6 1.4 -0.4
v -0.4 1.2 -0.6
v -0.4 1.4 -0.6
v 0.4 1.2 -0.6
v 0.4 1.4 -0.6
v -0.4 -1.6 0.2
v -0.2 -1.6 0.2
v 0.2 -1.6 0.2
v 0.4 -1.6 0.2
v -0.4 -1.6 -0.2
v -0.2 -1.6 -0.2
v 0.2 -1.6 -0.2
v 0.4 -1.6 -0.2
v -0.6 -0.8 0.4
v -0.2 -0.8 0.4
v 0 -0.8 0.4
v 0.6 -0.8 0.4
v -0.8 -0.8 0.2
v -0.6 -0.8 0.2
v -0.4 -0.8 0.2
v -0.2 -0.8 0.2
v 0 -0.8 0.2
v 0.2 -0.8 0.2
v 0.4 -0.8 0.2
v 0.6 -0.8 0.2
v 0.8 -0.8 0.2
v -0.8 -0.8 -0.2
v -0.6 -0.8 -0.2
v -0.4 -0.8 -0.2
v -0.2 -0.8 -0.2
v 0.2 -0.8 -0.2
v 0.4 -0.8 -0.2
v 0.6 -0.8 -0.2
v 0.8 -0.8 -0.2
v -0.6 -0.8 -0.4
v 0.6 -0.8 -0.4
v -0.4 0.4 0.4
v 0.4 0.4 0.4
v -0.4 0.4 0.2
v -0.2 0.4 0.2
v 0.2 0.4 0.2
v 0.4 0.4 0.2
v -0.4 0.4 5.96046e-08
v -0.2 0.4 5.96046e-08
v 0.2 0.4 5.96046e-08
v 0.4 0.4 5.96046e-08
v -0.2 0.4 -0.2
v 0.2 0.4 -0.2
v -0.4 0.4 -0.4
v 0.4 0.4 -0.4
v -0.6 0.8 5.96046e-08
v -0.4 0.8 5.96046e-08
v 0.4 0.8 5.96046e-08
v 0.6 0.8 5.96046e-08
v -0.6 0.8 -0.2
v -0.4 0.8 -0.2
v 0.4 0.8 -0.2
v 0.6 0.8 -0.2
v -0.4 1.2 0.6
v 0.4 1.2 0.6
v -0.6 1.2 0.4
v -0.4 1.2 0.4
v 0.4 1.2 0.4
v 0.6 1.2 0.4
v -0.4 1.2 5.96046e-08
v 0.4 1.2 5.96046e-08
v -0.6 1.2 -0.4
v -0.4 1.2 -0.4
v 0.4 1.2 -0.4
v 0.6 1.2 -0.4
v -0.4 1.2 -0.6
v 0.4 1.2 -0.6
v -0.6 0.2 0.4
v -0.4 0.2 0.4
v -0.2 0.2 0.4
v 0.2 0.2 0.4
v 0.4 0.2 0.4
v 0.6 0.2 0.4
v -0.8 0.2 0.2
v -0.6 0.2 0.2
v -0.2 0.2 0.2
v 0.2 0.2 0.2
v 0.6 0.2 0.2
v 0.8 0.2 0.2
v -0.8 0.2 -0.2
v -0.6 0.2 -0.2
v -0.2 0.2 -0.2
v 0.2 0.2 -0.2
v 0.6 0.2 -0.2
v 0.8 0.2 -0.2
v -0.6 0.2 -0.4
v -0.4 0.2 -0.4
v -0.2 0.2 -0.4
v 0.2 0.2 -0.4
v 0.4 0.2 -0.4
v 0.6 0.2 -0.4
v -0.6 1 5.96046e-08
v -0.4 1 5.96046e-08
v 0.4 1 5.96046e-08
v 0.6 1 5.96046e-08
v -0.6 1 -0.2
v -0.4 1 -0.2
v 0.4 1 -0.2
v 0.6 1 -0.2
v -0.4 1.4 0.6
v 0.4 1.4 0.6
v -0.6 1.4 0.4
v -0.4 1.4 0.4
v 0.4 1.4 0.4
v 0.6 1.4 0.4
v -0.6 1.4 -0.4
v -0.4 1.4 -0.4
v 0.4 1.4 -0.4
v 0.6 1.4 -0.4
v -0.4 1.4 -0.6
v 0.4 1.4 -0.6
v -0.4 1.6 0.4
v 0.4 1.6 0.4
v -0.4 1.6 -0.4
v 0.4 1.6 -0.4

# faces
f 3/4/1 2/4/1 1/4/1
f 4/4/1 2/4/1 3/4/1
f 5/1/1 4/1/1 3/1/1
f 6/1/1 4/1/1 5/1/1
f 11/7/1 8/7/1 7/7/1
f 12/7/1 10/7/1 9/7/1
f 13/7/1 11/7/1 7/7/1
f 14/7/1 11/7/1 13/7/1
f 15/7/1 10/7/1 12/7/1
f 16/7/1 10/7/1 15/7/1
f 17/1/1 14/1/1 13/1/1
f 18/1/1 14/1/1 17/1/1
f 19/1/1 16/1/1 15/1/1
f 20/1/1 16/1/1 19/1/1
f 23/4/1 22/4/1 21/4/1
f 24/4/1 22/4/1 23/4/1
f 27/9/1 26/9/1 25/9/1
f 28/9/1 26/9/1 27/9/1
f 31/6/1 30/6/1 29/6/1
f 32/6/1 30/6/1 31/6/1
f 33/7/1 32/7/1 31/7/1
f 34/7/1 32/7/1 33/7/1
f 35/1/1 34/1/1 33/1/1
f 36/1/1 34/1/1 35/1/1
f 41/10/1 38/10/1 37/10/1
f 42/4/1 39/4/1 38/4/1
f 42/10/1 38/10/1 41/10/1
f 43/4/1 42/4/1 41/4/1
f 44/4/1 39/4/1 42/4/1
f 44/4/1 42/4/1 43/4/1
f 45/10/1 40/10/1 39/10/1
f 45/4/1 39/4/1 44/4/1
f 46/10/1 40/10/1 45/10/1
f 47/5/1 44/5/1 43/5/1
f 48/5/1 44/5/1 47/5/1
f 49/4/1 45/4/1 44/4/1
f 49/5/1 44/5/1 48/5/1
f 50/4/1 45/4/1 49/4/1
f 51/10/1 40/10/1 46/10/1
f 52/10/1 48/10/1 47/10/1
f 53/4/1 50/4/1 49/4/1
f 53/10/1 48/10/1 52/10/1
f 53/4/1 49/4/1 48/4/1
f 55/4/1 53/4/1 52/4/1
f 56/10/1 51/10/1 50/10/1
f 56/4/1 50/4/1 53/4/1
f 56/4/1 53/4/1 55/4/1
f 57/10/1 40/10/1 51/10/1
f 57/10/1 51/10/1 56/10/1
f 59/9/1 55/9/1 54/9/1
f 60/9/1 55/9/1 59/9/1
f 61/9/1 58/9/1 57/9/1
f 62/9/1 58/9/1 61/9/1
f 63/9/1 61/9/1 60/9/1
f 64/9/1 61/9/1 63/9/1
f 67/4/1 66/4/1 65/4/1
f 68/4/1 66/4/1 67/4/1
f 69/4/1 66/4/1 68/4/1
f 72/6/1 71/6/1 70/6/1
f 73/6/1 71/6/1 72/6/1
f 74/7/1 73/7/1 72/7/1
f 75/7/1 73/7/1 74/7/1
f 76/1/1 75/1/1 74/1/1
f 77/1/1 75/1/1 76/1/1
f 78/6/2 79/6/2 80/6/2
f 80/6/2 79/6/2 81/6/2
f 80/7/2 81/7/2 82/7/2
f 82/7/2 81/7/2 83/7/2
f 82/1/2 83/1/2 84/1/2
f 84/1/2 83/1/2 85/1/2
f 86/4/2 87/4/2 88/4/2
f 88/4/2 87/4/2 89/4/2
f 89/4/2 87/4/2 90/4/2
f 91/6/2 92/6/2 93/6/2
f 93/6/2 92/6/2 94/6/2
f 93/7/2 94/7/2 95/7/2
f 95/7/2 94/7/2 96/7/2
f 95/1/2 96/1/2 97/1/2
f 97/1/2 96/1/2 98/1/2
f 99/10/2 100/10/2 103/10/2
f 100/4/2 101/4/2 104/4/2
f 103/10/2 100/10/2 104/10/2
f 103/4/2 104/4/2 105/4/2
f 104/4/2 101/4/2 106/4/2
f 105/4/2 104/4/2 106/4/2
f 101/10/2 102/10/2 107/10/2
f 106/4/2 101/4/2 107/4/2
f 107/10/2 102/10/2 108/10/2
f 105/5/2 106/5/2 109/5/2
f 109/5/2 106/5/2 110/5/2
f 106/4/2 107/4/2 111/4/2
f 110/5/2 106/5/2 111/5/2
f 111/4/2 107/4/2 112/4/2
f 108/10/2 102/10/2 113/10/2
f 109/10/2 110/10/2 114/10/2
f 111/4/2 112/4/2 115/4/2
f 114/10/2 110/10/2 115/10/2
f 110/4/2 111/4/2 115/4/2
f 114/4/2 115/4/2 117/4/2
f 112/10/2 113/10/2 118/10/2
f 115/4/2 112/4/2 118/4/2
f 117/4/2 115/4/2 118/4/2
f 113/10/2 102/10/2 119/10/2
f 118/10/2 113/10/2 119/10/2
f 116/9/2 117/9/2 121/9/2
f 121/9/2 117/9/2 122/9/2
f 119/9/2 120/9/2 123/9/2
f 123/9/2 120/9/2 124/9/2
f 122/9/2 123/9/2 125/9/2
f 125/9/2 123/9/2 126/9/2
f 127/7/2 128/7/2 131/7/2
f 129/7/2 130/7/2 132/7/2
f 127/7/2 131/7/2 133/7/2
f 133/7/2 131/7/2 134/7/2
f 132/7/2 130/7/2 135/7/2
f 135/7/2 130/7/2 136/7/2
f 133/1/2 134/1/2 137/1/2
f 137/1/2 134/1/2 138/1/2
f 135/1/2 136/1/2 139/1/2
f 139/1/2 136/1/2 140/1/2
f 141/4/2 142/4/2 143/4/2
f 143/4/2 142/4/2 144/4/2
f 145/9/2 146/9/2 147/9/2
f 147/9/2 146/9/2 148/9/2
f 149/4/2 150/4/2 151/4/2
f 151/4/2 150/4/2 152/4/2
f 151/3/2 152/3/2 153/3/2
f 153/3/2 152/3/2 154/3/2
f 157/9/3 156/9/3 155/9/3
f 158/9/3 156/9/3 157/9/3
f 164/7/3 160/7/3 159/7/3
f 165/1/3 161/1/3 160/1/3
f 165/7/3 160/7/3 164/7/3
f 166/1/3 161/1/3 165/1/3
f 172/9/3 163/9/3 162/9/3
f 173/9/3 163/9/3 172/9/3
f 175/5/3 170/5/3 169/5/3
f 176/10/3 171/10/3 170/10/3
f 176/5/3 170/5/3 175/5/3
f 177/7/3 164/7/3 159/7/3
f 178/7/3 164/7/3 177/7/3
f 179/8/3 165/8/3 164/8/3
f 179/7/3 164/7/3 178/7/3
f 180/7/3 166/7/3 165/7/3
f 180/8/3 165/8/3 179/8/3
f 181/7/3 166/7/3 180/7/3
f 182/5/3 175/5/3 169/5/3
f 182/4/3 169/4/3 168/4/3
f 183/10/3 176/10/3 175/10/3
f 183/5/3 175/5/3 182/5/3
f 184/10/3 171/10/3 176/10/3
f 184/10/3 176/10/3 183/10/3
f 185/4/3 172/4/3 171/4/3
f 185/10/3 171/10/3 184/10/3
f 186/10/3 183/10/3 182/10/3
f 186/10/3 184/10/3 183/10/3
f 186/4/3 182/4/3 168/4/3
f 187/4/3 185/4/3 184/4/3
f 187/10/3 184/10/3 186/10/3
f 188/1/3 178/1/3 177/1/3
f 189/7/3 179/7/3 178/7/3
f 189/1/3 178/1/3 188/1/3
f 189/7/3 180/7/3 179/7/3
f 190/4/3 187/4/3 186/4/3
f 190/4/3 186/4/3 168/4/3
f 191/4/3 185/4/3 187/4/3
f 191/4/3 187/4/3 190/4/3
f 192/7/3 180/7/3 189/7/3
f 192/7/3 189/7/3 188/7/3
f 193/9/3 181/9/3 180/9/3
f 193/7/3 180/7/3 192/7/3
f 194/9/3 181/9/3 193/9/3
f 195/4/3 190/4/3 168/4/3
f 195/10/3 191/10/3 190/10/3
f 196/10/3 191/10/3 195/10/3
f 197/4/3 185/4/3 191/4/3
f 197/10/3 191/10/3 196/10/3
f 198/4/3 172/4/3 185/4/3
f 198/4/3 185/4/3 197/4/3
f 199/10/3 197/10/3 196/10/3
f 199/5/3 196/5/3 195/5/3
f 199/10/3 198/10/3 197/10/3
f 200/10/3 198/10/3 199/10/3
f 201/7/3 192/7/3 188/7/3
f 201/8/3 193/8/3 192/8/3
f 202/7/3 194/7/3 193/7/3
f 202/8/3 193/8/3 201/8/3
f 203/7/3 194/7/3 202/7/3
f 204/10/3 168/10/3 167/10/3
f 205/4/3 195/4/3 168/4/3
f 205/10/3 168/10/3 204/10/3
f 206/5/3 200/5/3 199/5/3
f 206/4/3 195/4/3 205/4/3
f 206/5/3 199/5/3 195/5/3
f 207/10/3 198/10/3 200/10/3
f 207/5/3 200/5/3 206/5/3
f 208/4/3 172/4/3 198/4/3
f 208/10/3 198/10/3 207/10/3
f 209/4/3 172/4/3 208/4/3
f 210/9/3 174/9/3 173/9/3
f 211/9/3 174/9/3 210/9/3
f 212/7/3 201/7/3 188/7/3
f 212/7/3 202/7/3 201/7/3
f 213/1/3 203/1/3 202/1/3
f 213/7/3 202/7/3 212/7/3
f 214/1/3 203/1/3 213/1/3
f 215/9/3 210/9/3 209/9/3
f 216/9/3 210/9/3 215/9/3
f 220/4/3 218/4/3 217/4/3
f 221/1/3 219/1/3 218/1/3
f 221/4/3 218/4/3 220/4/3
f 222/1/3 219/1/3 221/1/3
f 223/1/3 219/1/3 222/1/3
f 228/6/3 225/6/3 224/6/3
f 229/7/3 226/7/3 225/7/3
f 229/6/3 225/6/3 228/6/3
f 230/1/3 227/1/3 226/1/3
f 230/7/3 226/7/3 229/7/3
f 231/1/3 227/1/3 230/1/3
f 238/4/3 233/4/3 232/4/3
f 239/4/3 233/4/3 238/4/3
f 240/6/3 235/6/3 234/6/3
f 241/7/3 236/7/3 235/7/3
f 241/6/3 235/6/3 240/6/3
f 242/1/3 237/1/3 236/1/3
f 242/7/3 236/7/3 241/7/3
f 243/1/3 237/1/3 242/1/3
f 248/4/3 245/4/3 244/4/3
f 249/3/3 247/3/3 246/3/3
f 249/4/3 245/4/3 248/4/3
f 249/3/3 246/3/3 245/3/3
f 250/3/3 247/3/3 249/3/3
f 253/4/3 252/4/3 251/4/3
f 254/4/3 252/4/3 253/4/3
f 257/4/3 256/4/3 255/4/3
f 258/4/3 256/4/3 257/4/3
f 259/4/4 260/4/4 262/4/4
f 260/1/4 261/1/4 263/1/4
f 262/4/4 260/4/4 263/4/4
f 263/1/4 261/1/4 264/1/4
f 264/1/4 261/1/4 265/1/4
f 266/4/4 267/4/4 272/4/4
f 272/4/4 267/4/4 273/4/4
f 268/6/4 269/6/4 274/6/4
f 269/7/4 270/7/4 275/7/4
f 274/6/4 269/6/4 275/6/4
f 270/1/4 271/1/4 276/1/4
f 275/7/4 270/7/4 276/7/4
f 276/1/4 271/1/4 277/1/4
f 278/4/4 279/4/4 284/4/4
f 284/4/4 279/4/4 285/4/4
f 280/6/4 281/6/4 286/6/4
f 281/7/4 282/7/4 287/7/4
f 286/6/4 281/6/4 287/6/4
f 282/1/4 283/1/4 288/1/4
f 287/7/4 282/7/4 288/7/4
f 288/1/4 283/1/4 289/1/4
f 290/4/4 291/4/4 296/4/4
f 296/4/4 291/4/4 297/4/4
f 292/4/4 293/4/4 298/4/4
f 294/3/4 295/3/4 299/3/4
f 298/4/4 293/4/4 299/4/4
f 293/3/4 294/3/4 299/3/4
f 299/3/4 295/3/4 300/3/4
f 301/7/4 302/7/4 306/7/4
f 302/1/4 303/1/4 307/1/4
f 306/7/4 302/7/4 307/7/4
f 307/1/4 303/1/4 308/1/4
f 304/9/4 305/9/4 310/9/4
f 310/9/4 305/9/4 311/9/4
f 301/7/4 306/7/4 313/7/4
f 306/8/4 307/8/4 313/8/4
f 307/7/4 308/7/4 314/7/4
f 313/8/4 307/8/4 314/8/4
f 314/7/4 308/7/4 315/7/4
f 301/7/4 313/7/4 316/7/4
f 313/7/4 314/7/4 316/7/4
f 314/9/4 315/9/4 317/9/4
f 316/7/4 314/7/4 317/7/4
f 317/9/4 315/9/4 318/9/4
f 301/7/4 316/7/4 319/7/4
f 316/8/4 317/8/4 319/8/4
f 317/7/4 318/7/4 320/7/4
f 319/8/4 317/8/4 320/8/4
f 320/7/4 318/7/4 321/7/4
f 309/10/4 310/10/4 322/10/4
f 322/10/4 310/10/4 323/10/4
f 311/9/4 312/9/4 324/9/4
f 324/9/4 312/9/4 325/9/4
f 319/7/4 320/7/4 326/7/4
f 301/7/4 319/7/4 326/7/4
f 320/1/4 321/1/4 327/1/4
f 326/7/4 320/7/4 327/7/4
f 327/1/4 321/1/4 328/1/4
f 323/9/4 324/9/4 329/9/4
f 329/9/4 324/9/4 330/9/4
f 331/9/4 332/9/4 333/9/4
f 333/9/4 332/9/4 334/9/4
f 339/6/5 336/6/5 335/6/5
f 340/6/5 336/6/5 339/6/5
f 341/6/5 338/6/5 337/6/5
f 342/6/5 338/6/5 341/6/5
f 348/7/5 344/7/5 343/7/5
f 349/7/5 344/7/5 348/7/5
f 350/1/5 345/1/5 344/1/5
f 350/7/5 344/7/5 349/7/5
f 351/7/5 346/7/5 345/7/5
f 351/1/5 345/1/5 350/1/5
f 352/7/5 346/7/5 351/7/5
f 353/7/5 346/7/5 352/7/5
f 354/7/5 346/7/5 353/7/5
f 356/4/5 348/4/5 347/4/5
f 357/7/5 349/7/5 348/7/5
f 357/4/5 348/4/5 356/4/5
f 358/7/5 349/7/5 357/7/5
f 359/1/5 351/1/5 350/1/5
f 359/1/5 352/1/5 351/1/5
f 360/1/5 352/1/5 359/1/5
f 361/7/5 354/7/5 353/7/5
f 362/4/5 355/4/5 354/4/5
f 362/7/5 354/7/5 361/7/5
f 363/4/5 355/4/5 362/4/5
f 364/7/5 361/7/5 360/7/5
f 364/7/5 360/7/5 359/7/5
f 364/7/5 362/7/5 361/7/5
f 364/7/5 358/7/5 357/7/5
f 364/7/5 359/7/5 358/7/5
f 365/7/5 362/7/5 364/7/5
f 368/10/5 367/10/5 366/10/5
f 369/10/5 367/10/5 368/10/5
f 370/10/5 367/10/5 369/10/5
f 371/10/5 367/10/5 370/10/5
f 372/4/5 369/4/5 368/4/5
f 373/4/5 369/4/5 372/4/5
f 374/4/5 371/4/5 370/4/5
f 375/4/5 371/4/5 374/4/5
f 376/10/5 373/10/5 372/10/5
f 377/10/5 375/10/5 374/10/5
f 378/10/5 376/10/5 372/10/5
f 378/10/5 377/10/5 376/10/5
f 379/10/5 375/10/5 377/10/5
f 379/10/5 377/10/5 378/10/5
f 384/4/5 381/4/5 380/4/5
f 385/4/5 381/4/5 384/4/5
f 386/4/5 383/4/5 382/4/5
f 387/4/5 383/4/5 386/4/5
f 391/9/5 389/9/5 388/9/5
f 392/9/5 389/9/5 391/9/5
f 394/9/5 391/9/5 390/9/5
f 395/9/5 393/9/5 392/9/5
f 396/9/5 394/9/5 390/9/5
f 397/9/5 394/9/5 396/9/5
f 398/9/5 393/9/5 395/9/5
f 399/9/5 393/9/5 398/9/5
f 400/9/5 398/9/5 397/9/5
f 401/9/5 398/9/5 400/9/5
f 402/1/6 403/1/6 409/1/6
f 403/7/6 404/7/6 410/7/6
f 404/9/6 405/9/6 410/9/6
f 405/7/6 406/7/6 411/7/6
f 410/9/6 405/9/6 411/9/6
f 406/1/6 407/1/6 412/1/6
f 408/1/6 409/1/6 414/1/6
f 409/1/6 403/1/6 415/1/6
f 414/1/6 409/1/6 415/1/6
f 403/7/6 410/7/6 416/7/6
f 411/7/6 406/7/6 417/7/6
f 412/3/6 413/3/6 418/3/6
f 406/1/6 412/1/6 418/1/6
f 418/3/6 413/3/6 419/3/6
f 415/1/6 403/1/6 420/1/6
f 403/7/6 416/7/6 421/7/6
f 420/1/6 403/1/6 421/1/6
f 416/9/6 417/9/6 422/9/6
f 421/7/6 416/7/6 422/7/6
f 417/7/6 406/7/6 423/7/6
f 422/9/6 417/9/6 423/9/6
f 406/1/6 418/1/6 424/1/6
f 423/7/6 406/7/6 424/7/6
f 424/1/6 418/1/6 425/1/6
f 426/4/6 427/4/6 430/4/6
f 430/4/6 427/4/6 431/4/6
f 428/4/6 429/4/6 432/4/6
f 432/4/6 429/4/6 433/4/6
f 434/9/6 435/9/6 437/9/6
f 437/9/6 435/9/6 438/9/6
f 436/9/6 437/9/6 440/9/6
f 440/9/6 437/9/6 441/9/6
f 438/9/6 439/9/6 442/9/6
f 442/9/6 439/9/6 443/9/6
f 441/9/6 442/9/6 444/9/6
f 444/9/6 442/9/6 445/9/6
f 446/9/6 447/9/6 448/9/6
f 448/9/6 447/9/6 449/9/6
