{"accessors":[{"bufferView":0,"componentType":5125,"count":114,"max":[121],"min":[12],"type":"SCALAR"},{"bufferView":1,"componentType":5126,"count":122,"max":[6.0,7.0,7.0],"min":[2.0,0.0,0.0],"type":"VEC3"},{"bufferView":1,"byteOffset":12,"componentType":5126,"count":122,"type":"VEC2"},{"bufferView":2,"componentType":5125,"count":138,"max":[105],"min":[0],"type":"SCALAR"},{"bufferView":3,"componentType":5126,"count":122,"max":[6.0,7.0,7.0],"min":[2.0,0.0,0.0],"type":"VEC3"},{"bufferView":3,"byteOffset":12,"componentType":5126,"count":122,"type":"VEC2"},{"bufferView":4,"componentType":5125,"count":66,"max":[104],"min":[18],"type":"SCALAR"},{"bufferView":5,"componentType":5126,"count":122,"max":[6.0,7.0,7.0],"min":[2.0,0.0,0.0],"type":"VEC3"},{"bufferView":5,"byteOffset":12,"componentType":5126,"count":122,"type":"VEC2"},{"bufferView":6,"componentType":5125,"count":12,"max":[73],"min":[52],"type":"SCALAR"},{"bufferView":7,"componentType":5126,"count":122,"max":[6.0,7.0,7.0],"min":[2.0,0.0,0.0],"type":"VEC3"},{"bufferView":7,"byteOffset":12,"componentType":5126,"count":122,"type":"VEC2"}],"asset":{"generator":"vengi-voxedit 0.0.33.0","version":"2.0"},"bufferViews":[{"buffer":0,"byteLength":456,"target":34963},{"buffer":0,"byteLength":2440,"byteOffset":456,"byteStride":20,"target":34962},{"buffer":1,"byteLength":552,"target":34963},{"buffer":1,"byteLength":2440,"byteOffset":552,"byteStride":20,"target":34962},{"buffer":2,"byteLength":264,"target":34963},{"buffer":2,"byteLength":2440,"byteOffset":264,"byteStride":20,"target":34962},{"buffer":3,"byteLength":48,"target":34963},{"buffer":3,"byteLength":2440,"byteOffset":48,"byteStride":20,"target":34962}],"buffers":[{"byteLength":2896,"uri":"data:application/octet-stream;base64,"},{"byteLength":2992,"uri":"data:application/octet-stream;base64,"},{"byteLength":2704,"uri":"data:application/octet-stream;base64,"},{"byteLength":2488,"uri":"data:application/octet-stream;base64,"}],"images":[{"uri":"data:image/png;base64,"}],"materials":[{"name":"17133846937914483350","pbrMetallicRoughness":{"baseColorTexture":{"index":0}}},{"name":"17133846937914483350","pbrMetallicRoughness":{"baseColorTexture":{"index":0}}},{"name":"17133846937914483350","pbrMetallicRoughness":{"baseColorTexture":{"index":0}}},{"name":"17133846937914483350","pbrMetallicRoughness":{"baseColorTexture":{"index":0}}}],"meshes":[{"name":"unnamed","primitives":[{"attributes":{"POSITION":1,"TEXCOORD_0":2},"indices":0,"material":0,"mode":4},{"attributes":{"POSITION":4,"TEXCOORD_0":5},"indices":3,"material":1,"mode":4},{"attributes":{"POSITION":7,"TEXCOORD_0":8},"indices":6,"material":2,"mode":4},{"attributes":{"POSITION":10,"TEXCOORD_0":11},"indices":9,"material":3,"mode":4}]}],"nodes":[{"children":[1],"name":"root"},{"mesh":0,"name":"unnamed"}],"scenes":[{"nodes":[0]}],"textures":[{"source":0}]}
