# MagicaVoxel @ Ephtracy

# group
o 

# material
mtllib Enemy2.mtl
usemtl palette

# normals
vn -1 0 0
vn 1 0 0
vn 0 0 1
vn 0 0 -1
vn 0 -1 0
vn 0 1 0

# texcoords
vt 0.0292969 0.5
vt 0.0371094 0.5
vt 0.0527344 0.5
vt 0.0605469 0.5
vt 0.0644531 0.5
vt 0.0917969 0.5
vt 0.193359 0.5
vt 0.205078 0.5
vt 0.248047 0.5

# verts
v -0.5 0.2 0.2
v -0.5 0.2 -0.2
v -0.5 0.3 0.2
v -0.5 0.3 -0.2
v -0.4 -0.4 0.1
v -0.4 -0.4 -0.1
v -0.4 -0.3 0.1
v -0.4 -0.3 -0.1
v -0.4 0.1 0.1
v -0.4 0.1 -0.1
v -0.4 0.3 0.2
v -0.4 0.3 -0.2
v -0.4 0.4 0.2
v -0.4 0.4 -0.2
v -0.3 -0.4 0.2
v -0.3 -0.4 0.1
v -0.3 -0.4 -0.1
v -0.3 -0.4 -0.2
v -0.3 -0.3 0.1
v -0.3 -0.3 -0.1
v -0.3 -0.1 0.2
v -0.3 -0.1 0.1
v -0.3 -0.1 -0.1
v -0.3 -0.1 -0.2
v -0.3 0 0.2
v -0.3 0 0.1
v -0.3 0 -0.1
v -0.3 0 -0.2
v -0.3 0.1 0.2
v -0.3 0.1 0.1
v -0.3 0.1 -0.1
v -0.3 0.1 -0.2
v -0.3 0.4 0.2
v -0.3 0.4 -0.2
v -0.3 0.6 0.2
v -0.3 0.6 -0.2
v -0.3 0.7 0.2
v -0.3 0.7 -0.2
v -0.2 -0.8 0.1
v -0.2 -0.8 -0.1
v -0.2 -0.7 0.1
v -0.2 -0.7 -0.1
v -0.2 -0.4 0.1
v -0.2 -0.4 -0.1
v -0.2 0.2 -0.2
v -0.2 0.2 -0.3
v -0.2 0.6 0.3
v -0.2 0.6 0.2
v -0.2 0.6 -0.2
v -0.2 0.6 -0.3
v -0.2 0.7 0.3
v -0.2 0.7 0.2
v -0.2 0.7 -0.2
v -0.2 0.7 -0.3
v -0.2 0.8 0.2
v -0.2 0.8 -0.2
v -0.1 0.1 0.1
v -0.1 0.1 -0.1
v -0.1 0.2 0.1
v -0.1 0.2 -0.1
v 0.1 -0.8 0.1
v 0.1 -0.8 -0.1
v 0.1 -0.7 0.1
v 0.1 -0.7 -0.1
v 0.1 -0.4 0.1
v 0.1 -0.4 -0.1
v -0.1 -0.8 0.1
v -0.1 -0.8 -0.1
v -0.1 -0.7 0.1
v -0.1 -0.7 -0.1
v -0.1 -0.4 0.1
v -0.1 -0.4 -0.1
v 0.1 0.1 0.1
v 0.1 0.1 -0.1
v 0.1 0.2 0.1
v 0.1 0.2 -0.1
v 0.2 -0.8 0.1
v 0.2 -0.8 -0.1
v 0.2 -0.7 0.1
v 0.2 -0.7 -0.1
v 0.2 -0.4 0.1
v 0.2 -0.4 -0.1
v 0.2 0.2 -0.2
v 0.2 0.2 -0.3
v 0.2 0.6 0.3
v 0.2 0.6 0.2
v 0.2 0.6 -0.2
v 0.2 0.6 -0.3
v 0.2 0.7 0.3
v 0.2 0.7 0.2
v 0.2 0.7 -0.2
v 0.2 0.7 -0.3
v 0.2 0.8 0.2
v 0.2 0.8 -0.2
v 0.3 -0.4 0.2
v 0.3 -0.4 0.1
v 0.3 -0.4 -0.1
v 0.3 -0.4 -0.2
v 0.3 -0.3 0.1
v 0.3 -0.3 -0.1
v 0.3 -0.1 0.2
v 0.3 -0.1 0.1
v 0.3 -0.1 -0.1
v 0.3 -0.1 -0.2
v 0.3 0 0.2
v 0.3 0 0.1
v 0.3 0 -0.1
v 0.3 0 -0.2
v 0.3 0.1 0.2
v 0.3 0.1 0.1
v 0.3 0.1 -0.1
v 0.3 0.1 -0.2
v 0.3 0.4 0.2
v 0.3 0.4 -0.2
v 0.3 0.6 0.2
v 0.3 0.6 -0.2
v 0.3 0.7 0.2
v 0.3 0.7 -0.2
v 0.4 -0.4 0.1
v 0.4 -0.4 -0.1
v 0.4 -0.3 0.1
v 0.4 -0.3 -0.1
v 0.4 0.1 0.1
v 0.4 0.1 -0.1
v 0.4 0.3 0.2
v 0.4 0.3 -0.2
v 0.4 0.4 0.2
v 0.4 0.4 -0.2
v 0.5 0.2 0.2
v 0.5 0.2 -0.2
v 0.5 0.3 0.2
v 0.5 0.3 -0.2
v -0.2 0.6 0.3
v -0.2 0.7 0.3
v 0.2 0.6 0.3
v 0.2 0.7 0.3
v -0.5 0.2 0.2
v -0.5 0.3 0.2
v -0.4 0.3 0.2
v -0.4 0.4 0.2
v -0.3 -0.4 0.2
v -0.3 -0.1 0.2
v -0.3 0 0.2
v -0.3 0.1 0.2
v -0.3 0.4 0.2
v -0.3 0.6 0.2
v -0.3 0.7 0.2
v -0.2 -0.2 0.2
v -0.2 -0.1 0.2
v -0.2 0 0.2
v -0.2 0.1 0.2
v -0.2 0.2 0.2
v -0.2 0.4 0.2
v -0.2 0.5 0.2
v -0.2 0.6 0.2
v -0.2 0.7 0.2
v -0.2 0.8 0.2
v -0.1 -0.2 0.2
v -0.1 -0.1 0.2
v -0.1 0.1 0.2
v -0.1 0.4 0.2
v -0.1 0.5 0.2
v 0.1 -0.2 0.2
v 0.1 -0.1 0.2
v 0.1 0.1 0.2
v 0.1 0.4 0.2
v 0.1 0.5 0.2
v 0.2 -0.2 0.2
v 0.2 -0.1 0.2
v 0.2 0 0.2
v 0.2 0.1 0.2
v 0.2 0.2 0.2
v 0.2 0.4 0.2
v 0.2 0.5 0.2
v 0.2 0.6 0.2
v 0.2 0.7 0.2
v 0.2 0.8 0.2
v 0.3 -0.4 0.2
v 0.3 -0.1 0.2
v 0.3 0 0.2
v 0.3 0.1 0.2
v 0.3 0.4 0.2
v 0.3 0.6 0.2
v 0.3 0.7 0.2
v 0.4 0.3 0.2
v 0.4 0.4 0.2
v 0.5 0.2 0.2
v 0.5 0.3 0.2
v -0.4 -0.4 0.1
v -0.4 -0.3 0.1
v -0.4 0.1 0.1
v -0.3 -0.4 0.1
v -0.3 -0.3 0.1
v -0.3 -0.1 0.1
v -0.3 0 0.1
v -0.3 0.1 0.1
v -0.2 -0.8 0.1
v -0.2 -0.7 0.1
v -0.2 -0.4 0.1
v -0.1 -0.8 0.1
v -0.1 -0.7 0.1
v -0.1 -0.4 0.1
v -0.1 0.1 0.1
v -0.1 0.2 0.1
v 0.1 -0.8 0.1
v 0.1 -0.7 0.1
v 0.1 -0.4 0.1
v 0.1 0.1 0.1
v 0.1 0.2 0.1
v 0.2 -0.8 0.1
v 0.2 -0.7 0.1
v 0.2 -0.4 0.1
v 0.3 -0.4 0.1
v 0.3 -0.3 0.1
v 0.3 -0.1 0.1
v 0.3 0 0.1
v 0.3 0.1 0.1
v 0.4 -0.4 0.1
v 0.4 -0.3 0.1
v 0.4 0.1 0.1
v -0.4 -0.4 -0.1
v -0.4 -0.3 -0.1
v -0.4 0.1 -0.1
v -0.3 -0.4 -0.1
v -0.3 -0.3 -0.1
v -0.3 -0.1 -0.1
v -0.3 0 -0.1
v -0.3 0.1 -0.1
v -0.2 -0.8 -0.1
v -0.2 -0.7 -0.1
v -0.2 -0.4 -0.1
v -0.1 -0.8 -0.1
v -0.1 -0.7 -0.1
v -0.1 -0.4 -0.1
v -0.1 0.1 -0.1
v -0.1 0.2 -0.1
v 0.1 -0.8 -0.1
v 0.1 -0.7 -0.1
v 0.1 -0.4 -0.1
v 0.1 0.1 -0.1
v 0.1 0.2 -0.1
v 0.2 -0.8 -0.1
v 0.2 -0.7 -0.1
v 0.2 -0.4 -0.1
v 0.3 -0.4 -0.1
v 0.3 -0.3 -0.1
v 0.3 -0.1 -0.1
v 0.3 0 -0.1
v 0.3 0.1 -0.1
v 0.4 -0.4 -0.1
v 0.4 -0.3 -0.1
v 0.4 0.1 -0.1
v -0.5 0.2 -0.2
v -0.5 0.3 -0.2
v -0.4 0.3 -0.2
v -0.4 0.4 -0.2
v -0.3 -0.4 -0.2
v -0.3 -0.1 -0.2
v -0.3 0 -0.2
v -0.3 0.1 -0.2
v -0.3 0.4 -0.2
v -0.3 0.6 -0.2
v -0.3 0.7 -0.2
v -0.2 -0.2 -0.2
v -0.2 -0.1 -0.2
v -0.2 0 -0.2
v -0.2 0.1 -0.2
v -0.2 0.2 -0.2
v -0.2 0.6 -0.2
v -0.2 0.7 -0.2
v -0.2 0.8 -0.2
v -0.1 -0.2 -0.2
v -0.1 -0.1 -0.2
v -0.1 0.1 -0.2
v 0.1 -0.2 -0.2
v 0.1 -0.1 -0.2
v 0.1 0.1 -0.2
v 0.2 -0.2 -0.2
v 0.2 -0.1 -0.2
v 0.2 0 -0.2
v 0.2 0.1 -0.2
v 0.2 0.2 -0.2
v 0.2 0.6 -0.2
v 0.2 0.7 -0.2
v 0.2 0.8 -0.2
v 0.3 -0.4 -0.2
v 0.3 -0.1 -0.2
v 0.3 0 -0.2
v 0.3 0.1 -0.2
v 0.3 0.4 -0.2
v 0.3 0.6 -0.2
v 0.3 0.7 -0.2
v 0.4 0.3 -0.2
v 0.4 0.4 -0.2
v 0.5 0.2 -0.2
v 0.5 0.3 -0.2
v -0.2 0.2 -0.3
v -0.2 0.6 -0.3
v -0.2 0.7 -0.3
v 0.2 0.2 -0.3
v 0.2 0.6 -0.3
v 0.2 0.7 -0.3
v -0.2 -0.8 0.1
v -0.1 -0.8 0.1
v 0.1 -0.8 0.1
v 0.2 -0.8 0.1
v -0.2 -0.8 -0.1
v -0.1 -0.8 -0.1
v 0.1 -0.8 -0.1
v 0.2 -0.8 -0.1
v -0.3 -0.4 0.2
v 0.3 -0.4 0.2
v -0.4 -0.4 0.1
v -0.3 -0.4 0.1
v -0.2 -0.4 0.1
v -0.1 -0.4 0.1
v 0.1 -0.4 0.1
v 0.2 -0.4 0.1
v 0.3 -0.4 0.1
v 0.4 -0.4 0.1
v -0.4 -0.4 -0.1
v -0.3 -0.4 -0.1
v -0.2 -0.4 -0.1
v -0.1 -0.4 -0.1
v 0.1 -0.4 -0.1
v 0.2 -0.4 -0.1
v 0.3 -0.4 -0.1
v 0.4 -0.4 -0.1
v -0.3 -0.4 -0.2
v 0.3 -0.4 -0.2
v -0.5 0.2 0.2
v -0.2 0.2 0.2
v 0.2 0.2 0.2
v 0.5 0.2 0.2
v -0.1 0.2 0.1
v 0.1 0.2 0.1
v -0.1 0.2 -0.1
v 0.1 0.2 -0.1
v -0.5 0.2 -0.2
v -0.2 0.2 -0.2
v 0.2 0.2 -0.2
v 0.5 0.2 -0.2
v -0.2 0.2 -0.3
v 0.2 0.2 -0.3
v -0.2 0.6 0.3
v 0.2 0.6 0.3
v -0.2 0.6 0.2
v 0.2 0.6 0.2
v -0.3 0.1 0.2
v -0.2 0.1 0.2
v -0.1 0.1 0.2
v 0.1 0.1 0.2
v 0.2 0.1 0.2
v 0.3 0.1 0.2
v -0.4 0.1 0.1
v -0.3 0.1 0.1
v -0.1 0.1 0.1
v 0.1 0.1 0.1
v 0.3 0.1 0.1
v 0.4 0.1 0.1
v -0.4 0.1 -0.1
v -0.3 0.1 -0.1
v -0.1 0.1 -0.1
v 0.1 0.1 -0.1
v 0.3 0.1 -0.1
v 0.4 0.1 -0.1
v -0.3 0.1 -0.2
v -0.2 0.1 -0.2
v -0.1 0.1 -0.2
v 0.1 0.1 -0.2
v 0.2 0.1 -0.2
v 0.3 0.1 -0.2
v -0.5 0.3 0.2
v -0.4 0.3 0.2
v 0.4 0.3 0.2
v 0.5 0.3 0.2
v -0.5 0.3 -0.2
v -0.4 0.3 -0.2
v 0.4 0.3 -0.2
v 0.5 0.3 -0.2
v -0.4 0.4 0.2
v -0.3 0.4 0.2
v 0.3 0.4 0.2
v 0.4 0.4 0.2
v -0.4 0.4 -0.2
v -0.3 0.4 -0.2
v 0.3 0.4 -0.2
v 0.4 0.4 -0.2
v -0.2 0.7 0.3
v 0.2 0.7 0.3
v -0.3 0.7 0.2
v -0.2 0.7 0.2
v 0.2 0.7 0.2
v 0.3 0.7 0.2
v -0.3 0.7 -0.2
v -0.2 0.7 -0.2
v 0.2 0.7 -0.2
v 0.3 0.7 -0.2
v -0.2 0.7 -0.3
v 0.2 0.7 -0.3
v -0.2 0.8 0.2
v 0.2 0.8 0.2
v -0.2 0.8 -0.2
v 0.2 0.8 -0.2

# faces
f 3/3/1 2/3/1 1/3/1
f 4/3/1 2/3/1 3/3/1
f 7/4/1 6/4/1 5/4/1
f 8/4/1 6/4/1 7/4/1
f 9/2/1 8/2/1 7/2/1
f 10/2/1 8/2/1 9/2/1
f 13/3/1 12/3/1 11/3/1
f 14/3/1 12/3/1 13/3/1
f 19/8/1 16/8/1 15/8/1
f 20/8/1 18/8/1 17/8/1
f 21/8/1 19/8/1 15/8/1
f 22/8/1 19/8/1 21/8/1
f 23/8/1 18/8/1 20/8/1
f 24/8/1 18/8/1 23/8/1
f 25/9/1 22/9/1 21/9/1
f 26/9/1 22/9/1 25/9/1
f 27/9/1 24/9/1 23/9/1
f 28/9/1 24/9/1 27/9/1
f 29/2/1 26/2/1 25/2/1
f 30/2/1 26/2/1 29/2/1
f 31/2/1 28/2/1 27/2/1
f 32/2/1 28/2/1 31/2/1
f 35/3/1 34/3/1 33/3/1
f 36/3/1 34/3/1 35/3/1
f 37/9/1 36/9/1 35/9/1
f 38/9/1 36/9/1 37/9/1
f 41/6/1 40/6/1 39/6/1
f 42/6/1 40/6/1 41/6/1
f 43/8/1 42/8/1 41/8/1
f 44/8/1 42/8/1 43/8/1
f 49/3/1 46/3/1 45/3/1
f 50/3/1 46/3/1 49/3/1
f 51/9/1 48/9/1 47/9/1
f 52/9/1 48/9/1 51/9/1
f 53/9/1 50/9/1 49/9/1
f 54/9/1 50/9/1 53/9/1
f 55/9/1 53/9/1 52/9/1
f 56/9/1 53/9/1 55/9/1
f 59/4/1 58/4/1 57/4/1
f 60/4/1 58/4/1 59/4/1
f 63/6/1 62/6/1 61/6/1
f 64/6/1 62/6/1 63/6/1
f 65/8/1 64/8/1 63/8/1
f 66/8/1 64/8/1 65/8/1
f 67/6/2 68/6/2 69/6/2
f 69/6/2 68/6/2 70/6/2
f 69/8/2 70/8/2 71/8/2
f 71/8/2 70/8/2 72/8/2
f 73/4/2 74/4/2 75/4/2
f 75/4/2 74/4/2 76/4/2
f 77/6/2 78/6/2 79/6/2
f 79/6/2 78/6/2 80/6/2
f 79/8/2 80/8/2 81/8/2
f 81/8/2 80/8/2 82/8/2
f 83/3/2 84/3/2 87/3/2
f 87/3/2 84/3/2 88/3/2
f 85/9/2 86/9/2 89/9/2
f 89/9/2 86/9/2 90/9/2
f 87/9/2 88/9/2 91/9/2
f 91/9/2 88/9/2 92/9/2
f 90/9/2 91/9/2 93/9/2
f 93/9/2 91/9/2 94/9/2
f 95/8/2 96/8/2 99/8/2
f 97/8/2 98/8/2 100/8/2
f 95/8/2 99/8/2 101/8/2
f 101/8/2 99/8/2 102/8/2
f 100/8/2 98/8/2 103/8/2
f 103/8/2 98/8/2 104/8/2
f 101/9/2 102/9/2 105/9/2
f 105/9/2 102/9/2 106/9/2
f 103/9/2 104/9/2 107/9/2
f 107/9/2 104/9/2 108/9/2
f 105/2/2 106/2/2 109/2/2
f 109/2/2 106/2/2 110/2/2
f 107/2/2 108/2/2 111/2/2
f 111/2/2 108/2/2 112/2/2
f 113/3/2 114/3/2 115/3/2
f 115/3/2 114/3/2 116/3/2
f 115/9/2 116/9/2 117/9/2
f 117/9/2 116/9/2 118/9/2
f 119/4/2 120/4/2 121/4/2
f 121/4/2 120/4/2 122/4/2
f 121/2/2 122/2/2 123/2/2
f 123/2/2 122/2/2 124/2/2
f 125/3/2 126/3/2 127/3/2
f 127/3/2 126/3/2 128/3/2
f 129/3/2 130/3/2 131/3/2
f 131/3/2 130/3/2 132/3/2
f 135/9/3 134/9/3 133/9/3
f 136/9/3 134/9/3 135/9/3
f 139/3/3 138/3/3 137/3/3
f 145/3/3 140/3/3 139/3/3
f 148/8/3 142/8/3 141/8/3
f 149/9/3 143/9/3 142/9/3
f 149/8/3 142/8/3 148/8/3
f 150/2/3 144/2/3 143/2/3
f 150/9/3 143/9/3 149/9/3
f 151/2/3 144/2/3 150/2/3
f 152/3/3 139/3/3 137/3/3
f 152/3/3 145/3/3 139/3/3
f 152/3/3 146/3/3 145/3/3
f 153/3/3 146/3/3 152/3/3
f 154/3/3 146/3/3 153/3/3
f 155/9/3 147/9/3 146/9/3
f 155/3/3 146/3/3 154/3/3
f 156/9/3 147/9/3 155/9/3
f 158/7/3 149/7/3 148/7/3
f 158/8/3 148/8/3 141/8/3
f 159/8/3 151/8/3 150/8/3
f 159/7/3 149/7/3 158/7/3
f 159/8/3 150/8/3 149/8/3
f 160/8/3 151/8/3 159/8/3
f 161/5/3 154/5/3 153/5/3
f 161/4/3 153/4/3 152/4/3
f 162/4/3 155/4/3 154/4/3
f 162/5/3 154/5/3 161/5/3
f 163/8/3 158/8/3 141/8/3
f 163/8/3 159/8/3 158/8/3
f 164/9/3 160/9/3 159/9/3
f 164/8/3 159/8/3 163/8/3
f 165/9/3 160/9/3 164/9/3
f 166/4/3 161/4/3 152/4/3
f 166/4/3 162/4/3 161/4/3
f 167/4/3 155/4/3 162/4/3
f 167/4/3 162/4/3 166/4/3
f 168/8/3 163/8/3 141/8/3
f 168/7/3 164/7/3 163/7/3
f 169/8/3 165/8/3 164/8/3
f 169/7/3 164/7/3 168/7/3
f 170/8/3 165/8/3 169/8/3
f 171/8/3 165/8/3 170/8/3
f 172/4/3 166/4/3 152/4/3
f 173/5/3 167/5/3 166/5/3
f 173/4/3 166/4/3 172/4/3
f 174/4/3 155/4/3 167/4/3
f 174/5/3 167/5/3 173/5/3
f 175/4/3 155/4/3 174/4/3
f 176/9/3 157/9/3 156/9/3
f 177/9/3 157/9/3 176/9/3
f 178/8/3 168/8/3 141/8/3
f 178/8/3 169/8/3 168/8/3
f 179/9/3 170/9/3 169/9/3
f 179/8/3 169/8/3 178/8/3
f 180/2/3 171/2/3 170/2/3
f 180/9/3 170/9/3 179/9/3
f 181/2/3 171/2/3 180/2/3
f 182/3/3 175/3/3 174/3/3
f 182/3/3 173/3/3 172/3/3
f 182/3/3 174/3/3 173/3/3
f 183/9/3 176/9/3 175/9/3
f 183/3/3 175/3/3 182/3/3
f 184/9/3 176/9/3 183/9/3
f 185/3/3 182/3/3 172/3/3
f 186/3/3 182/3/3 185/3/3
f 187/3/3 185/3/3 172/3/3
f 188/3/3 185/3/3 187/3/3
f 192/4/3 190/4/3 189/4/3
f 193/2/3 191/2/3 190/2/3
f 193/4/3 190/4/3 192/4/3
f 194/2/3 191/2/3 193/2/3
f 195/2/3 191/2/3 194/2/3
f 196/2/3 191/2/3 195/2/3
f 200/6/3 198/6/3 197/6/3
f 201/8/3 199/8/3 198/8/3
f 201/6/3 198/6/3 200/6/3
f 202/8/3 199/8/3 201/8/3
f 208/4/3 204/4/3 203/4/3
f 209/4/3 204/4/3 208/4/3
f 210/6/3 206/6/3 205/6/3
f 211/8/3 207/8/3 206/8/3
f 211/6/3 206/6/3 210/6/3
f 212/8/3 207/8/3 211/8/3
f 218/4/3 214/4/3 213/4/3
f 219/2/3 217/2/3 216/2/3
f 219/4/3 214/4/3 218/4/3
f 219/2/3 215/2/3 214/2/3
f 219/2/3 216/2/3 215/2/3
f 220/2/3 217/2/3 219/2/3
f 221/4/4 222/4/4 224/4/4
f 222/2/4 223/2/4 225/2/4
f 224/4/4 222/4/4 225/4/4
f 225/2/4 223/2/4 226/2/4
f 226/2/4 223/2/4 227/2/4
f 227/2/4 223/2/4 228/2/4
f 229/6/4 230/6/4 232/6/4
f 230/8/4 231/8/4 233/8/4
f 232/6/4 230/6/4 233/6/4
f 233/8/4 231/8/4 234/8/4
f 235/4/4 236/4/4 240/4/4
f 240/4/4 236/4/4 241/4/4
f 237/6/4 238/6/4 242/6/4
f 238/8/4 239/8/4 243/8/4
f 242/6/4 238/6/4 243/6/4
f 243/8/4 239/8/4 244/8/4
f 245/4/4 246/4/4 250/4/4
f 248/2/4 249/2/4 251/2/4
f 250/4/4 246/4/4 251/4/4
f 246/2/4 247/2/4 251/2/4
f 247/2/4 248/2/4 251/2/4
f 251/2/4 249/2/4 252/2/4
f 253/3/4 254/3/4 255/3/4
f 255/3/4 256/3/4 261/3/4
f 257/8/4 258/8/4 264/8/4
f 258/9/4 259/9/4 265/9/4
f 264/8/4 258/8/4 265/8/4
f 259/2/4 260/2/4 266/2/4
f 265/9/4 259/9/4 266/9/4
f 266/2/4 260/2/4 267/2/4
f 253/3/4 255/3/4 268/3/4
f 255/3/4 261/3/4 268/3/4
f 261/3/4 262/3/4 268/3/4
f 262/9/4 263/9/4 269/9/4
f 268/3/4 262/3/4 269/3/4
f 269/9/4 263/9/4 270/9/4
f 264/7/4 265/7/4 272/7/4
f 257/8/4 264/8/4 272/8/4
f 266/8/4 267/8/4 273/8/4
f 272/7/4 265/7/4 273/7/4
f 265/8/4 266/8/4 273/8/4
f 273/8/4 267/8/4 274/8/4
f 257/8/4 272/8/4 275/8/4
f 272/8/4 273/8/4 275/8/4
f 273/9/4 274/9/4 276/9/4
f 275/8/4 273/8/4 276/8/4
f 276/9/4 274/9/4 277/9/4
f 257/8/4 275/8/4 278/8/4
f 275/7/4 276/7/4 278/7/4
f 276/8/4 277/8/4 279/8/4
f 278/7/4 276/7/4 279/7/4
f 279/8/4 277/8/4 280/8/4
f 280/8/4 277/8/4 281/8/4
f 270/9/4 271/9/4 284/9/4
f 284/9/4 271/9/4 285/9/4
f 257/8/4 278/8/4 286/8/4
f 278/8/4 279/8/4 286/8/4
f 279/9/4 280/9/4 287/9/4
f 286/8/4 279/8/4 287/8/4
f 280/2/4 281/2/4 288/2/4
f 287/9/4 280/9/4 288/9/4
f 288/2/4 281/2/4 289/2/4
f 282/3/4 283/3/4 290/3/4
f 283/9/4 284/9/4 291/9/4
f 290/3/4 283/3/4 291/3/4
f 291/9/4 284/9/4 292/9/4
f 282/3/4 290/3/4 293/3/4
f 293/3/4 290/3/4 294/3/4
f 282/3/4 293/3/4 295/3/4
f 295/3/4 293/3/4 296/3/4
f 297/3/4 298/3/4 300/3/4
f 298/9/4 299/9/4 301/9/4
f 300/3/4 298/3/4 301/3/4
f 301/9/4 299/9/4 302/9/4
f 307/6/5 304/6/5 303/6/5
f 308/6/5 304/6/5 307/6/5
f 309/6/5 306/6/5 305/6/5
f 310/6/5 306/6/5 309/6/5
f 314/8/5 312/8/5 311/8/5
f 315/8/5 312/8/5 314/8/5
f 316/8/5 312/8/5 315/8/5
f 317/8/5 312/8/5 316/8/5
f 318/8/5 312/8/5 317/8/5
f 319/8/5 312/8/5 318/8/5
f 321/4/5 314/4/5 313/4/5
f 322/8/5 315/8/5 314/8/5
f 322/4/5 314/4/5 321/4/5
f 323/8/5 315/8/5 322/8/5
f 324/8/5 317/8/5 316/8/5
f 325/8/5 317/8/5 324/8/5
f 326/8/5 319/8/5 318/8/5
f 327/4/5 320/4/5 319/4/5
f 327/8/5 319/8/5 326/8/5
f 328/4/5 320/4/5 327/4/5
f 329/8/5 326/8/5 325/8/5
f 329/8/5 325/8/5 324/8/5
f 329/8/5 327/8/5 326/8/5
f 329/8/5 323/8/5 322/8/5
f 329/8/5 324/8/5 323/8/5
f 330/8/5 327/8/5 329/8/5
f 335/4/5 333/4/5 332/4/5
f 336/4/5 333/4/5 335/4/5
f 337/4/5 335/4/5 332/4/5
f 338/4/5 333/4/5 336/4/5
f 339/3/5 332/3/5 331/3/5
f 340/4/5 338/4/5 337/4/5
f 340/3/5 332/3/5 339/3/5
f 340/4/5 337/4/5 332/4/5
f 341/3/5 334/3/5 333/3/5
f 341/4/5 338/4/5 340/4/5
f 341/4/5 333/4/5 338/4/5
f 342/3/5 334/3/5 341/3/5
f 343/3/5 341/3/5 340/3/5
f 344/3/5 341/3/5 343/3/5
f 347/9/5 346/9/5 345/9/5
f 348/9/5 346/9/5 347/9/5
f 349/2/6 350/2/6 356/2/6
f 350/8/6 351/8/6 357/8/6
f 351/9/6 352/9/6 357/9/6
f 352/8/6 353/8/6 358/8/6
f 357/9/6 352/9/6 358/9/6
f 353/2/6 354/2/6 359/2/6
f 355/2/6 356/2/6 361/2/6
f 356/2/6 350/2/6 362/2/6
f 361/2/6 356/2/6 362/2/6
f 350/8/6 357/8/6 363/8/6
f 358/8/6 353/8/6 364/8/6
f 359/2/6 360/2/6 365/2/6
f 353/2/6 359/2/6 365/2/6
f 365/2/6 360/2/6 366/2/6
f 362/2/6 350/2/6 367/2/6
f 350/8/6 363/8/6 368/8/6
f 367/2/6 350/2/6 368/2/6
f 363/9/6 364/9/6 369/9/6
f 368/8/6 363/8/6 369/8/6
f 364/8/6 353/8/6 370/8/6
f 369/9/6 364/9/6 370/9/6
f 353/2/6 365/2/6 371/2/6
f 370/8/6 353/8/6 371/8/6
f 371/2/6 365/2/6 372/2/6
f 373/3/6 374/3/6 377/3/6
f 377/3/6 374/3/6 378/3/6
f 375/3/6 376/3/6 379/3/6
f 379/3/6 376/3/6 380/3/6
f 381/3/6 382/3/6 385/3/6
f 385/3/6 382/3/6 386/3/6
f 383/3/6 384/3/6 387/3/6
f 387/3/6 384/3/6 388/3/6
f 389/9/6 390/9/6 392/9/6
f 392/9/6 390/9/6 393/9/6
f 391/9/6 392/9/6 395/9/6
f 395/9/6 392/9/6 396/9/6
f 393/9/6 394/9/6 397/9/6
f 397/9/6 394/9/6 398/9/6
f 396/9/6 397/9/6 399/9/6
f 399/9/6 397/9/6 400/9/6
f 401/9/6 402/9/6 403/9/6
f 403/9/6 402/9/6 404/9/6
