# MagicaVoxel @ Ephtracy

# group
o 

# material
mtllib NewFence02.mtl
usemtl palette

# normals
vn -1 0 0
vn 1 0 0
vn 0 0 1
vn 0 0 -1
vn 0 -1 0
vn 0 1 0

# texcoords
vt 0.251953 0.5
vt 0.255859 0.5
vt 0.263672 0.5
vt 0.267578 0.5
vt 0.275391 0.5

# verts
v -0.4 -0.8 0.2
v -0.4 -0.8 0.1
v -0.4 -0.8 0
v -0.4 -0.8 -0.2
v -0.4 -0.7 0.2
v -0.4 -0.7 0.1
v -0.4 -0.7 0
v -0.4 -0.7 -0.1
v -0.4 -0.7 -0.2
v -0.4 -0.6 0.1
v -0.4 -0.6 -0.1
v -0.4 -0.6 -0.2
v -0.4 -0.5 0
v -0.4 -0.5 -0.1
v -0.4 -0.5 -0.2
v -0.4 -0.4 0.2
v -0.4 -0.4 0.1
v -0.4 -0.4 0
v -0.4 -0.4 -0.1
v -0.4 -0.4 -0.2
v -0.4 -0.3 0.1
v -0.4 -0.3 0
v -0.4 -0.3 -0.1
v -0.4 -0.3 -0.2
v -0.4 -0.2 -0.1
v -0.4 -0.2 -0.2
v -0.4 -0.1 0.1
v -0.4 -0.1 0
v -0.4 0 0.2
v -0.4 0 0.1
v -0.4 0 0
v -0.4 0.1 -0.1
v -0.4 0.1 -0.2
v -0.4 0.2 0.2
v -0.4 0.2 0.1
v -0.4 0.2 0
v -0.4 0.2 -0.1
v -0.4 0.3 0.2
v -0.4 0.3 0.1
v -0.4 0.3 0
v -0.4 0.4 0
v -0.4 0.4 -0.1
v -0.4 0.4 -0.2
v -0.4 0.5 0.2
v -0.4 0.5 0.1
v -0.4 0.5 -0.1
v -0.4 0.5 -0.2
v -0.4 0.6 0.2
v -0.4 0.6 0.1
v -0.4 0.7 0.2
v -0.4 0.7 0.1
v -0.4 0.7 0
v -0.4 0.7 -0.1
v -0.4 0.8 0.2
v -0.4 0.8 0.1
v -0.4 0.8 0
v -0.4 0.8 -0.1
v -0.4 0.8 -0.2
v 0.4 -0.8 0.2
v 0.4 -0.8 0
v 0.4 -0.8 -0.2
v 0.4 -0.7 0
v 0.4 -0.7 -0.2
v 0.4 -0.6 0.1
v 0.4 -0.6 0
v 0.4 -0.5 0.1
v 0.4 -0.5 0
v 0.4 -0.4 0.2
v 0.4 -0.4 0.1
v 0.4 -0.4 0
v 0.4 -0.4 -0.1
v 0.4 -0.3 0
v 0.4 -0.3 -0.1
v 0.4 -0.3 -0.2
v 0.4 -0.2 0.1
v 0.4 -0.2 0
v 0.4 -0.2 -0.1
v 0.4 -0.2 -0.2
v 0.4 0 0.2
v 0.4 0 0.1
v 0.4 0 0
v 0.4 0 -0.1
v 0.4 0 -0.2
v 0.4 0.1 0.2
v 0.4 0.1 0.1
v 0.4 0.1 0
v 0.4 0.1 -0.1
v 0.4 0.2 0.2
v 0.4 0.2 0.1
v 0.4 0.2 0
v 0.4 0.2 -0.1
v 0.4 0.2 -0.2
v 0.4 0.3 -0.1
v 0.4 0.3 -0.2
v 0.4 0.4 0.2
v 0.4 0.4 0.1
v 0.4 0.4 0
v 0.4 0.4 -0.1
v 0.4 0.5 0
v 0.4 0.5 -0.1
v 0.4 0.5 -0.2
v 0.4 0.6 0.2
v 0.4 0.6 0.1
v 0.4 0.6 0
v 0.4 0.6 -0.1
v 0.4 0.6 -0.2
v 0.4 0.7 0.2
v 0.4 0.7 0.1
v 0.4 0.7 0
v 0.4 0.7 -0.1
v 0.4 0.7 -0.2
v 0.4 0.8 0.2
v 0.4 0.8 0.1
v 0.4 0.8 0
v 0.4 0.8 -0.2
v -0.4 -0.8 0.2
v -0.4 -0.7 0.2
v -0.4 -0.4 0.2
v -0.4 0 0.2
v -0.4 0.2 0.2
v -0.4 0.3 0.2
v -0.4 0.5 0.2
v -0.4 0.6 0.2
v -0.4 0.7 0.2
v -0.4 0.8 0.2
v -0.3 -0.8 0.2
v -0.3 -0.7 0.2
v -0.3 -0.6 0.2
v -0.3 -0.5 0.2
v -0.3 -0.4 0.2
v -0.3 -0.3 0.2
v -0.3 -0.2 0.2
v -0.3 -0.1 0.2
v -0.3 0 0.2
v -0.3 0.2 0.2
v -0.3 0.3 0.2
v -0.3 0.4 0.2
v -0.3 0.5 0.2
v -0.3 0.6 0.2
v -0.3 0.7 0.2
v -0.3 0.8 0.2
v -0.2 -0.6 0.2
v -0.2 -0.5 0.2
v -0.2 -0.4 0.2
v -0.2 -0.3 0.2
v -0.2 -0.2 0.2
v -0.2 -0.1 0.2
v -0.2 0 0.2
v -0.2 0.1 0.2
v -0.2 0.2 0.2
v -0.2 0.3 0.2
v -0.2 0.4 0.2
v -0.2 0.5 0.2
v -0.2 0.6 0.2
v -0.2 0.7 0.2
v -0.1 -0.8 0.2
v -0.1 -0.7 0.2
v -0.1 -0.6 0.2
v -0.1 -0.5 0.2
v -0.1 -0.4 0.2
v -0.1 -0.3 0.2
v -0.1 -0.2 0.2
v -0.1 -0.1 0.2
v -0.1 0 0.2
v -0.1 0.1 0.2
v -0.1 0.2 0.2
v -0.1 0.3 0.2
v -0.1 0.5 0.2
v -0.1 0.6 0.2
v -0.1 0.7 0.2
v -0.1 0.8 0.2
v 0 -0.6 0.2
v 0 -0.5 0.2
v 0 -0.4 0.2
v 0 -0.3 0.2
v 0 -0.2 0.2
v 0 -0.1 0.2
v 0 0.3 0.2
v 0 0.4 0.2
v 0 0.5 0.2
v 0.1 -0.8 0.2
v 0.1 -0.7 0.2
v 0.1 -0.6 0.2
v 0.1 -0.5 0.2
v 0.1 -0.4 0.2
v 0.1 -0.3 0.2
v 0.1 -0.1 0.2
v 0.1 0 0.2
v 0.1 0.1 0.2
v 0.1 0.3 0.2
v 0.1 0.4 0.2
v 0.1 0.6 0.2
v 0.1 0.7 0.2
v 0.1 0.8 0.2
v 0.2 -0.8 0.2
v 0.2 -0.7 0.2
v 0.2 -0.5 0.2
v 0.2 -0.4 0.2
v 0.2 -0.3 0.2
v 0.2 -0.1 0.2
v 0.2 0 0.2
v 0.2 0.1 0.2
v 0.2 0.2 0.2
v 0.2 0.3 0.2
v 0.2 0.6 0.2
v 0.2 0.7 0.2
v 0.3 -0.8 0.2
v 0.3 -0.7 0.2
v 0.3 -0.6 0.2
v 0.3 -0.4 0.2
v 0.3 -0.1 0.2
v 0.3 0.3 0.2
v 0.3 0.4 0.2
v 0.4 -0.8 0.2
v 0.4 -0.4 0.2
v 0.4 0 0.2
v 0.4 0.1 0.2
v 0.4 0.2 0.2
v 0.4 0.4 0.2
v 0.4 0.6 0.2
v 0.4 0.7 0.2
v 0.4 0.8 0.2
v -0.4 -0.8 -0.2
v -0.4 -0.7 -0.2
v -0.4 -0.6 -0.2
v -0.4 -0.5 -0.2
v -0.4 -0.4 -0.2
v -0.4 -0.3 -0.2
v -0.4 -0.2 -0.2
v -0.4 0.1 -0.2
v -0.4 0.4 -0.2
v -0.4 0.5 -0.2
v -0.4 0.8 -0.2
v -0.3 -0.8 -0.2
v -0.3 -0.7 -0.2
v -0.3 -0.6 -0.2
v -0.3 -0.5 -0.2
v -0.3 -0.4 -0.2
v -0.3 -0.3 -0.2
v -0.3 -0.2 -0.2
v -0.3 -0.1 -0.2
v -0.3 0 -0.2
v -0.3 0.3 -0.2
v -0.3 0.4 -0.2
v -0.3 0.5 -0.2
v -0.3 0.6 -0.2
v -0.3 0.8 -0.2
v -0.2 -0.8 -0.2
v -0.2 -0.6 -0.2
v -0.2 -0.5 -0.2
v -0.2 -0.4 -0.2
v -0.2 -0.3 -0.2
v -0.2 -0.2 -0.2
v -0.2 -0.1 -0.2
v -0.2 0 -0.2
v -0.2 0.1 -0.2
v -0.2 0.2 -0.2
v -0.2 0.3 -0.2
v -0.2 0.4 -0.2
v -0.2 0.5 -0.2
v -0.2 0.6 -0.2
v -0.2 0.7 -0.2
v -0.1 -0.7 -0.2
v -0.1 -0.6 -0.2
v -0.1 -0.5 -0.2
v -0.1 -0.4 -0.2
v -0.1 -0.3 -0.2
v -0.1 -0.1 -0.2
v -0.1 0.2 -0.2
v -0.1 0.3 -0.2
v -0.1 0.4 -0.2
v -0.1 0.5 -0.2
v -0.1 0.7 -0.2
v -0.1 0.8 -0.2
v 0 -0.6 -0.2
v 0 -0.5 -0.2
v 0 -0.4 -0.2
v 0 -0.3 -0.2
v 0 0.1 -0.2
v 0 0.4 -0.2
v 0 0.5 -0.2
v 0 0.6 -0.2
v 0 0.7 -0.2
v 0.1 -0.8 -0.2
v 0.1 -0.7 -0.2
v 0.1 -0.6 -0.2
v 0.1 -0.3 -0.2
v 0.1 -0.2 -0.2
v 0.1 -0.1 -0.2
v 0.1 0.1 -0.2
v 0.1 0.2 -0.2
v 0.1 0.4 -0.2
v 0.1 0.5 -0.2
v 0.1 0.6 -0.2
v 0.1 0.7 -0.2
v 0.2 -0.8 -0.2
v 0.2 -0.7 -0.2
v 0.2 -0.6 -0.2
v 0.2 -0.5 -0.2
v 0.2 -0.4 -0.2
v 0.2 -0.3 -0.2
v 0.2 -0.2 -0.2
v 0.2 -0.1 -0.2
v 0.2 0.1 -0.2
v 0.2 0.2 -0.2
v 0.2 0.4 -0.2
v 0.2 0.5 -0.2
v 0.2 0.6 -0.2
v 0.2 0.7 -0.2
v 0.2 0.8 -0.2
v 0.3 -0.8 -0.2
v 0.3 -0.7 -0.2
v 0.3 -0.6 -0.2
v 0.3 -0.5 -0.2
v 0.3 -0.4 -0.2
v 0.3 -0.3 -0.2
v 0.3 -0.2 -0.2
v 0.3 -0.1 -0.2
v 0.3 0 -0.2
v 0.3 0.2 -0.2
v 0.3 0.3 -0.2
v 0.3 0.5 -0.2
v 0.3 0.7 -0.2
v 0.3 0.8 -0.2
v 0.4 -0.8 -0.2
v 0.4 -0.7 -0.2
v 0.4 -0.3 -0.2
v 0.4 -0.2 -0.2
v 0.4 0 -0.2
v 0.4 0.2 -0.2
v 0.4 0.3 -0.2
v 0.4 0.5 -0.2
v 0.4 0.6 -0.2
v 0.4 0.7 -0.2
v 0.4 0.8 -0.2
v -0.4 -0.8 0.2
v -0.3 -0.8 0.2
v -0.1 -0.8 0.2
v 0.1 -0.8 0.2
v 0.2 -0.8 0.2
v 0.3 -0.8 0.2
v 0.4 -0.8 0.2
v -0.4 -0.8 0.1
v -0.3 -0.8 0.1
v -0.1 -0.8 0.1
v 0.1 -0.8 0.1
v 0.2 -0.8 0.1
v 0.3 -0.8 0.1
v -0.4 -0.8 0
v -0.3 -0.8 0
v 0.3 -0.8 0
v 0.4 -0.8 0
v -0.2 -0.8 -0.1
v 0.1 -0.8 -0.1
v 0.2 -0.8 -0.1
v -0.4 -0.8 -0.2
v -0.3 -0.8 -0.2
v -0.2 -0.8 -0.2
v 0.1 -0.8 -0.2
v 0.2 -0.8 -0.2
v 0.3 -0.8 -0.2
v 0.4 -0.8 -0.2
v -0.4 0.8 0.2
v -0.3 0.8 0.2
v -0.1 0.8 0.2
v 0.1 0.8 0.2
v 0.4 0.8 0.2
v -0.4 0.8 0.1
v -0.3 0.8 0.1
v -0.1 0.8 0.1
v 0 0.8 0.1
v 0.2 0.8 0.1
v 0.3 0.8 0.1
v 0.4 0.8 0.1
v -0.4 0.8 0
v -0.2 0.8 0
v -0.1 0.8 0
v 0 0.8 0
v 0.1 0.8 0
v 0.2 0.8 0
v 0.3 0.8 0
v 0.4 0.8 0
v -0.4 0.8 -0.1
v -0.3 0.8 -0.1
v -0.2 0.8 -0.1
v -0.1 0.8 -0.1
v 0 0.8 -0.1
v 0.1 0.8 -0.1
v -0.4 0.8 -0.2
v -0.3 0.8 -0.2
v -0.1 0.8 -0.2
v 0.2 0.8 -0.2
v 0.3 0.8 -0.2
v 0.4 0.8 -0.2

# faces
f 5/4/1 2/4/1 1/4/1
f 6/1/1 3/1/1 2/1/1
f 6/4/1 2/4/1 5/4/1
f 7/2/1 4/2/1 3/2/1
f 7/1/1 3/1/1 6/1/1
f 8/2/1 4/2/1 7/2/1
f 9/2/1 4/2/1 8/2/1
f 10/2/1 6/2/1 5/2/1
f 10/2/1 7/2/1 6/2/1
f 10/2/1 8/2/1 7/2/1
f 11/3/1 9/3/1 8/3/1
f 11/2/1 8/2/1 10/2/1
f 12/3/1 9/3/1 11/3/1
f 13/1/1 11/1/1 10/1/1
f 14/4/1 12/4/1 11/4/1
f 14/1/1 11/1/1 13/1/1
f 15/4/1 12/4/1 14/4/1
f 16/2/1 10/2/1 5/2/1
f 17/1/1 13/1/1 10/1/1
f 17/2/1 10/2/1 16/2/1
f 18/2/1 14/2/1 13/2/1
f 18/1/1 13/1/1 17/1/1
f 19/3/1 15/3/1 14/3/1
f 19/2/1 14/2/1 18/2/1
f 20/3/1 15/3/1 19/3/1
f 21/5/1 17/5/1 16/5/1
f 21/5/1 18/5/1 17/5/1
f 21/5/1 20/5/1 19/5/1
f 21/5/1 19/5/1 18/5/1
f 22/5/1 20/5/1 21/5/1
f 23/5/1 20/5/1 22/5/1
f 24/5/1 20/5/1 23/5/1
f 25/4/1 23/4/1 22/4/1
f 25/3/1 24/3/1 23/3/1
f 26/3/1 24/3/1 25/3/1
f 27/5/1 21/5/1 16/5/1
f 27/2/1 22/2/1 21/2/1
f 28/4/1 25/4/1 22/4/1
f 28/2/1 22/2/1 27/2/1
f 29/5/1 27/5/1 16/5/1
f 30/4/1 28/4/1 27/4/1
f 30/5/1 27/5/1 29/5/1
f 31/4/1 25/4/1 28/4/1
f 31/4/1 28/4/1 30/4/1
f 32/2/1 26/2/1 25/2/1
f 32/4/1 25/4/1 31/4/1
f 33/2/1 26/2/1 32/2/1
f 34/2/1 30/2/1 29/2/1
f 35/5/1 31/5/1 30/5/1
f 35/2/1 30/2/1 34/2/1
f 36/4/1 32/4/1 31/4/1
f 36/5/1 31/5/1 35/5/1
f 37/3/1 33/3/1 32/3/1
f 37/4/1 32/4/1 36/4/1
f 38/1/1 35/1/1 34/1/1
f 39/2/1 36/2/1 35/2/1
f 39/1/1 35/1/1 38/1/1
f 40/5/1 37/5/1 36/5/1
f 40/2/1 36/2/1 39/2/1
f 41/4/1 40/4/1 39/4/1
f 41/5/1 37/5/1 40/5/1
f 42/3/1 33/3/1 37/3/1
f 42/5/1 37/5/1 41/5/1
f 43/3/1 33/3/1 42/3/1
f 44/5/1 39/5/1 38/5/1
f 45/4/1 41/4/1 39/4/1
f 45/5/1 39/5/1 44/5/1
f 46/2/1 42/2/1 41/2/1
f 46/2/1 43/2/1 42/2/1
f 47/2/1 43/2/1 46/2/1
f 48/2/1 45/2/1 44/2/1
f 49/4/1 41/4/1 45/4/1
f 49/2/1 45/2/1 48/2/1
f 50/3/1 49/3/1 48/3/1
f 51/4/1 41/4/1 49/4/1
f 51/3/1 49/3/1 50/3/1
f 52/2/1 46/2/1 41/2/1
f 52/4/1 41/4/1 51/4/1
f 53/1/1 47/1/1 46/1/1
f 53/2/1 46/2/1 52/2/1
f 54/2/1 51/2/1 50/2/1
f 55/4/1 52/4/1 51/4/1
f 55/2/1 51/2/1 54/2/1
f 56/3/1 53/3/1 52/3/1
f 56/4/1 52/4/1 55/4/1
f 57/1/1 47/1/1 53/1/1
f 57/3/1 53/3/1 56/3/1
f 58/1/1 47/1/1 57/1/1
f 59/4/2 60/4/2 62/4/2
f 60/3/2 61/3/2 62/3/2
f 62/3/2 61/3/2 63/3/2
f 59/4/2 62/4/2 64/4/2
f 62/4/2 63/4/2 64/4/2
f 64/4/2 63/4/2 65/4/2
f 59/4/2 64/4/2 66/4/2
f 64/2/2 65/2/2 66/2/2
f 65/4/2 63/4/2 67/4/2
f 66/2/2 65/2/2 67/2/2
f 59/4/2 66/4/2 68/4/2
f 66/1/2 67/1/2 69/1/2
f 68/4/2 66/4/2 69/4/2
f 67/4/2 63/4/2 70/4/2
f 69/1/2 67/1/2 70/1/2
f 70/4/2 63/4/2 71/4/2
f 69/1/2 70/1/2 72/1/2
f 70/3/2 71/3/2 72/3/2
f 71/4/2 63/4/2 73/4/2
f 72/3/2 71/3/2 73/3/2
f 73/4/2 63/4/2 74/4/2
f 68/2/2 69/2/2 75/2/2
f 69/1/2 72/1/2 75/1/2
f 72/4/2 73/4/2 76/4/2
f 75/1/2 72/1/2 76/1/2
f 73/2/2 74/2/2 77/2/2
f 76/4/2 73/4/2 77/4/2
f 77/2/2 74/2/2 78/2/2
f 68/2/2 75/2/2 79/2/2
f 75/4/2 76/4/2 80/4/2
f 79/2/2 75/2/2 80/2/2
f 76/4/2 77/4/2 80/4/2
f 80/4/2 77/4/2 81/4/2
f 77/3/2 78/3/2 82/3/2
f 81/4/2 77/4/2 82/4/2
f 82/3/2 78/3/2 83/3/2
f 80/5/2 81/5/2 84/5/2
f 79/5/2 80/5/2 84/5/2
f 84/5/2 81/5/2 85/5/2
f 81/4/2 82/4/2 86/4/2
f 85/5/2 81/5/2 86/5/2
f 82/5/2 83/5/2 87/5/2
f 86/4/2 82/4/2 87/4/2
f 84/2/2 85/2/2 88/2/2
f 85/3/2 86/3/2 89/3/2
f 88/2/2 85/2/2 89/2/2
f 86/2/2 87/2/2 90/2/2
f 89/3/2 86/3/2 90/3/2
f 87/5/2 83/5/2 91/5/2
f 90/2/2 87/2/2 91/2/2
f 91/5/2 83/5/2 92/5/2
f 90/5/2 91/5/2 93/5/2
f 91/3/2 92/3/2 93/3/2
f 93/3/2 92/3/2 94/3/2
f 88/4/2 89/4/2 95/4/2
f 89/3/2 90/3/2 96/3/2
f 95/4/2 89/4/2 96/4/2
f 90/5/2 93/5/2 97/5/2
f 96/3/2 90/3/2 97/3/2
f 93/1/2 94/1/2 98/1/2
f 97/5/2 93/5/2 98/5/2
f 96/5/2 97/5/2 99/5/2
f 97/2/2 98/2/2 99/2/2
f 98/1/2 94/1/2 100/1/2
f 99/2/2 98/2/2 100/2/2
f 100/1/2 94/1/2 101/1/2
f 95/2/2 96/2/2 102/2/2
f 96/5/2 99/5/2 103/5/2
f 102/2/2 96/2/2 103/2/2
f 99/4/2 100/4/2 104/4/2
f 103/5/2 99/5/2 104/5/2
f 100/2/2 101/2/2 105/2/2
f 104/4/2 100/4/2 105/4/2
f 105/2/2 101/2/2 106/2/2
f 102/5/2 103/5/2 107/5/2
f 103/2/2 104/2/2 108/2/2
f 107/5/2 103/5/2 108/5/2
f 104/1/2 105/1/2 109/1/2
f 108/2/2 104/2/2 109/2/2
f 105/4/2 106/4/2 110/4/2
f 109/1/2 105/1/2 110/1/2
f 110/4/2 106/4/2 111/4/2
f 107/4/2 108/4/2 112/4/2
f 108/3/2 109/3/2 113/3/2
f 112/4/2 108/4/2 113/4/2
f 109/2/2 110/2/2 114/2/2
f 113/3/2 109/3/2 114/3/2
f 110/2/2 111/2/2 114/2/2
f 114/2/2 111/2/2 115/2/2
f 126/4/3 117/4/3 116/4/3
f 127/2/3 118/2/3 117/2/3
f 127/4/3 117/4/3 126/4/3
f 128/2/3 118/2/3 127/2/3
f 129/2/3 118/2/3 128/2/3
f 130/5/3 119/5/3 118/5/3
f 130/2/3 118/2/3 129/2/3
f 131/5/3 119/5/3 130/5/3
f 132/5/3 119/5/3 131/5/3
f 133/5/3 119/5/3 132/5/3
f 134/2/3 120/2/3 119/2/3
f 134/5/3 119/5/3 133/5/3
f 135/1/3 121/1/3 120/1/3
f 135/2/3 120/2/3 134/2/3
f 136/5/3 122/5/3 121/5/3
f 136/1/3 121/1/3 135/1/3
f 137/5/3 122/5/3 136/5/3
f 138/2/3 123/2/3 122/2/3
f 138/5/3 122/5/3 137/5/3
f 139/3/3 124/3/3 123/3/3
f 139/2/3 123/2/3 138/2/3
f 140/2/3 125/2/3 124/2/3
f 140/3/3 124/3/3 139/3/3
f 141/2/3 125/2/3 140/2/3
f 142/2/3 129/2/3 128/2/3
f 142/4/3 128/4/3 127/4/3
f 143/1/3 130/1/3 129/1/3
f 143/2/3 129/2/3 142/2/3
f 144/2/3 131/2/3 130/2/3
f 144/1/3 130/1/3 143/1/3
f 145/4/3 132/4/3 131/4/3
f 145/2/3 131/2/3 144/2/3
f 146/3/3 133/3/3 132/3/3
f 146/4/3 132/4/3 145/4/3
f 147/5/3 134/5/3 133/5/3
f 147/3/3 133/3/3 146/3/3
f 147/5/3 135/5/3 134/5/3
f 147/5/3 136/5/3 135/5/3
f 148/5/3 136/5/3 147/5/3
f 149/5/3 136/5/3 148/5/3
f 150/5/3 136/5/3 149/5/3
f 151/2/3 137/2/3 136/2/3
f 151/5/3 136/5/3 150/5/3
f 152/3/3 138/3/3 137/3/3
f 152/2/3 137/2/3 151/2/3
f 153/2/3 139/2/3 138/2/3
f 153/3/3 138/3/3 152/3/3
f 153/2/3 140/2/3 139/2/3
f 154/2/3 140/2/3 153/2/3
f 155/1/3 141/1/3 140/1/3
f 155/2/3 140/2/3 154/2/3
f 156/2/3 127/2/3 126/2/3
f 157/4/3 142/4/3 127/4/3
f 157/2/3 127/2/3 156/2/3
f 158/3/3 143/3/3 142/3/3
f 158/4/3 142/4/3 157/4/3
f 159/2/3 144/2/3 143/2/3
f 159/3/3 143/3/3 158/3/3
f 160/1/3 145/1/3 144/1/3
f 160/2/3 144/2/3 159/2/3
f 161/5/3 146/5/3 145/5/3
f 161/1/3 145/1/3 160/1/3
f 161/5/3 147/5/3 146/5/3
f 162/5/3 147/5/3 161/5/3
f 163/1/3 148/1/3 147/1/3
f 163/5/3 147/5/3 162/5/3
f 164/4/3 149/4/3 148/4/3
f 164/1/3 148/1/3 163/1/3
f 165/2/3 150/2/3 149/2/3
f 165/4/3 149/4/3 164/4/3
f 166/3/3 151/3/3 150/3/3
f 166/2/3 150/2/3 165/2/3
f 167/2/3 152/2/3 151/2/3
f 167/3/3 151/3/3 166/3/3
f 167/2/3 154/2/3 153/2/3
f 167/2/3 153/2/3 152/2/3
f 168/2/3 154/2/3 167/2/3
f 169/4/3 155/4/3 154/4/3
f 169/2/3 154/2/3 168/2/3
f 170/1/3 141/1/3 155/1/3
f 170/4/3 155/4/3 169/4/3
f 171/1/3 141/1/3 170/1/3
f 172/4/3 159/4/3 158/4/3
f 172/2/3 158/2/3 157/2/3
f 173/3/3 160/3/3 159/3/3
f 173/4/3 159/4/3 172/4/3
f 174/2/3 161/2/3 160/2/3
f 174/3/3 160/3/3 173/3/3
f 175/3/3 162/3/3 161/3/3
f 175/2/3 161/2/3 174/2/3
f 176/4/3 163/4/3 162/4/3
f 176/3/3 162/3/3 175/3/3
f 177/2/3 164/2/3 163/2/3
f 177/4/3 163/4/3 176/4/3
f 177/2/3 165/2/3 164/2/3
f 178/3/3 168/3/3 167/3/3
f 178/2/3 167/2/3 166/2/3
f 179/3/3 168/3/3 178/3/3
f 180/4/3 169/4/3 168/4/3
f 180/3/3 168/3/3 179/3/3
f 181/4/3 157/4/3 156/4/3
f 182/2/3 172/2/3 157/2/3
f 182/4/3 157/4/3 181/4/3
f 183/1/3 173/1/3 172/1/3
f 183/2/3 172/2/3 182/2/3
f 184/4/3 174/4/3 173/4/3
f 184/1/3 173/1/3 183/1/3
f 185/2/3 175/2/3 174/2/3
f 185/4/3 174/4/3 184/4/3
f 185/2/3 176/2/3 175/2/3
f 185/2/3 177/2/3 176/2/3
f 186/2/3 177/2/3 185/2/3
f 187/2/3 165/2/3 177/2/3
f 187/2/3 177/2/3 186/2/3
f 188/2/3 165/2/3 187/2/3
f 189/4/3 166/4/3 165/4/3
f 189/2/3 165/2/3 188/2/3
f 190/1/3 179/1/3 178/1/3
f 190/2/3 178/2/3 166/2/3
f 191/4/3 180/4/3 179/4/3
f 191/1/3 179/1/3 190/1/3
f 192/2/3 170/2/3 169/2/3
f 192/4/3 180/4/3 191/4/3
f 192/4/3 169/4/3 180/4/3
f 192/2/3 171/2/3 170/2/3
f 193/2/3 171/2/3 192/2/3
f 194/2/3 171/2/3 193/2/3
f 195/3/3 182/3/3 181/3/3
f 196/4/3 183/4/3 182/4/3
f 196/3/3 182/3/3 195/3/3
f 197/2/3 184/2/3 183/2/3
f 197/3/3 185/3/3 184/3/3
f 198/4/3 186/4/3 185/4/3
f 198/3/3 185/3/3 197/3/3
f 199/2/3 187/2/3 186/2/3
f 199/4/3 186/4/3 198/4/3
f 200/5/3 188/5/3 187/5/3
f 200/2/3 187/2/3 199/2/3
f 201/4/3 189/4/3 188/4/3
f 201/5/3 188/5/3 200/5/3
f 202/4/3 166/4/3 189/4/3
f 202/4/3 189/4/3 201/4/3
f 203/2/3 190/2/3 166/2/3
f 203/4/3 166/4/3 202/4/3
f 203/2/3 191/2/3 190/2/3
f 203/2/3 192/2/3 191/2/3
f 204/2/3 192/2/3 203/2/3
f 205/3/3 193/3/3 192/3/3
f 205/2/3 192/2/3 204/2/3
f 206/4/3 194/4/3 193/4/3
f 206/3/3 193/3/3 205/3/3
f 207/2/3 196/2/3 195/2/3
f 208/4/3 183/4/3 196/4/3
f 208/2/3 196/2/3 207/2/3
f 209/2/3 198/2/3 197/2/3
f 209/4/3 183/4/3 208/4/3
f 209/2/3 197/2/3 183/2/3
f 210/4/3 199/4/3 198/4/3
f 210/2/3 198/2/3 209/2/3
f 210/4/3 200/4/3 199/4/3
f 211/2/3 201/2/3 200/2/3
f 211/4/3 200/4/3 210/4/3
f 212/2/3 205/2/3 204/2/3
f 212/4/3 204/4/3 203/4/3
f 213/2/3 205/2/3 212/2/3
f 214/4/3 209/4/3 208/4/3
f 214/4/3 210/4/3 209/4/3
f 214/4/3 208/4/3 207/4/3
f 215/2/3 211/2/3 210/2/3
f 215/4/3 210/4/3 214/4/3
f 216/5/3 202/5/3 201/5/3
f 216/2/3 211/2/3 215/2/3
f 216/2/3 201/2/3 211/2/3
f 217/2/3 203/2/3 202/2/3
f 217/5/3 202/5/3 216/5/3
f 218/4/3 213/4/3 212/4/3
f 218/2/3 203/2/3 217/2/3
f 218/4/3 212/4/3 203/4/3
f 219/2/3 205/2/3 213/2/3
f 219/4/3 213/4/3 218/4/3
f 220/5/3 206/5/3 205/5/3
f 220/2/3 205/2/3 219/2/3
f 221/4/3 194/4/3 206/4/3
f 221/5/3 206/5/3 220/5/3
f 222/4/3 194/4/3 221/4/3
f 223/2/4 224/2/4 234/2/4
f 224/3/4 225/3/4 235/3/4
f 234/2/4 224/2/4 235/2/4
f 225/4/4 226/4/4 236/4/4
f 235/3/4 225/3/4 236/3/4
f 226/3/4 227/3/4 237/3/4
f 236/4/4 226/4/4 237/4/4
f 227/5/4 228/5/4 238/5/4
f 237/3/4 227/3/4 238/3/4
f 228/3/4 229/3/4 239/3/4
f 238/5/4 228/5/4 239/5/4
f 229/2/4 230/2/4 240/2/4
f 239/3/4 229/3/4 240/3/4
f 240/2/4 230/2/4 241/2/4
f 241/2/4 230/2/4 242/2/4
f 230/3/4 231/3/4 243/3/4
f 231/2/4 232/2/4 244/2/4
f 243/3/4 231/3/4 244/3/4
f 232/1/4 233/1/4 245/1/4
f 244/2/4 232/2/4 245/2/4
f 245/1/4 233/1/4 246/1/4
f 246/1/4 233/1/4 247/1/4
f 234/1/4 235/1/4 248/1/4
f 235/1/4 236/1/4 248/1/4
f 236/4/4 237/4/4 249/4/4
f 248/1/4 236/1/4 249/1/4
f 237/5/4 238/5/4 250/5/4
f 249/4/4 237/4/4 250/4/4
f 238/4/4 239/4/4 251/4/4
f 250/5/4 238/5/4 251/5/4
f 239/2/4 240/2/4 252/2/4
f 251/4/4 239/4/4 252/4/4
f 240/1/4 241/1/4 253/1/4
f 252/2/4 240/2/4 253/2/4
f 241/4/4 242/4/4 254/4/4
f 253/1/4 241/1/4 254/1/4
f 242/2/4 230/2/4 255/2/4
f 254/4/4 242/4/4 255/4/4
f 230/3/4 243/3/4 256/3/4
f 255/2/4 230/2/4 256/2/4
f 256/3/4 243/3/4 257/3/4
f 243/5/4 244/5/4 258/5/4
f 257/3/4 243/3/4 258/3/4
f 244/2/4 245/2/4 259/2/4
f 258/5/4 244/5/4 259/5/4
f 245/2/4 246/2/4 259/2/4
f 259/2/4 246/2/4 260/2/4
f 246/3/4 247/3/4 261/3/4
f 260/2/4 246/2/4 261/2/4
f 261/3/4 247/3/4 262/3/4
f 248/2/4 249/2/4 263/2/4
f 249/5/4 250/5/4 264/5/4
f 263/2/4 249/2/4 264/2/4
f 250/4/4 251/4/4 265/4/4
f 264/5/4 250/5/4 265/5/4
f 251/1/4 252/1/4 266/1/4
f 265/4/4 251/4/4 266/4/4
f 253/4/4 254/4/4 267/4/4
f 266/1/4 252/1/4 267/1/4
f 252/4/4 253/4/4 267/4/4
f 256/2/4 257/2/4 268/2/4
f 267/4/4 254/4/4 268/4/4
f 254/2/4 255/2/4 268/2/4
f 255/2/4 256/2/4 268/2/4
f 257/5/4 258/5/4 269/5/4
f 268/2/4 257/2/4 269/2/4
f 258/1/4 259/1/4 270/1/4
f 269/5/4 258/5/4 270/5/4
f 259/3/4 260/3/4 271/3/4
f 270/1/4 259/1/4 271/1/4
f 260/5/4 261/5/4 272/5/4
f 271/3/4 260/3/4 272/3/4
f 262/3/4 247/3/4 273/3/4
f 261/2/4 262/2/4 273/2/4
f 273/3/4 247/3/4 274/3/4
f 266/5/4 267/5/4 275/5/4
f 269/5/4 270/5/4 275/5/4
f 265/5/4 266/5/4 275/5/4
f 270/5/4 271/5/4 275/5/4
f 268/5/4 269/5/4 275/5/4
f 267/5/4 268/5/4 275/5/4
f 271/5/4 272/5/4 275/5/4
f 264/5/4 265/5/4 275/5/4
f 263/5/4 264/5/4 275/5/4
f 275/5/4 272/5/4 276/5/4
f 276/5/4 272/5/4 277/5/4
f 277/5/4 272/5/4 278/5/4
f 278/5/4 272/5/4 279/5/4
f 279/5/4 272/5/4 280/5/4
f 272/5/4 261/5/4 281/5/4
f 280/5/4 272/5/4 281/5/4
f 273/2/4 274/2/4 282/2/4
f 281/5/4 261/5/4 282/5/4
f 261/2/4 273/2/4 282/2/4
f 282/2/4 274/2/4 283/2/4
f 248/2/4 263/2/4 284/2/4
f 263/5/4 275/5/4 285/5/4
f 284/2/4 263/2/4 285/2/4
f 275/4/4 276/4/4 286/4/4
f 285/5/4 275/5/4 286/5/4
f 278/2/4 279/2/4 287/2/4
f 277/4/4 278/4/4 287/4/4
f 287/2/4 279/2/4 288/2/4
f 288/2/4 279/2/4 289/2/4
f 279/4/4 280/4/4 290/4/4
f 289/2/4 279/2/4 290/2/4
f 290/4/4 280/4/4 291/4/4
f 280/3/4 281/3/4 292/3/4
f 291/4/4 280/4/4 292/4/4
f 281/5/4 282/5/4 293/5/4
f 292/3/4 281/3/4 293/3/4
f 282/3/4 283/3/4 294/3/4
f 293/5/4 282/5/4 294/5/4
f 283/2/4 274/2/4 295/2/4
f 294/3/4 283/3/4 295/3/4
f 284/5/4 285/5/4 296/5/4
f 285/4/4 286/4/4 297/4/4
f 296/5/4 285/5/4 297/5/4
f 286/4/4 276/4/4 298/4/4
f 297/4/4 286/4/4 298/4/4
f 276/2/4 277/2/4 299/2/4
f 298/4/4 276/4/4 299/4/4
f 277/4/4 287/4/4 300/4/4
f 299/2/4 277/2/4 300/2/4
f 287/1/4 288/1/4 301/1/4
f 300/4/4 287/4/4 301/4/4
f 288/2/4 289/2/4 302/2/4
f 301/1/4 288/1/4 302/1/4
f 289/4/4 290/4/4 303/4/4
f 302/2/4 289/2/4 303/2/4
f 290/2/4 291/2/4 304/2/4
f 303/4/4 290/4/4 304/4/4
f 291/1/4 292/1/4 305/1/4
f 304/2/4 291/2/4 305/2/4
f 292/4/4 293/4/4 306/4/4
f 305/1/4 292/1/4 306/1/4
f 293/5/4 294/5/4 307/5/4
f 306/4/4 293/4/4 307/4/4
f 294/1/4 295/1/4 308/1/4
f 307/5/4 294/5/4 308/5/4
f 295/2/4 274/2/4 309/2/4
f 308/1/4 295/1/4 309/1/4
f 309/2/4 274/2/4 310/2/4
f 296/1/4 297/1/4 311/1/4
f 297/4/4 298/4/4 312/4/4
f 311/1/4 297/1/4 312/1/4
f 298/1/4 299/1/4 313/1/4
f 312/4/4 298/4/4 313/4/4
f 299/4/4 300/4/4 314/4/4
f 313/1/4 299/1/4 314/1/4
f 300/3/4 301/3/4 315/3/4
f 314/4/4 300/4/4 315/4/4
f 302/4/4 303/4/4 316/4/4
f 315/3/4 301/3/4 316/3/4
f 301/4/4 302/4/4 316/4/4
f 316/4/4 303/4/4 317/4/4
f 303/1/4 304/1/4 318/1/4
f 317/4/4 303/4/4 318/4/4
f 304/1/4 305/1/4 318/1/4
f 318/1/4 305/1/4 319/1/4
f 305/2/4 306/2/4 320/2/4
f 319/1/4 305/1/4 320/1/4
f 307/2/4 308/2/4 320/2/4
f 306/2/4 307/2/4 320/2/4
f 320/2/4 308/2/4 321/2/4
f 321/2/4 308/2/4 322/2/4
f 309/4/4 310/4/4 323/4/4
f 308/4/4 309/4/4 323/4/4
f 323/4/4 310/4/4 324/4/4
f 311/3/4 312/3/4 325/3/4
f 314/4/4 315/4/4 326/4/4
f 325/3/4 312/3/4 326/3/4
f 313/4/4 314/4/4 326/4/4
f 315/4/4 316/4/4 326/4/4
f 312/4/4 313/4/4 326/4/4
f 316/2/4 317/2/4 327/2/4
f 326/4/4 316/4/4 327/4/4
f 318/3/4 319/3/4 328/3/4
f 327/2/4 317/2/4 328/2/4
f 317/3/4 318/3/4 328/3/4
f 319/5/4 320/5/4 329/5/4
f 328/3/4 319/3/4 329/3/4
f 320/3/4 321/3/4 330/3/4
f 329/5/4 320/5/4 330/5/4
f 321/1/4 322/1/4 331/1/4
f 330/3/4 321/3/4 331/3/4
f 322/2/4 308/2/4 332/2/4
f 331/1/4 322/1/4 332/1/4
f 308/4/4 323/4/4 333/4/4
f 332/2/4 308/2/4 333/2/4
f 323/2/4 324/2/4 334/2/4
f 333/4/4 323/4/4 334/4/4
f 334/2/4 324/2/4 335/2/4
f 343/4/5 337/4/5 336/4/5
f 344/2/5 338/2/5 337/2/5
f 344/4/5 337/4/5 343/4/5
f 345/4/5 339/4/5 338/4/5
f 345/2/5 338/2/5 344/2/5
f 346/3/5 340/3/5 339/3/5
f 346/4/5 339/4/5 345/4/5
f 347/2/5 341/2/5 340/2/5
f 347/3/5 340/3/5 346/3/5
f 348/4/5 342/4/5 341/4/5
f 348/2/5 341/2/5 347/2/5
f 349/1/5 347/1/5 346/1/5
f 349/1/5 344/1/5 343/1/5
f 349/1/5 348/1/5 347/1/5
f 349/1/5 346/1/5 345/1/5
f 349/1/5 345/1/5 344/1/5
f 350/1/5 348/1/5 349/1/5
f 351/4/5 342/4/5 348/4/5
f 351/1/5 348/1/5 350/1/5
f 352/4/5 342/4/5 351/4/5
f 353/1/5 351/1/5 350/1/5
f 354/1/5 351/1/5 353/1/5
f 355/1/5 351/1/5 354/1/5
f 356/2/5 350/2/5 349/2/5
f 357/1/5 353/1/5 350/1/5
f 357/2/5 350/2/5 356/2/5
f 358/2/5 354/2/5 353/2/5
f 358/1/5 353/1/5 357/1/5
f 359/5/5 355/5/5 354/5/5
f 359/2/5 354/2/5 358/2/5
f 360/1/5 351/1/5 355/1/5
f 360/5/5 355/5/5 359/5/5
f 361/3/5 352/3/5 351/3/5
f 361/1/5 351/1/5 360/1/5
f 362/3/5 352/3/5 361/3/5
f 363/2/6 364/2/6 368/2/6
f 364/1/6 365/1/6 369/1/6
f 368/2/6 364/2/6 369/2/6
f 365/2/6 366/2/6 370/2/6
f 369/1/6 365/1/6 370/1/6
f 370/2/6 366/2/6 371/2/6
f 366/4/6 367/4/6 372/4/6
f 372/4/6 367/4/6 373/4/6
f 373/4/6 367/4/6 374/4/6
f 368/4/6 369/4/6 375/4/6
f 369/4/6 370/4/6 375/4/6
f 370/4/6 371/4/6 375/4/6
f 375/4/6 371/4/6 376/4/6
f 376/4/6 371/4/6 377/4/6
f 371/2/6 366/2/6 378/2/6
f 377/4/6 371/4/6 378/4/6
f 366/4/6 372/4/6 379/4/6
f 378/2/6 366/2/6 379/2/6
f 372/1/6 373/1/6 380/1/6
f 379/4/6 372/4/6 380/4/6
f 373/3/6 374/3/6 381/3/6
f 380/1/6 373/1/6 381/1/6
f 381/3/6 374/3/6 382/3/6
f 375/3/6 376/3/6 383/3/6
f 383/3/6 376/3/6 384/3/6
f 376/1/6 377/1/6 385/1/6
f 384/3/6 376/3/6 385/3/6
f 377/2/6 378/2/6 386/2/6
f 385/1/6 377/1/6 386/1/6
f 378/3/6 379/3/6 387/3/6
f 386/2/6 378/2/6 387/2/6
f 379/2/6 380/2/6 388/2/6
f 387/3/6 379/3/6 388/3/6
f 383/1/6 384/1/6 389/1/6
f 385/3/6 386/3/6 390/3/6
f 389/1/6 384/1/6 390/1/6
f 384/3/6 385/3/6 390/3/6
f 386/2/6 387/2/6 391/2/6
f 390/3/6 386/3/6 391/3/6
f 387/2/6 388/2/6 391/2/6
f 388/2/6 380/2/6 392/2/6
f 391/2/6 388/2/6 392/2/6
f 380/4/6 381/4/6 392/4/6
f 381/2/6 382/2/6 393/2/6
f 392/4/6 381/4/6 393/4/6
f 393/2/6 382/2/6 394/2/6
