# MagicaVoxel @ Ephtracy

# group
o 

# material
mtllib RockyFloorB.mtl
usemtl palette

# normals
vn -1 0 0
vn 1 0 0
vn 0 0 1
vn 0 0 -1
vn 0 -1 0
vn 0 1 0

# texcoords
vt 0.255859 0.5
vt 0.314453 0.5
vt 0.330078 0.5
vt 0.333984 0.5
vt 0.337891 0.5
vt 0.341797 0.5
vt 0.361328 0.5
vt 0.365234 0.5

# verts
v -0.4 -0.4 0.4
v -0.4 -0.4 0.3
v -0.4 -0.4 0.2
v -0.4 -0.4 -0.4
v -0.4 -0.3 0.3
v -0.4 -0.3 0.2
v -0.4 -0.3 -0.2
v -0.4 -0.2 0.4
v -0.4 -0.2 0.3
v -0.4 -0.2 0.1
v -0.4 -0.2 -0.2
v -0.4 -0.2 -0.3
v -0.4 -0.2 -0.4
v -0.4 -0.1 0.4
v -0.4 -0.1 0.3
v -0.4 -0.1 0.1
v -0.4 -0.1 0
v -0.4 -0.1 -0.1
v -0.4 -0.1 -0.2
v -0.4 -0.1 -0.3
v -0.4 -0.1 -0.4
v -0.4 0 0.3
v -0.4 0 0.2
v -0.4 0 0.1
v -0.4 0 0
v -0.4 0 -0.1
v -0.4 0 -0.2
v -0.4 0 -0.4
v -0.4 0.1 0.4
v -0.4 0.1 0.3
v -0.4 0.1 0.2
v -0.4 0.1 0.1
v -0.4 0.1 0
v -0.4 0.1 -0.1
v -0.4 0.1 -0.2
v -0.4 0.1 -0.4
v -0.4 0.2 0.4
v -0.4 0.2 0.3
v -0.4 0.2 0
v -0.4 0.2 -0.1
v -0.4 0.2 -0.2
v -0.4 0.2 -0.3
v -0.4 0.2 -0.4
v -0.4 0.3 0.4
v -0.4 0.3 0.3
v -0.4 0.3 0.2
v -0.4 0.3 0.1
v -0.4 0.3 0
v -0.4 0.3 -0.1
v -0.4 0.3 -0.2
v -0.4 0.3 -0.3
v -0.4 0.3 -0.4
v -0.4 0.4 0.4
v -0.4 0.4 0.3
v -0.4 0.4 0.2
v -0.4 0.4 0.1
v -0.4 0.4 0
v -0.4 0.4 -0.1
v -0.4 0.4 -0.3
v -0.4 0.4 -0.4
v 0.4 -0.4 0.4
v 0.4 -0.4 0.2
v 0.4 -0.4 0.1
v 0.4 -0.4 -0.2
v 0.4 -0.4 -0.3
v 0.4 -0.4 -0.4
v 0.4 -0.3 0.4
v 0.4 -0.3 0.3
v 0.4 -0.3 0.2
v 0.4 -0.3 0.1
v 0.4 -0.3 0
v 0.4 -0.3 -0.1
v 0.4 -0.3 -0.3
v 0.4 -0.3 -0.4
v 0.4 -0.2 0.4
v 0.4 -0.2 0.3
v 0.4 -0.2 0.2
v 0.4 -0.2 0.1
v 0.4 -0.2 0
v 0.4 -0.2 -0.1
v 0.4 -0.2 -0.3
v 0.4 -0.2 -0.4
v 0.4 -0.1 0.3
v 0.4 -0.1 0.2
v 0.4 -0.1 0.1
v 0.4 -0.1 0
v 0.4 -0.1 -0.2
v 0.4 -0.1 -0.3
v 0.4 0 0.4
v 0.4 0 0.3
v 0.4 0 0
v 0.4 0 -0.2
v 0.4 0 -0.3
v 0.4 0 -0.4
v 0.4 0.1 0.4
v 0.4 0.1 0.3
v 0.4 0.1 0.2
v 0.4 0.1 0.1
v 0.4 0.1 0
v 0.4 0.1 -0.1
v 0.4 0.1 -0.2
v 0.4 0.1 -0.3
v 0.4 0.1 -0.4
v 0.4 0.2 0.4
v 0.4 0.2 0.3
v 0.4 0.2 0.2
v 0.4 0.2 0
v 0.4 0.2 -0.1
v 0.4 0.2 -0.2
v 0.4 0.2 -0.3
v 0.4 0.2 -0.4
v 0.4 0.3 0.4
v 0.4 0.3 0.3
v 0.4 0.3 0.2
v 0.4 0.3 -0.1
v 0.4 0.3 -0.2
v 0.4 0.3 -0.3
v 0.4 0.3 -0.4
v 0.4 0.4 0.4
v 0.4 0.4 0.3
v 0.4 0.4 0.2
v 0.4 0.4 -0.1
v 0.4 0.4 -0.2
v 0.4 0.4 -0.3
v 0.4 0.4 -0.4
v -0.4 -0.4 0.4
v -0.4 -0.2 0.4
v -0.4 -0.1 0.4
v -0.4 0.1 0.4
v -0.4 0.2 0.4
v -0.4 0.3 0.4
v -0.4 0.4 0.4
v -0.3 -0.4 0.4
v -0.3 -0.3 0.4
v -0.3 -0.1 0.4
v -0.3 0.1 0.4
v -0.3 0.2 0.4
v -0.3 0.3 0.4
v -0.3 0.4 0.4
v -0.2 -0.4 0.4
v -0.2 -0.3 0.4
v -0.2 -0.2 0.4
v -0.2 -0.1 0.4
v -0.2 0 0.4
v -0.2 0.1 0.4
v -0.2 0.2 0.4
v -0.2 0.3 0.4
v -0.2 0.4 0.4
v -0.1 -0.3 0.4
v -0.1 -0.2 0.4
v -0.1 -0.1 0.4
v -0.1 0 0.4
v -0.1 0.1 0.4
v -0.1 0.2 0.4
v -0.1 0.3 0.4
v -0.1 0.4 0.4
v 0 -0.2 0.4
v 0 -0.1 0.4
v 0 0.1 0.4
v 0 0.2 0.4
v 0.1 -0.4 0.4
v 0.1 -0.3 0.4
v 0.1 -0.2 0.4
v 0.1 -0.1 0.4
v 0.1 0 0.4
v 0.2 -0.4 0.4
v 0.2 -0.3 0.4
v 0.2 -0.2 0.4
v 0.2 -0.1 0.4
v 0.2 0 0.4
v 0.2 0.1 0.4
v 0.2 0.2 0.4
v 0.3 -0.4 0.4
v 0.3 -0.3 0.4
v 0.3 -0.2 0.4
v 0.3 -0.1 0.4
v 0.3 0 0.4
v 0.3 0.1 0.4
v 0.3 0.2 0.4
v 0.3 0.3 0.4
v 0.4 -0.4 0.4
v 0.4 -0.3 0.4
v 0.4 -0.2 0.4
v 0.4 0 0.4
v 0.4 0.1 0.4
v 0.4 0.2 0.4
v 0.4 0.3 0.4
v 0.4 0.4 0.4
v -0.4 -0.4 -0.4
v -0.4 -0.2 -0.4
v -0.4 -0.1 -0.4
v -0.4 0 -0.4
v -0.4 0.1 -0.4
v -0.4 0.2 -0.4
v -0.4 0.3 -0.4
v -0.4 0.4 -0.4
v -0.3 -0.4 -0.4
v -0.3 -0.3 -0.4
v -0.3 -0.1 -0.4
v -0.3 0 -0.4
v -0.3 0.1 -0.4
v -0.3 0.2 -0.4
v -0.3 0.3 -0.4
v -0.2 -0.4 -0.4
v -0.2 -0.3 -0.4
v -0.2 -0.2 -0.4
v -0.2 -0.1 -0.4
v -0.2 0 -0.4
v -0.2 0.1 -0.4
v -0.2 0.2 -0.4
v -0.2 0.3 -0.4
v -0.2 0.4 -0.4
v -0.1 -0.4 -0.4
v -0.1 -0.3 -0.4
v -0.1 -0.2 -0.4
v -0.1 0 -0.4
v -0.1 0.1 -0.4
v -0.1 0.3 -0.4
v 0 -0.2 -0.4
v 0 -0.1 -0.4
v 0 0 -0.4
v 0 0.1 -0.4
v 0 0.2 -0.4
v 0 0.3 -0.4
v 0 0.4 -0.4
v 0.1 -0.1 -0.4
v 0.1 0 -0.4
v 0.1 0.1 -0.4
v 0.1 0.2 -0.4
v 0.1 0.3 -0.4
v 0.1 0.4 -0.4
v 0.2 -0.1 -0.4
v 0.2 0 -0.4
v 0.2 0.1 -0.4
v 0.2 0.2 -0.4
v 0.2 0.3 -0.4
v 0.2 0.4 -0.4
v 0.3 -0.2 -0.4
v 0.3 -0.1 -0.4
v 0.3 0 -0.4
v 0.3 0.1 -0.4
v 0.3 0.2 -0.4
v 0.3 0.3 -0.4
v 0.3 0.4 -0.4
v 0.4 -0.4 -0.4
v 0.4 -0.3 -0.4
v 0.4 -0.2 -0.4
v 0.4 0 -0.4
v 0.4 0.1 -0.4
v 0.4 0.2 -0.4
v 0.4 0.3 -0.4
v 0.4 0.4 -0.4
v -0.4 -0.4 0.4
v -0.3 -0.4 0.4
v -0.2 -0.4 0.4
v 0.1 -0.4 0.4
v 0.2 -0.4 0.4
v 0.3 -0.4 0.4
v 0.4 -0.4 0.4
v -0.4 -0.4 0.3
v -0.3 -0.4 0.3
v -0.2 -0.4 0.3
v 0.1 -0.4 0.3
v 0.2 -0.4 0.3
v 0.3 -0.4 0.3
v -0.4 -0.4 0.2
v -0.3 -0.4 0.2
v 0.3 -0.4 0.2
v 0.4 -0.4 0.2
v 0.3 -0.4 0.1
v 0.4 -0.4 0.1
v 0.3 -0.4 -0.2
v 0.4 -0.4 -0.2
v -0.2 -0.4 -0.3
v -0.1 -0.4 -0.3
v 0.3 -0.4 -0.3
v 0.4 -0.4 -0.3
v -0.4 -0.4 -0.4
v -0.3 -0.4 -0.4
v -0.2 -0.4 -0.4
v -0.1 -0.4 -0.4
v 0.4 -0.4 -0.4
v -0.4 0.4 0.4
v -0.3 0.4 0.4
v -0.2 0.4 0.4
v -0.1 0.4 0.4
v 0.4 0.4 0.4
v -0.4 0.4 0.3
v -0.3 0.4 0.3
v -0.2 0.4 0.3
v -0.1 0.4 0.3
v 0 0.4 0.3
v 0.1 0.4 0.3
v 0.2 0.4 0.3
v 0.4 0.4 0.3
v -0.4 0.4 0.2
v -0.3 0.4 0.2
v -0.2 0.4 0.2
v -0.1 0.4 0.2
v 0 0.4 0.2
v 0.1 0.4 0.2
v 0.2 0.4 0.2
v 0.3 0.4 0.2
v 0.4 0.4 0.2
v -0.4 0.4 0.1
v -0.3 0.4 0.1
v -0.1 0.4 0.1
v 0 0.4 0.1
v 0.1 0.4 0.1
v 0.2 0.4 0.1
v 0.3 0.4 0.1
v -0.4 0.4 0
v -0.3 0.4 0
v -0.2 0.4 0
v 0.1 0.4 0
v 0.2 0.4 0
v 0.3 0.4 0
v -0.4 0.4 -0.1
v -0.3 0.4 -0.1
v -0.1 0.4 -0.1
v 0 0.4 -0.1
v 0.1 0.4 -0.1
v 0.3 0.4 -0.1
v 0.4 0.4 -0.1
v -0.2 0.4 -0.2
v -0.1 0.4 -0.2
v 0 0.4 -0.2
v 0.1 0.4 -0.2
v 0.2 0.4 -0.2
v 0.3 0.4 -0.2
v 0.4 0.4 -0.2
v -0.4 0.4 -0.3
v -0.2 0.4 -0.3
v -0.1 0.4 -0.3
v 0 0.4 -0.3
v 0.3 0.4 -0.3
v 0.4 0.4 -0.3
v -0.4 0.4 -0.4
v -0.2 0.4 -0.4
v 0 0.4 -0.4
v 0.1 0.4 -0.4
v 0.2 0.4 -0.4
v 0.3 0.4 -0.4
v 0.4 0.4 -0.4

# faces
f 5/1/1 2/1/1 1/1/1
f 5/6/1 3/6/1 2/6/1
f 6/1/1 4/1/1 3/1/1
f 6/6/1 3/6/1 5/6/1
f 7/1/1 4/1/1 6/1/1
f 8/1/1 5/1/1 1/1/1
f 8/1/1 6/1/1 5/1/1
f 9/1/1 6/1/1 8/1/1
f 10/6/1 7/6/1 6/6/1
f 11/1/1 4/1/1 7/1/1
f 11/6/1 7/6/1 10/6/1
f 12/1/1 4/1/1 11/1/1
f 13/1/1 4/1/1 12/1/1
f 14/6/1 9/6/1 8/6/1
f 15/1/1 6/1/1 9/1/1
f 15/6/1 9/6/1 14/6/1
f 16/6/1 10/6/1 6/6/1
f 16/1/1 11/1/1 10/1/1
f 16/1/1 12/1/1 11/1/1
f 17/1/1 12/1/1 16/1/1
f 18/1/1 12/1/1 17/1/1
f 19/1/1 12/1/1 18/1/1
f 20/6/1 13/6/1 12/6/1
f 20/1/1 12/1/1 19/1/1
f 21/6/1 13/6/1 20/6/1
f 22/1/1 6/1/1 15/1/1
f 22/1/1 15/1/1 14/1/1
f 23/6/1 16/6/1 6/6/1
f 23/1/1 6/1/1 22/1/1
f 23/6/1 17/6/1 16/6/1
f 24/6/1 17/6/1 23/6/1
f 25/1/1 18/1/1 17/1/1
f 25/6/1 17/6/1 24/6/1
f 26/6/1 19/6/1 18/6/1
f 26/1/1 18/1/1 25/1/1
f 27/1/1 21/1/1 20/1/1
f 27/6/1 19/6/1 26/6/1
f 27/1/1 20/1/1 19/1/1
f 28/1/1 21/1/1 27/1/1
f 29/1/1 22/1/1 14/1/1
f 30/6/1 23/6/1 22/6/1
f 30/1/1 22/1/1 29/1/1
f 31/7/1 24/7/1 23/7/1
f 31/6/1 23/6/1 30/6/1
f 32/6/1 25/6/1 24/6/1
f 32/7/1 24/7/1 31/7/1
f 33/7/1 26/7/1 25/7/1
f 33/6/1 25/6/1 32/6/1
f 33/7/1 27/7/1 26/7/1
f 34/7/1 27/7/1 33/7/1
f 35/6/1 28/6/1 27/6/1
f 35/7/1 27/7/1 34/7/1
f 36/6/1 28/6/1 35/6/1
f 37/5/1 30/5/1 29/5/1
f 38/7/1 32/7/1 31/7/1
f 38/5/1 30/5/1 37/5/1
f 38/7/1 31/7/1 30/7/1
f 39/8/1 34/8/1 33/8/1
f 39/4/1 33/4/1 32/4/1
f 40/4/1 36/4/1 35/4/1
f 40/8/1 34/8/1 39/8/1
f 40/4/1 35/4/1 34/4/1
f 41/4/1 36/4/1 40/4/1
f 42/4/1 36/4/1 41/4/1
f 43/4/1 36/4/1 42/4/1
f 44/7/1 38/7/1 37/7/1
f 45/7/1 32/7/1 38/7/1
f 45/7/1 38/7/1 44/7/1
f 46/7/1 32/7/1 45/7/1
f 47/4/1 39/4/1 32/4/1
f 47/7/1 32/7/1 46/7/1
f 48/5/1 40/5/1 39/5/1
f 48/4/1 39/4/1 47/4/1
f 49/7/1 41/7/1 40/7/1
f 49/5/1 40/5/1 48/5/1
f 50/5/1 42/5/1 41/5/1
f 50/7/1 41/7/1 49/7/1
f 51/7/1 43/7/1 42/7/1
f 51/5/1 42/5/1 50/5/1
f 52/7/1 43/7/1 51/7/1
f 53/2/1 45/2/1 44/2/1
f 54/4/1 46/4/1 45/4/1
f 54/2/1 45/2/1 53/2/1
f 55/2/1 47/2/1 46/2/1
f 55/4/1 46/4/1 54/4/1
f 56/4/1 48/4/1 47/4/1
f 56/2/1 47/2/1 55/2/1
f 57/3/1 49/3/1 48/3/1
f 57/4/1 48/4/1 56/4/1
f 58/4/1 50/4/1 49/4/1
f 58/3/1 49/3/1 57/3/1
f 58/4/1 51/4/1 50/4/1
f 59/2/1 52/2/1 51/2/1
f 59/4/1 51/4/1 58/4/1
f 60/2/1 52/2/1 59/2/1
f 61/6/2 62/6/2 67/6/2
f 67/6/2 62/6/2 68/6/2
f 62/1/2 63/1/2 69/1/2
f 68/6/2 62/6/2 69/6/2
f 63/6/2 64/6/2 70/6/2
f 69/1/2 63/1/2 70/1/2
f 70/6/2 64/6/2 71/6/2
f 71/6/2 64/6/2 72/6/2
f 65/6/2 66/6/2 73/6/2
f 64/1/2 65/1/2 73/1/2
f 73/6/2 66/6/2 74/6/2
f 67/1/2 68/1/2 75/1/2
f 68/6/2 69/6/2 76/6/2
f 75/1/2 68/1/2 76/1/2
f 69/6/2 70/6/2 76/6/2
f 70/6/2 71/6/2 76/6/2
f 76/6/2 71/6/2 77/6/2
f 77/6/2 71/6/2 78/6/2
f 71/1/2 72/1/2 79/1/2
f 78/6/2 71/6/2 79/6/2
f 72/6/2 64/6/2 80/6/2
f 79/1/2 72/1/2 80/1/2
f 73/1/2 74/1/2 81/1/2
f 64/1/2 73/1/2 81/1/2
f 81/1/2 74/1/2 82/1/2
f 75/6/2 76/6/2 83/6/2
f 76/6/2 77/6/2 83/6/2
f 77/1/2 78/1/2 84/1/2
f 83/6/2 77/6/2 84/6/2
f 78/6/2 79/6/2 85/6/2
f 84/1/2 78/1/2 85/1/2
f 79/6/2 80/6/2 85/6/2
f 85/6/2 80/6/2 86/6/2
f 80/6/2 64/6/2 87/6/2
f 86/6/2 80/6/2 87/6/2
f 64/1/2 81/1/2 87/1/2
f 81/6/2 82/6/2 88/6/2
f 87/1/2 81/1/2 88/1/2
f 75/6/2 83/6/2 89/6/2
f 83/1/2 84/1/2 90/1/2
f 89/6/2 83/6/2 90/6/2
f 85/6/2 86/6/2 91/6/2
f 86/1/2 87/1/2 91/1/2
f 87/6/2 88/6/2 92/6/2
f 91/1/2 87/1/2 92/1/2
f 88/6/2 82/6/2 93/6/2
f 92/6/2 88/6/2 93/6/2
f 93/6/2 82/6/2 94/6/2
f 89/3/2 90/3/2 95/3/2
f 90/1/2 84/1/2 96/1/2
f 95/3/2 90/3/2 96/3/2
f 84/7/2 85/7/2 97/7/2
f 96/1/2 84/1/2 97/1/2
f 85/6/2 91/6/2 98/6/2
f 97/7/2 85/7/2 98/7/2
f 91/7/2 92/7/2 99/7/2
f 98/6/2 91/6/2 99/6/2
f 99/7/2 92/7/2 100/7/2
f 92/6/2 93/6/2 101/6/2
f 100/7/2 92/7/2 101/7/2
f 93/1/2 94/1/2 102/1/2
f 101/6/2 93/6/2 102/6/2
f 102/1/2 94/1/2 103/1/2
f 95/8/2 96/8/2 104/8/2
f 96/7/2 97/7/2 105/7/2
f 104/8/2 96/8/2 105/8/2
f 97/8/2 98/8/2 106/8/2
f 105/7/2 97/7/2 106/7/2
f 98/8/2 99/8/2 106/8/2
f 99/5/2 100/5/2 107/5/2
f 106/8/2 99/8/2 107/8/2
f 100/7/2 101/7/2 108/7/2
f 107/5/2 100/5/2 108/5/2
f 101/8/2 102/8/2 109/8/2
f 108/7/2 101/7/2 109/7/2
f 102/7/2 103/7/2 110/7/2
f 109/8/2 102/8/2 110/8/2
f 110/7/2 103/7/2 111/7/2
f 104/5/2 105/5/2 112/5/2
f 105/8/2 106/8/2 113/8/2
f 112/5/2 105/5/2 113/5/2
f 106/7/2 107/7/2 114/7/2
f 113/8/2 106/8/2 114/8/2
f 107/7/2 108/7/2 114/7/2
f 108/8/2 109/8/2 115/8/2
f 114/7/2 108/7/2 115/7/2
f 109/7/2 110/7/2 116/7/2
f 115/8/2 109/8/2 116/8/2
f 110/8/2 111/8/2 117/8/2
f 116/7/2 110/7/2 117/7/2
f 117/8/2 111/8/2 118/8/2
f 112/2/2 113/2/2 119/2/2
f 113/4/2 114/4/2 120/4/2
f 119/2/2 113/2/2 120/2/2
f 114/3/2 115/3/2 121/3/2
f 120/4/2 114/4/2 121/4/2
f 115/4/2 116/4/2 122/4/2
f 121/3/2 115/3/2 122/3/2
f 116/3/2 117/3/2 123/3/2
f 122/4/2 116/4/2 123/4/2
f 117/4/2 118/4/2 124/4/2
f 123/3/2 117/3/2 124/3/2
f 124/4/2 118/4/2 125/4/2
f 133/1/3 127/1/3 126/1/3
f 134/1/3 127/1/3 133/1/3
f 135/6/3 128/6/3 127/6/3
f 135/1/3 129/1/3 128/1/3
f 136/5/3 130/5/3 129/5/3
f 136/1/3 129/1/3 135/1/3
f 137/7/3 131/7/3 130/7/3
f 137/5/3 130/5/3 136/5/3
f 138/2/3 132/2/3 131/2/3
f 138/7/3 131/7/3 137/7/3
f 139/2/3 132/2/3 138/2/3
f 140/6/3 134/6/3 133/6/3
f 141/1/3 127/1/3 134/1/3
f 141/6/3 134/6/3 140/6/3
f 142/6/3 135/6/3 127/6/3
f 142/1/3 127/1/3 141/1/3
f 143/3/3 137/3/3 136/3/3
f 143/6/3 135/6/3 142/6/3
f 143/3/3 136/3/3 135/3/3
f 143/3/3 138/3/3 137/3/3
f 144/3/3 138/3/3 143/3/3
f 145/3/3 138/3/3 144/3/3
f 146/3/3 138/3/3 145/3/3
f 147/5/3 139/5/3 138/5/3
f 147/3/3 138/3/3 146/3/3
f 148/5/3 139/5/3 147/5/3
f 149/1/3 142/1/3 141/1/3
f 149/1/3 141/1/3 140/1/3
f 149/1/3 143/1/3 142/1/3
f 150/1/3 143/1/3 149/1/3
f 151/3/3 144/3/3 143/3/3
f 151/1/3 143/1/3 150/1/3
f 152/6/3 145/6/3 144/6/3
f 152/3/3 144/3/3 151/3/3
f 153/5/3 146/5/3 145/5/3
f 153/6/3 145/6/3 152/6/3
f 154/3/3 148/3/3 147/3/3
f 154/5/3 146/5/3 153/5/3
f 154/3/3 147/3/3 146/3/3
f 155/3/3 148/3/3 154/3/3
f 156/3/3 148/3/3 155/3/3
f 157/1/3 152/1/3 151/1/3
f 157/6/3 150/6/3 149/6/3
f 157/1/3 151/1/3 150/1/3
f 158/1/3 152/1/3 157/1/3
f 159/3/3 153/3/3 152/3/3
f 159/3/3 155/3/3 154/3/3
f 159/3/3 154/3/3 153/3/3
f 160/3/3 155/3/3 159/3/3
f 161/1/3 149/1/3 140/1/3
f 162/6/3 158/6/3 157/6/3
f 162/1/3 149/1/3 161/1/3
f 162/6/3 157/6/3 149/6/3
f 163/6/3 158/6/3 162/6/3
f 164/1/3 152/1/3 158/1/3
f 164/6/3 158/6/3 163/6/3
f 165/3/3 159/3/3 152/3/3
f 165/1/3 152/1/3 164/1/3
f 166/6/3 163/6/3 162/6/3
f 166/6/3 162/6/3 161/6/3
f 167/6/3 163/6/3 166/6/3
f 168/1/3 164/1/3 163/1/3
f 168/6/3 163/6/3 167/6/3
f 169/6/3 165/6/3 164/6/3
f 169/1/3 164/1/3 168/1/3
f 170/3/3 159/3/3 165/3/3
f 170/6/3 165/6/3 169/6/3
f 171/4/3 160/4/3 159/4/3
f 171/3/3 159/3/3 170/3/3
f 172/3/3 155/3/3 160/3/3
f 172/4/3 160/4/3 171/4/3
f 173/1/3 167/1/3 166/1/3
f 174/6/3 169/6/3 168/6/3
f 174/1/3 167/1/3 173/1/3
f 174/6/3 168/6/3 167/6/3
f 175/6/3 169/6/3 174/6/3
f 176/1/3 170/1/3 169/1/3
f 176/6/3 169/6/3 175/6/3
f 177/4/3 171/4/3 170/4/3
f 177/1/3 170/1/3 176/1/3
f 178/3/3 172/3/3 171/3/3
f 178/4/3 171/4/3 177/4/3
f 179/3/3 155/3/3 172/3/3
f 179/3/3 172/3/3 178/3/3
f 180/2/3 156/2/3 155/2/3
f 180/3/3 155/3/3 179/3/3
f 181/6/3 174/6/3 173/6/3
f 182/1/3 175/1/3 174/1/3
f 182/6/3 174/6/3 181/6/3
f 183/6/3 176/6/3 175/6/3
f 183/1/3 175/1/3 182/1/3
f 183/6/3 177/6/3 176/6/3
f 184/3/3 178/3/3 177/3/3
f 184/6/3 177/6/3 183/6/3
f 185/8/3 179/8/3 178/8/3
f 185/3/3 178/3/3 184/3/3
f 186/5/3 180/5/3 179/5/3
f 186/8/3 179/8/3 185/8/3
f 187/2/3 156/2/3 180/2/3
f 187/5/3 180/5/3 186/5/3
f 188/2/3 156/2/3 187/2/3
f 189/1/4 190/1/4 197/1/4
f 197/1/4 190/1/4 198/1/4
f 190/6/4 191/6/4 199/6/4
f 191/1/4 192/1/4 199/1/4
f 192/6/4 193/6/4 200/6/4
f 199/1/4 192/1/4 200/1/4
f 193/4/4 194/4/4 201/4/4
f 200/6/4 193/6/4 201/6/4
f 194/7/4 195/7/4 202/7/4
f 201/4/4 194/4/4 202/4/4
f 195/2/4 196/2/4 203/2/4
f 202/7/4 195/7/4 203/7/4
f 197/6/4 198/6/4 204/6/4
f 198/1/4 190/1/4 205/1/4
f 204/6/4 198/6/4 205/6/4
f 190/6/4 199/6/4 206/6/4
f 205/1/4 190/1/4 206/1/4
f 199/6/4 200/6/4 206/6/4
f 206/6/4 200/6/4 207/6/4
f 200/1/4 201/1/4 208/1/4
f 207/6/4 200/6/4 208/6/4
f 201/5/4 202/5/4 209/5/4
f 208/1/4 201/1/4 209/1/4
f 202/8/4 203/8/4 210/8/4
f 209/5/4 202/5/4 210/5/4
f 203/2/4 196/2/4 211/2/4
f 210/8/4 203/8/4 211/8/4
f 211/2/4 196/2/4 212/2/4
f 204/1/4 205/1/4 213/1/4
f 206/6/4 207/6/4 214/6/4
f 213/1/4 205/1/4 214/1/4
f 205/6/4 206/6/4 214/6/4
f 214/6/4 207/6/4 215/6/4
f 207/1/4 208/1/4 216/1/4
f 208/7/4 209/7/4 216/7/4
f 209/8/4 210/8/4 217/8/4
f 216/7/4 209/7/4 217/7/4
f 210/8/4 211/8/4 217/8/4
f 211/4/4 212/4/4 218/4/4
f 217/8/4 211/8/4 218/8/4
f 215/6/4 207/6/4 219/6/4
f 214/1/4 215/1/4 219/1/4
f 207/1/4 216/1/4 220/1/4
f 219/6/4 207/6/4 220/6/4
f 216/6/4 217/6/4 221/6/4
f 220/1/4 216/1/4 221/1/4
f 217/5/4 218/5/4 222/5/4
f 221/6/4 217/6/4 222/6/4
f 222/5/4 218/5/4 223/5/4
f 218/4/4 212/4/4 224/4/4
f 223/5/4 218/5/4 224/5/4
f 224/4/4 212/4/4 225/4/4
f 220/1/4 221/1/4 226/1/4
f 219/1/4 220/1/4 226/1/4
f 222/7/4 223/7/4 227/7/4
f 226/1/4 221/1/4 227/1/4
f 221/7/4 222/7/4 227/7/4
f 227/7/4 223/7/4 228/7/4
f 223/8/4 224/8/4 229/8/4
f 228/7/4 223/7/4 229/7/4
f 224/2/4 225/2/4 230/2/4
f 229/8/4 224/8/4 230/8/4
f 230/2/4 225/2/4 231/2/4
f 219/1/4 226/1/4 232/1/4
f 226/6/4 227/6/4 232/6/4
f 227/7/4 228/7/4 233/7/4
f 232/6/4 227/6/4 233/6/4
f 228/8/4 229/8/4 234/8/4
f 233/7/4 228/7/4 234/7/4
f 229/5/4 230/5/4 235/5/4
f 234/8/4 229/8/4 235/8/4
f 230/4/4 231/4/4 236/4/4
f 235/5/4 230/5/4 236/5/4
f 236/4/4 231/4/4 237/4/4
f 214/1/4 219/1/4 238/1/4
f 219/1/4 232/1/4 238/1/4
f 232/7/4 233/7/4 239/7/4
f 238/1/4 232/1/4 239/1/4
f 233/6/4 234/6/4 240/6/4
f 239/7/4 233/7/4 240/7/4
f 234/5/4 235/5/4 241/5/4
f 240/6/4 234/6/4 241/6/4
f 235/8/4 236/8/4 242/8/4
f 241/5/4 235/5/4 242/5/4
f 236/2/4 237/2/4 243/2/4
f 242/8/4 236/8/4 243/8/4
f 243/2/4 237/2/4 244/2/4
f 213/6/4 214/6/4 245/6/4
f 214/1/4 238/1/4 246/1/4
f 245/6/4 214/6/4 246/6/4
f 239/6/4 240/6/4 247/6/4
f 246/1/4 238/1/4 247/1/4
f 238/6/4 239/6/4 247/6/4
f 240/1/4 241/1/4 248/1/4
f 247/6/4 240/6/4 248/6/4
f 241/7/4 242/7/4 249/7/4
f 248/1/4 241/1/4 249/1/4
f 242/8/4 243/8/4 250/8/4
f 249/7/4 242/7/4 250/7/4
f 243/4/4 244/4/4 251/4/4
f 250/8/4 243/8/4 251/8/4
f 251/4/4 244/4/4 252/4/4
f 260/1/5 254/1/5 253/1/5
f 261/6/5 255/6/5 254/6/5
f 261/1/5 254/1/5 260/1/5
f 262/1/5 256/1/5 255/1/5
f 262/6/5 255/6/5 261/6/5
f 263/6/5 257/6/5 256/6/5
f 263/1/5 256/1/5 262/1/5
f 264/1/5 258/1/5 257/1/5
f 264/6/5 257/6/5 263/6/5
f 265/6/5 259/6/5 258/6/5
f 265/1/5 258/1/5 264/1/5
f 266/6/5 264/6/5 263/6/5
f 266/6/5 261/6/5 260/6/5
f 266/6/5 265/6/5 264/6/5
f 266/6/5 263/6/5 262/6/5
f 266/6/5 262/6/5 261/6/5
f 267/6/5 265/6/5 266/6/5
f 268/6/5 259/6/5 265/6/5
f 268/6/5 265/6/5 267/6/5
f 269/6/5 259/6/5 268/6/5
f 270/6/5 268/6/5 267/6/5
f 270/1/5 269/1/5 268/1/5
f 271/1/5 269/1/5 270/1/5
f 272/6/5 270/6/5 267/6/5
f 272/6/5 271/6/5 270/6/5
f 273/6/5 271/6/5 272/6/5
f 274/6/5 272/6/5 267/6/5
f 275/6/5 272/6/5 274/6/5
f 276/1/5 273/1/5 272/1/5
f 276/6/5 272/6/5 275/6/5
f 277/1/5 273/1/5 276/1/5
f 278/1/5 267/1/5 266/1/5
f 279/6/5 274/6/5 267/6/5
f 279/1/5 267/1/5 278/1/5
f 280/1/5 275/1/5 274/1/5
f 280/6/5 274/6/5 279/6/5
f 281/6/5 276/6/5 275/6/5
f 281/1/5 275/1/5 280/1/5
f 281/6/5 277/6/5 276/6/5
f 282/6/5 277/6/5 281/6/5
f 283/2/6 284/2/6 288/2/6
f 284/5/6 285/5/6 289/5/6
f 288/2/6 284/2/6 289/2/6
f 285/3/6 286/3/6 290/3/6
f 289/5/6 285/5/6 290/5/6
f 286/2/6 287/2/6 291/2/6
f 290/3/6 286/3/6 291/3/6
f 291/2/6 287/2/6 292/2/6
f 292/2/6 287/2/6 293/2/6
f 293/2/6 287/2/6 294/2/6
f 294/2/6 287/2/6 295/2/6
f 288/4/6 289/4/6 296/4/6
f 289/5/6 290/5/6 297/5/6
f 296/4/6 289/4/6 297/4/6
f 290/2/6 291/2/6 298/2/6
f 297/5/6 290/5/6 298/5/6
f 291/4/6 292/4/6 299/4/6
f 298/2/6 291/2/6 299/2/6
f 292/3/6 293/3/6 300/3/6
f 299/4/6 292/4/6 300/4/6
f 293/2/6 294/2/6 301/2/6
f 300/3/6 293/3/6 301/3/6
f 294/4/6 295/4/6 302/4/6
f 301/2/6 294/2/6 302/2/6
f 302/4/6 295/4/6 303/4/6
f 303/4/6 295/4/6 304/4/6
f 296/2/6 297/2/6 305/2/6
f 297/3/6 298/3/6 306/3/6
f 305/2/6 297/2/6 306/2/6
f 298/4/6 299/4/6 307/4/6
f 299/5/6 300/5/6 307/5/6
f 300/4/6 301/4/6 308/4/6
f 307/5/6 300/5/6 308/5/6
f 301/5/6 302/5/6 309/5/6
f 308/4/6 301/4/6 309/4/6
f 302/2/6 303/2/6 310/2/6
f 309/5/6 302/5/6 310/5/6
f 303/3/6 304/3/6 311/3/6
f 310/2/6 303/2/6 311/2/6
f 305/4/6 306/4/6 312/4/6
f 306/3/6 298/3/6 313/3/6
f 312/4/6 306/4/6 313/4/6
f 298/4/6 307/4/6 314/4/6
f 313/3/6 298/3/6 314/3/6
f 308/4/6 309/4/6 315/4/6
f 309/3/6 310/3/6 315/3/6
f 310/4/6 311/4/6 316/4/6
f 315/3/6 310/3/6 316/3/6
f 311/3/6 304/3/6 317/3/6
f 316/4/6 311/4/6 317/4/6
f 312/3/6 313/3/6 318/3/6
f 313/4/6 314/4/6 319/4/6
f 318/3/6 313/3/6 319/3/6
f 307/3/6 308/3/6 320/3/6
f 319/4/6 314/4/6 320/4/6
f 314/4/6 307/4/6 320/4/6
f 315/4/6 316/4/6 321/4/6
f 320/3/6 308/3/6 321/3/6
f 308/4/6 315/4/6 321/4/6
f 321/4/6 316/4/6 322/4/6
f 317/3/6 304/3/6 323/3/6
f 316/5/6 317/5/6 323/5/6
f 323/3/6 304/3/6 324/3/6
f 319/4/6 320/4/6 325/4/6
f 318/4/6 319/4/6 325/4/6
f 320/4/6 321/4/6 325/4/6
f 325/4/6 321/4/6 326/4/6
f 321/3/6 322/3/6 327/3/6
f 326/4/6 321/4/6 327/4/6
f 322/4/6 316/4/6 328/4/6
f 327/3/6 322/3/6 328/3/6
f 316/5/6 323/5/6 329/5/6
f 328/4/6 316/4/6 329/4/6
f 323/4/6 324/4/6 330/4/6
f 329/5/6 323/5/6 330/5/6
f 330/4/6 324/4/6 331/4/6
f 318/4/6 325/4/6 332/4/6
f 325/2/6 326/2/6 333/2/6
f 332/4/6 325/4/6 333/4/6
f 326/3/6 327/3/6 334/3/6
f 333/2/6 326/2/6 334/2/6
f 327/2/6 328/2/6 335/2/6
f 334/3/6 327/3/6 335/3/6
f 329/2/6 330/2/6 336/2/6
f 330/3/6 331/3/6 336/3/6
f 336/3/6 331/3/6 337/3/6
f 332/2/6 333/2/6 338/2/6
f 333/4/6 334/4/6 339/4/6
f 338/2/6 333/2/6 339/2/6
f 334/4/6 335/4/6 339/4/6
f 335/2/6 328/2/6 340/2/6
f 339/4/6 335/4/6 340/4/6
f 328/4/6 329/4/6 341/4/6
f 340/2/6 328/2/6 341/2/6
f 329/2/6 336/2/6 342/2/6
f 341/4/6 329/4/6 342/4/6
f 336/4/6 337/4/6 343/4/6
f 342/2/6 336/2/6 343/2/6
f 343/4/6 337/4/6 344/4/6
