# MagicaVoxel @ Ephtracy

# group
o 

# material
mtllib Enemy1.mtl
usemtl palette

# normals
vn -1 0 0
vn 1 0 0
vn 0 0 1
vn 0 0 -1
vn 0 -1 0
vn 0 1 0

# texcoords
vt 0.0292969 0.5
vt 0.0488281 0.5
vt 0.0605469 0.5
vt 0.0644531 0.5
vt 0.0917969 0.5
vt 0.111328 0.5
vt 0.166016 0.5
vt 0.248047 0.5
vt 0.306641 0.5

# verts
v -0.3 -0.4 0.1
v -0.3 -0.4 -0.1
v -0.3 -0.3 0.1
v -0.3 -0.3 -0.1
v -0.3 0.1 0.1
v -0.3 0.1 -0.1
v -0.3 0.4 0
v -0.3 0.4 -0.1
v -0.3 0.5 0
v -0.3 0.5 -0.1
v -0.3 0.6 0.2
v -0.3 0.6 -0.2
v -0.3 0.7 0.2
v -0.3 0.7 -0.2
v -0.2 -0.8 0.1
v -0.2 -0.8 -0.1
v -0.2 -0.7 0.1
v -0.2 -0.7 -0.1
v -0.2 -0.4 0.1
v -0.2 -0.4 -0.1
v -0.2 -0.3 0.2
v -0.2 -0.3 0.1
v -0.2 -0.3 -0.1
v -0.2 -0.3 -0.2
v -0.2 -0.2 0.2
v -0.2 -0.2 0.1
v -0.2 -0.1 0.2
v -0.2 -0.1 0.1
v -0.2 0.1 0.2
v -0.2 0.1 0.1
v -0.2 0.1 -0.1
v -0.2 0.1 -0.2
v -0.2 0.2 0.2
v -0.2 0.2 0.1
v -0.2 0.2 0
v -0.2 0.2 -0.2
v -0.2 0.3 0.2
v -0.2 0.3 0.1
v -0.2 0.4 0.2
v -0.2 0.4 0.1
v -0.2 0.4 0
v -0.2 0.4 -0.1
v -0.2 0.5 0.2
v -0.2 0.5 0.1
v -0.2 0.5 0
v -0.2 0.5 -0.1
v -0.2 0.6 0.3
v -0.2 0.6 0.2
v -0.2 0.6 -0.2
v -0.2 0.6 -0.3
v -0.2 0.7 0.3
v -0.2 0.7 0.2
v -0.2 0.7 -0.2
v -0.2 0.7 -0.3
v -0.2 0.8 0.2
v -0.2 0.8 -0.2
v -0.1 0.1 0.1
v -0.1 0.1 -0.1
v -0.1 0.2 0.1
v -0.1 0.2 0
v -0.1 0.2 -0.1
v 0.1 -0.8 0.1
v 0.1 -0.8 -0.1
v 0.1 -0.7 0.1
v 0.1 -0.7 -0.1
v 0.1 -0.3 0.1
v 0.1 -0.3 -0.1
v -0.1 -0.8 0.1
v -0.1 -0.8 -0.1
v -0.1 -0.7 0.1
v -0.1 -0.7 -0.1
v -0.1 -0.3 0.1
v -0.1 -0.3 -0.1
v 0.1 0.1 0.1
v 0.1 0.1 -0.1
v 0.1 0.2 0.1
v 0.1 0.2 0
v 0.1 0.2 -0.1
v 0.2 -0.8 0.1
v 0.2 -0.8 -0.1
v 0.2 -0.7 0.1
v 0.2 -0.7 -0.1
v 0.2 -0.4 0.1
v 0.2 -0.4 -0.1
v 0.2 -0.3 0.2
v 0.2 -0.3 0.1
v 0.2 -0.3 -0.1
v 0.2 -0.3 -0.2
v 0.2 -0.2 0.2
v 0.2 -0.2 0.1
v 0.2 -0.1 0.2
v 0.2 -0.1 0.1
v 0.2 0.1 0.2
v 0.2 0.1 0.1
v 0.2 0.1 -0.1
v 0.2 0.1 -0.2
v 0.2 0.2 0.2
v 0.2 0.2 0.1
v 0.2 0.2 0
v 0.2 0.2 -0.2
v 0.2 0.3 0.2
v 0.2 0.3 0.1
v 0.2 0.4 0.2
v 0.2 0.4 0.1
v 0.2 0.4 0
v 0.2 0.4 -0.1
v 0.2 0.5 0.2
v 0.2 0.5 0.1
v 0.2 0.5 0
v 0.2 0.5 -0.1
v 0.2 0.6 0.3
v 0.2 0.6 0.2
v 0.2 0.6 -0.2
v 0.2 0.6 -0.3
v 0.2 0.7 0.3
v 0.2 0.7 0.2
v 0.2 0.7 -0.2
v 0.2 0.7 -0.3
v 0.2 0.8 0.2
v 0.2 0.8 -0.2
v 0.3 -0.4 0.1
v 0.3 -0.4 -0.1
v 0.3 -0.3 0.1
v 0.3 -0.3 -0.1
v 0.3 0.1 0.1
v 0.3 0.1 -0.1
v 0.3 0.4 0
v 0.3 0.4 -0.1
v 0.3 0.5 0
v 0.3 0.5 -0.1
v 0.3 0.6 0.2
v 0.3 0.6 -0.2
v 0.3 0.7 0.2
v 0.3 0.7 -0.2
v -0.2 0.6 0.3
v -0.2 0.7 0.3
v 0.2 0.6 0.3
v 0.2 0.7 0.3
v -0.3 0.6 0.2
v -0.3 0.7 0.2
v -0.2 -0.3 0.2
v -0.2 -0.2 0.2
v -0.2 -0.1 0.2
v -0.2 0.1 0.2
v -0.2 0.2 0.2
v -0.2 0.3 0.2
v -0.2 0.4 0.2
v -0.2 0.5 0.2
v -0.2 0.6 0.2
v -0.2 0.7 0.2
v -0.2 0.8 0.2
v -0.1 -0.2 0.2
v -0.1 -0.1 0.2
v -0.1 0.1 0.2
v -0.1 0.4 0.2
v -0.1 0.5 0.2
v 0.1 -0.2 0.2
v 0.1 -0.1 0.2
v 0.1 0.1 0.2
v 0.1 0.4 0.2
v 0.1 0.5 0.2
v 0.2 -0.3 0.2
v 0.2 -0.2 0.2
v 0.2 -0.1 0.2
v 0.2 0.1 0.2
v 0.2 0.2 0.2
v 0.2 0.3 0.2
v 0.2 0.4 0.2
v 0.2 0.5 0.2
v 0.2 0.6 0.2
v 0.2 0.7 0.2
v 0.2 0.8 0.2
v 0.3 0.6 0.2
v 0.3 0.7 0.2
v -0.3 -0.4 0.1
v -0.3 -0.3 0.1
v -0.3 0.1 0.1
v -0.2 -0.8 0.1
v -0.2 -0.7 0.1
v -0.2 -0.4 0.1
v -0.2 -0.3 0.1
v -0.2 -0.2 0.1
v -0.2 -0.1 0.1
v -0.2 0.1 0.1
v -0.1 -0.8 0.1
v -0.1 -0.7 0.1
v -0.1 -0.3 0.1
v -0.1 0.1 0.1
v -0.1 0.2 0.1
v 0.1 -0.8 0.1
v 0.1 -0.7 0.1
v 0.1 -0.3 0.1
v 0.1 0.1 0.1
v 0.1 0.2 0.1
v 0.2 -0.8 0.1
v 0.2 -0.7 0.1
v 0.2 -0.4 0.1
v 0.2 -0.3 0.1
v 0.2 -0.2 0.1
v 0.2 -0.1 0.1
v 0.2 0.1 0.1
v 0.3 -0.4 0.1
v 0.3 -0.3 0.1
v 0.3 0.1 0.1
v -0.3 0.4 0
v -0.3 0.5 0
v -0.2 0.4 0
v -0.2 0.5 0
v 0.2 0.4 0
v 0.2 0.5 0
v 0.3 0.4 0
v 0.3 0.5 0
v -0.3 -0.4 -0.1
v -0.3 -0.3 -0.1
v -0.3 0.1 -0.1
v -0.3 0.4 -0.1
v -0.3 0.5 -0.1
v -0.2 -0.8 -0.1
v -0.2 -0.7 -0.1
v -0.2 -0.4 -0.1
v -0.2 -0.3 -0.1
v -0.2 0.1 -0.1
v -0.2 0.4 -0.1
v -0.2 0.5 -0.1
v -0.1 -0.8 -0.1
v -0.1 -0.7 -0.1
v -0.1 -0.3 -0.1
v -0.1 0.1 -0.1
v -0.1 0.2 -0.1
v 0.1 -0.8 -0.1
v 0.1 -0.7 -0.1
v 0.1 -0.3 -0.1
v 0.1 0.1 -0.1
v 0.1 0.2 -0.1
v 0.2 -0.8 -0.1
v 0.2 -0.7 -0.1
v 0.2 -0.4 -0.1
v 0.2 -0.3 -0.1
v 0.2 0.1 -0.1
v 0.2 0.4 -0.1
v 0.2 0.5 -0.1
v 0.3 -0.4 -0.1
v 0.3 -0.3 -0.1
v 0.3 0.1 -0.1
v 0.3 0.4 -0.1
v 0.3 0.5 -0.1
v -0.3 0.6 -0.2
v -0.3 0.7 -0.2
v -0.2 -0.3 -0.2
v -0.2 0.1 -0.2
v -0.2 0.2 -0.2
v -0.2 0.6 -0.2
v -0.2 0.7 -0.2
v -0.2 0.8 -0.2
v -0.1 -0.1 -0.2
v -0.1 0.1 -0.2
v 0.1 -0.1 -0.2
v 0.1 0.1 -0.2
v 0.2 -0.3 -0.2
v 0.2 0.1 -0.2
v 0.2 0.2 -0.2
v 0.2 0.6 -0.2
v 0.2 0.7 -0.2
v 0.2 0.8 -0.2
v 0.3 0.6 -0.2
v 0.3 0.7 -0.2
v -0.2 0.6 -0.3
v -0.2 0.7 -0.3
v 0.2 0.6 -0.3
v 0.2 0.7 -0.3
v -0.2 -0.8 0.1
v -0.1 -0.8 0.1
v 0.1 -0.8 0.1
v 0.2 -0.8 0.1
v -0.2 -0.8 -0.1
v -0.1 -0.8 -0.1
v 0.1 -0.8 -0.1
v 0.2 -0.8 -0.1
v -0.3 -0.4 0.1
v -0.2 -0.4 0.1
v 0.2 -0.4 0.1
v 0.3 -0.4 0.1
v -0.3 -0.4 -0.1
v -0.2 -0.4 -0.1
v 0.2 -0.4 -0.1
v 0.3 -0.4 -0.1
v -0.2 -0.3 0.2
v 0.2 -0.3 0.2
v -0.2 -0.3 0.1
v -0.1 -0.3 0.1
v 0.1 -0.3 0.1
v 0.2 -0.3 0.1
v -0.2 -0.3 -0.1
v -0.1 -0.3 -0.1
v 0.1 -0.3 -0.1
v 0.2 -0.3 -0.1
v -0.2 -0.3 -0.2
v 0.2 -0.3 -0.2
v -0.2 0.2 0.2
v 0.2 0.2 0.2
v -0.2 0.2 0.1
v -0.1 0.2 0.1
v 0.1 0.2 0.1
v 0.2 0.2 0.1
v -0.2 0.2 0
v -0.1 0.2 0
v 0.1 0.2 0
v 0.2 0.2 0
v -0.1 0.2 -0.1
v 0.1 0.2 -0.1
v -0.2 0.2 -0.2
v 0.2 0.2 -0.2
v -0.3 0.4 0
v -0.2 0.4 0
v 0.2 0.4 0
v 0.3 0.4 0
v -0.3 0.4 -0.1
v -0.2 0.4 -0.1
v 0.2 0.4 -0.1
v 0.3 0.4 -0.1
v -0.2 0.6 0.3
v 0.2 0.6 0.3
v -0.3 0.6 0.2
v -0.2 0.6 0.2
v 0.2 0.6 0.2
v 0.3 0.6 0.2
v -0.3 0.6 -0.2
v -0.2 0.6 -0.2
v 0.2 0.6 -0.2
v 0.3 0.6 -0.2
v -0.2 0.6 -0.3
v 0.2 0.6 -0.3
v -0.2 0.1 0.2
v -0.1 0.1 0.2
v 0.1 0.1 0.2
v 0.2 0.1 0.2
v -0.3 0.1 0.1
v -0.2 0.1 0.1
v -0.1 0.1 0.1
v 0.1 0.1 0.1
v 0.2 0.1 0.1
v 0.3 0.1 0.1
v -0.3 0.1 -0.1
v -0.2 0.1 -0.1
v -0.1 0.1 -0.1
v 0.1 0.1 -0.1
v 0.2 0.1 -0.1
v 0.3 0.1 -0.1
v -0.2 0.1 -0.2
v -0.1 0.1 -0.2
v 0.1 0.1 -0.2
v 0.2 0.1 -0.2
v -0.3 0.5 0
v -0.2 0.5 0
v 0.2 0.5 0
v 0.3 0.5 0
v -0.3 0.5 -0.1
v -0.2 0.5 -0.1
v 0.2 0.5 -0.1
v 0.3 0.5 -0.1
v -0.2 0.7 0.3
v 0.2 0.7 0.3
v -0.3 0.7 0.2
v -0.2 0.7 0.2
v 0.2 0.7 0.2
v 0.3 0.7 0.2
v -0.3 0.7 -0.2
v -0.2 0.7 -0.2
v 0.2 0.7 -0.2
v 0.3 0.7 -0.2
v -0.2 0.7 -0.3
v 0.2 0.7 -0.3
v -0.2 0.8 0.2
v 0.2 0.8 0.2
v -0.2 0.8 -0.2
v 0.2 0.8 -0.2

# faces
f 3/3/1 2/3/1 1/3/1
f 4/3/1 2/3/1 3/3/1
f 5/2/1 4/2/1 3/2/1
f 6/2/1 4/2/1 5/2/1
f 9/3/1 8/3/1 7/3/1
f 10/3/1 8/3/1 9/3/1
f 13/8/1 12/8/1 11/8/1
f 14/8/1 12/8/1 13/8/1
f 17/5/1 16/5/1 15/5/1
f 18/5/1 16/5/1 17/5/1
f 19/2/1 18/2/1 17/2/1
f 20/2/1 18/2/1 19/2/1
f 25/2/1 22/2/1 21/2/1
f 26/2/1 22/2/1 25/2/1
f 27/7/1 26/7/1 25/7/1
f 28/7/1 26/7/1 27/7/1
f 29/2/1 28/2/1 27/2/1
f 30/2/1 28/2/1 29/2/1
f 31/2/1 24/2/1 23/2/1
f 32/2/1 24/2/1 31/2/1
f 37/6/1 34/6/1 33/6/1
f 38/3/1 35/3/1 34/3/1
f 38/6/1 34/6/1 37/6/1
f 39/3/1 38/3/1 37/3/1
f 40/3/1 35/3/1 38/3/1
f 40/3/1 38/3/1 39/3/1
f 41/6/1 36/6/1 35/6/1
f 41/3/1 35/3/1 40/3/1
f 42/6/1 36/6/1 41/6/1
f 43/4/1 40/4/1 39/4/1
f 44/3/1 41/3/1 40/3/1
f 44/4/1 40/4/1 43/4/1
f 45/3/1 41/3/1 44/3/1
f 46/6/1 36/6/1 42/6/1
f 48/6/1 45/6/1 44/6/1
f 48/6/1 46/6/1 45/6/1
f 48/6/1 44/6/1 43/6/1
f 49/6/1 36/6/1 46/6/1
f 49/6/1 46/6/1 48/6/1
f 51/8/1 48/8/1 47/8/1
f 52/8/1 48/8/1 51/8/1
f 53/8/1 50/8/1 49/8/1
f 54/8/1 50/8/1 53/8/1
f 55/8/1 53/8/1 52/8/1
f 56/8/1 53/8/1 55/8/1
f 59/3/1 58/3/1 57/3/1
f 60/3/1 58/3/1 59/3/1
f 61/3/1 58/3/1 60/3/1
f 64/5/1 63/5/1 62/5/1
f 65/5/1 63/5/1 64/5/1
f 66/2/1 65/2/1 64/2/1
f 67/2/1 65/2/1 66/2/1
f 68/5/2 69/5/2 70/5/2
f 70/5/2 69/5/2 71/5/2
f 70/2/2 71/2/2 72/2/2
f 72/2/2 71/2/2 73/2/2
f 74/3/2 75/3/2 76/3/2
f 76/3/2 75/3/2 77/3/2
f 77/3/2 75/3/2 78/3/2
f 79/5/2 80/5/2 81/5/2
f 81/5/2 80/5/2 82/5/2
f 81/2/2 82/2/2 83/2/2
f 83/2/2 82/2/2 84/2/2
f 85/2/2 86/2/2 89/2/2
f 89/2/2 86/2/2 90/2/2
f 89/7/2 90/7/2 91/7/2
f 91/7/2 90/7/2 92/7/2
f 91/2/2 92/2/2 93/2/2
f 93/2/2 92/2/2 94/2/2
f 87/2/2 88/2/2 95/2/2
f 95/2/2 88/2/2 96/2/2
f 97/6/2 98/6/2 101/6/2
f 98/3/2 99/3/2 102/3/2
f 101/6/2 98/6/2 102/6/2
f 101/3/2 102/3/2 103/3/2
f 102/3/2 99/3/2 104/3/2
f 103/3/2 102/3/2 104/3/2
f 99/6/2 100/6/2 105/6/2
f 104/3/2 99/3/2 105/3/2
f 105/6/2 100/6/2 106/6/2
f 103/4/2 104/4/2 107/4/2
f 104/3/2 105/3/2 108/3/2
f 107/4/2 104/4/2 108/4/2
f 108/3/2 105/3/2 109/3/2
f 106/6/2 100/6/2 110/6/2
f 108/6/2 109/6/2 112/6/2
f 109/6/2 110/6/2 112/6/2
f 107/6/2 108/6/2 112/6/2
f 110/6/2 100/6/2 113/6/2
f 112/6/2 110/6/2 113/6/2
f 111/8/2 112/8/2 115/8/2
f 115/8/2 112/8/2 116/8/2
f 113/8/2 114/8/2 117/8/2
f 117/8/2 114/8/2 118/8/2
f 116/8/2 117/8/2 119/8/2
f 119/8/2 117/8/2 120/8/2
f 121/3/2 122/3/2 123/3/2
f 123/3/2 122/3/2 124/3/2
f 123/2/2 124/2/2 125/2/2
f 125/2/2 124/2/2 126/2/2
f 127/3/2 128/3/2 129/3/2
f 129/3/2 128/3/2 130/3/2
f 131/8/2 132/8/2 133/8/2
f 133/8/2 132/8/2 134/8/2
f 137/8/3 136/8/3 135/8/3
f 138/8/3 136/8/3 137/8/3
f 149/8/3 140/8/3 139/8/3
f 150/8/3 140/8/3 149/8/3
f 152/2/3 142/2/3 141/2/3
f 152/7/3 143/7/3 142/7/3
f 153/2/3 144/2/3 143/2/3
f 153/7/3 143/7/3 152/7/3
f 154/2/3 144/2/3 153/2/3
f 155/4/3 148/4/3 147/4/3
f 155/3/3 147/3/3 146/3/3
f 156/6/3 149/6/3 148/6/3
f 156/4/3 148/4/3 155/4/3
f 157/2/3 152/2/3 141/2/3
f 157/2/3 153/2/3 152/2/3
f 158/8/3 154/8/3 153/8/3
f 158/2/3 153/2/3 157/2/3
f 159/8/3 154/8/3 158/8/3
f 160/3/3 155/3/3 146/3/3
f 160/3/3 156/3/3 155/3/3
f 161/6/3 149/6/3 156/6/3
f 161/3/3 156/3/3 160/3/3
f 162/2/3 157/2/3 141/2/3
f 163/7/3 158/7/3 157/7/3
f 163/2/3 157/2/3 162/2/3
f 164/2/3 159/2/3 158/2/3
f 164/7/3 158/7/3 163/7/3
f 165/2/3 159/2/3 164/2/3
f 166/6/3 146/6/3 145/6/3
f 167/3/3 160/3/3 146/3/3
f 167/6/3 146/6/3 166/6/3
f 168/4/3 161/4/3 160/4/3
f 168/3/3 160/3/3 167/3/3
f 169/6/3 149/6/3 161/6/3
f 169/4/3 161/4/3 168/4/3
f 170/6/3 149/6/3 169/6/3
f 171/8/3 151/8/3 150/8/3
f 172/8/3 151/8/3 171/8/3
f 173/8/3 171/8/3 170/8/3
f 174/8/3 171/8/3 173/8/3
f 180/3/3 176/3/3 175/3/3
f 181/2/3 177/2/3 176/2/3
f 181/3/3 176/3/3 180/3/3
f 182/2/3 177/2/3 181/2/3
f 183/2/3 177/2/3 182/2/3
f 184/2/3 177/2/3 183/2/3
f 185/5/3 179/5/3 178/5/3
f 186/2/3 180/2/3 179/2/3
f 186/5/3 179/5/3 185/5/3
f 186/2/3 181/2/3 180/2/3
f 187/2/3 181/2/3 186/2/3
f 193/3/3 189/3/3 188/3/3
f 194/3/3 189/3/3 193/3/3
f 195/5/3 191/5/3 190/5/3
f 196/2/3 192/2/3 191/2/3
f 196/5/3 191/5/3 195/5/3
f 197/2/3 192/2/3 196/2/3
f 198/2/3 192/2/3 197/2/3
f 202/3/3 198/3/3 197/3/3
f 203/2/3 201/2/3 200/2/3
f 203/3/3 198/3/3 202/3/3
f 203/2/3 200/2/3 199/2/3
f 203/2/3 199/2/3 198/2/3
f 204/2/3 201/2/3 203/2/3
f 207/3/3 206/3/3 205/3/3
f 208/3/3 206/3/3 207/3/3
f 211/3/3 210/3/3 209/3/3
f 212/3/3 210/3/3 211/3/3
f 213/3/4 214/3/4 220/3/4
f 214/2/4 215/2/4 221/2/4
f 220/3/4 214/3/4 221/3/4
f 221/2/4 215/2/4 222/2/4
f 216/3/4 217/3/4 223/3/4
f 223/3/4 217/3/4 224/3/4
f 218/5/4 219/5/4 225/5/4
f 219/2/4 220/2/4 226/2/4
f 225/5/4 219/5/4 226/5/4
f 220/2/4 221/2/4 226/2/4
f 226/2/4 221/2/4 227/2/4
f 228/3/4 229/3/4 233/3/4
f 233/3/4 229/3/4 234/3/4
f 230/5/4 231/5/4 235/5/4
f 231/2/4 232/2/4 236/2/4
f 235/5/4 231/5/4 236/5/4
f 236/2/4 232/2/4 237/2/4
f 237/2/4 232/2/4 238/2/4
f 237/3/4 238/3/4 242/3/4
f 238/2/4 239/2/4 243/2/4
f 242/3/4 238/3/4 243/3/4
f 243/2/4 239/2/4 244/2/4
f 240/3/4 241/3/4 245/3/4
f 245/3/4 241/3/4 246/3/4
f 247/8/4 248/8/4 252/8/4
f 252/8/4 248/8/4 253/8/4
f 249/2/4 250/2/4 255/2/4
f 255/2/4 250/2/4 256/2/4
f 249/2/4 255/2/4 257/2/4
f 255/8/4 256/8/4 257/8/4
f 257/8/4 256/8/4 258/8/4
f 249/2/4 257/2/4 259/2/4
f 257/2/4 258/2/4 259/2/4
f 259/2/4 258/2/4 260/2/4
f 251/6/4 252/6/4 261/6/4
f 261/6/4 252/6/4 262/6/4
f 253/8/4 254/8/4 263/8/4
f 263/8/4 254/8/4 264/8/4
f 262/8/4 263/8/4 265/8/4
f 265/8/4 263/8/4 266/8/4
f 267/8/4 268/8/4 269/8/4
f 269/8/4 268/8/4 270/8/4
f 275/5/5 272/5/5 271/5/5
f 276/5/5 272/5/5 275/5/5
f 277/5/5 274/5/5 273/5/5
f 278/5/5 274/5/5 277/5/5
f 283/3/5 280/3/5 279/3/5
f 284/3/5 280/3/5 283/3/5
f 285/3/5 282/3/5 281/3/5
f 286/3/5 282/3/5 285/3/5
f 289/2/5 288/2/5 287/2/5
f 290/2/5 288/2/5 289/2/5
f 291/2/5 288/2/5 290/2/5
f 292/2/5 288/2/5 291/2/5
f 294/2/5 291/2/5 290/2/5
f 295/2/5 291/2/5 294/2/5
f 297/2/5 294/2/5 293/2/5
f 297/2/5 296/2/5 295/2/5
f 297/2/5 295/2/5 294/2/5
f 298/2/5 296/2/5 297/2/5
f 301/6/5 300/6/5 299/6/5
f 302/6/5 300/6/5 301/6/5
f 303/6/5 300/6/5 302/6/5
f 304/6/5 300/6/5 303/6/5
f 305/3/5 302/3/5 301/3/5
f 306/3/5 302/3/5 305/3/5
f 307/3/5 304/3/5 303/3/5
f 308/3/5 304/3/5 307/3/5
f 309/6/5 306/6/5 305/6/5
f 310/6/5 308/6/5 307/6/5
f 311/6/5 309/6/5 305/6/5
f 311/6/5 310/6/5 309/6/5
f 312/6/5 308/6/5 310/6/5
f 312/6/5 310/6/5 311/6/5
f 317/3/5 314/3/5 313/3/5
f 318/3/5 314/3/5 317/3/5
f 319/3/5 316/3/5 315/3/5
f 320/3/5 316/3/5 319/3/5
f 324/8/5 322/8/5 321/8/5
f 325/8/5 322/8/5 324/8/5
f 327/8/5 324/8/5 323/8/5
f 328/8/5 324/8/5 327/8/5
f 329/8/5 326/8/5 325/8/5
f 330/8/5 326/8/5 329/8/5
f 331/8/5 329/8/5 328/8/5
f 332/8/5 329/8/5 331/8/5
f 333/2/6 334/2/6 338/2/6
f 334/8/6 335/8/6 339/8/6
f 338/2/6 334/2/6 339/2/6
f 335/2/6 336/2/6 340/2/6
f 339/8/6 335/8/6 340/8/6
f 340/2/6 336/2/6 341/2/6
f 338/2/6 339/2/6 343/2/6
f 337/2/6 338/2/6 343/2/6
f 343/2/6 339/2/6 344/2/6
f 344/2/6 339/2/6 345/2/6
f 341/2/6 342/2/6 346/2/6
f 340/2/6 341/2/6 346/2/6
f 346/2/6 342/2/6 347/2/6
f 347/2/6 342/2/6 348/2/6
f 344/2/6 345/2/6 349/2/6
f 345/8/6 346/8/6 350/8/6
f 349/2/6 345/2/6 350/2/6
f 346/2/6 347/2/6 351/2/6
f 350/8/6 346/8/6 351/8/6
f 351/2/6 347/2/6 352/2/6
f 353/3/6 354/3/6 357/3/6
f 357/3/6 354/3/6 358/3/6
f 355/3/6 356/3/6 359/3/6
f 359/3/6 356/3/6 360/3/6
f 361/8/6 362/8/6 364/8/6
f 364/8/6 362/8/6 365/8/6
f 363/8/6 364/8/6 367/8/6
f 367/8/6 364/8/6 368/8/6
f 365/8/6 366/8/6 369/8/6
f 369/8/6 366/8/6 370/8/6
f 368/8/6 369/8/6 371/8/6
f 371/8/6 369/8/6 372/8/6
f 373/8/6 374/8/6 375/8/6
f 375/8/6 374/8/6 376/8/6
