{"accessors":[{"bufferView":0,"componentType":5125,"count":186,"max":[173],"min":[6],"type":"SCALAR"},{"bufferView":1,"componentType":5126,"count":174,"max":[8.0,7.0,8.0],"min":[0.0,0.0,0.0],"type":"VEC3"},{"bufferView":1,"byteOffset":12,"componentType":5126,"count":174,"type":"VEC2"},{"bufferView":2,"componentType":5125,"count":186,"max":[171],"min":[0],"type":"SCALAR"},{"bufferView":3,"componentType":5126,"count":174,"max":[8.0,7.0,8.0],"min":[0.0,0.0,0.0],"type":"VEC3"},{"bufferView":3,"byteOffset":12,"componentType":5126,"count":174,"type":"VEC2"}],"asset":{"generator":"vengi-voxedit 0.0.33.0","version":"2.0"},"bufferViews":[{"buffer":0,"byteLength":744,"target":34963},{"buffer":0,"byteLength":3480,"byteOffset":744,"byteStride":20,"target":34962},{"buffer":1,"byteLength":744,"target":34963},{"buffer":1,"byteLength":3480,"byteOffset":744,"byteStride":20,"target":34962}],"buffers":[{"byteLength":4224,"uri":"data:application/octet-stream;base64,"},{"byteLength":4224,"uri":"data:application/octet-stream;base64,"}],"images":[{"uri":"data:image/png;base64,"}],"materials":[{"name":"17133846937914483350","pbrMetallicRoughness":{"baseColorTexture":{"index":0}}},{"name":"17133846937914483350","pbrMetallicRoughness":{"baseColorTexture":{"index":0}}},{"name":"17133846937914483350","pbrMetallicRoughness":{"baseColorTexture":{"index":0}}},{"name":"17133846937914483350","pbrMetallicRoughness":{"baseColorTexture":{"index":0}}}],"meshes":[{"name":"unnamed","primitives":[{"attributes":{"POSITION":1,"TEXCOORD_0":2},"indices":0,"material":2,"mode":4},{"attributes":{"POSITION":4,"TEXCOORD_0":5},"indices":3,"material":3,"mode":4}]}],"nodes":[{"children":[1],"name":"root"},{"mesh":0,"name":"unnamed"}],"scenes":[{"nodes":[0]}],"textures":[{"source":0}]}
