{"accessors":[{"bufferView":0,"componentType":5125,"count":12,"max":[119],"min":[43],"type":"SCALAR"},{"bufferView":1,"componentType":5126,"count":146,"max":[8.0,8.0,6.0],"min":[0.0,0.0,2.0],"type":"VEC3"},{"bufferView":1,"byteOffset":12,"componentType":5126,"count":146,"type":"VEC2"},{"bufferView":2,"componentType":5125,"count":174,"max":[144],"min":[30],"type":"SCALAR"},{"bufferView":3,"componentType":5126,"count":146,"max":[8.0,8.0,6.0],"min":[0.0,0.0,2.0],"type":"VEC3"},{"bufferView":3,"byteOffset":12,"componentType":5126,"count":146,"type":"VEC2"},{"bufferView":4,"componentType":5125,"count":150,"max":[124],"min":[0],"type":"SCALAR"},{"bufferView":5,"componentType":5126,"count":146,"max":[8.0,8.0,6.0],"min":[0.0,0.0,2.0],"type":"VEC3"},{"bufferView":5,"byteOffset":12,"componentType":5126,"count":146,"type":"VEC2"},{"bufferView":6,"componentType":5125,"count":138,"max":[145],"min":[8],"type":"SCALAR"},{"bufferView":7,"componentType":5126,"count":146,"max":[8.0,8.0,6.0],"min":[0.0,0.0,2.0],"type":"VEC3"},{"bufferView":7,"byteOffset":12,"componentType":5126,"count":146,"type":"VEC2"}],"asset":{"generator":"vengi-voxedit 0.0.33.0","version":"2.0"},"bufferViews":[{"buffer":0,"byteLength":48,"target":34963},{"buffer":0,"byteLength":2920,"byteOffset":48,"byteStride":20,"target":34962},{"buffer":1,"byteLength":696,"target":34963},{"buffer":1,"byteLength":2920,"byteOffset":696,"byteStride":20,"target":34962},{"buffer":2,"byteLength":600,"target":34963},{"buffer":2,"byteLength":2920,"byteOffset":600,"byteStride":20,"target":34962},{"buffer":3,"byteLength":552,"target":34963},{"buffer":3,"byteLength":2920,"byteOffset":552,"byteStride":20,"target":34962}],"buffers":[{"byteLength":2968,"uri":"data:application/octet-stream;base64,"},{"byteLength":3616,"uri":"data:application/octet-stream;base64,"},{"byteLength":3520,"uri":"data:application/octet-stream;base64,"},{"byteLength":3472,"uri":"data:application/octet-stream;base64,"}],"images":[{"uri":"data:image/png;base64,"}],"materials":[{"name":"17133846936929926981","pbrMetallicRoughness":{"baseColorTexture":{"index":0}}},{"name":"17133846936929926981","pbrMetallicRoughness":{"baseColorTexture":{"index":0}}},{"name":"17133846936929926981","pbrMetallicRoughness":{"baseColorTexture":{"index":0}}},{"name":"17133846936929926981","pbrMetallicRoughness":{"baseColorTexture":{"index":0}}},{"name":"17133846936929926981","pbrMetallicRoughness":{"baseColorTexture":{"index":0}}},{"name":"17133846936929926981","pbrMetallicRoughness":{"baseColorTexture":{"index":0}}},{"name":"17133846936929926981","pbrMetallicRoughness":{"baseColorTexture":{"index":0}}},{"name":"17133846936929926981","pbrMetallicRoughness":{"baseColorTexture":{"index":0}}},{"name":"17133846936929926981","pbrMetallicRoughness":{"baseColorTexture":{"index":0}}},{"name":"17133846936929926981","pbrMetallicRoughness":{"baseColorTexture":{"index":0}}},{"name":"17133846936929926981","pbrMetallicRoughness":{"baseColorTexture":{"index":0}}},{"name":"17133846936929926981","pbrMetallicRoughness":{"baseColorTexture":{"index":0}}},{"name":"17133846936929926981","pbrMetallicRoughness":{"baseColorTexture":{"index":0}}},{"name":"17133846936929926981","pbrMetallicRoughness":{"baseColorTexture":{"index":0}}},{"name":"17133846936929926981","pbrMetallicRoughness":{"baseColorTexture":{"index":0}}},{"name":"17133846936929926981","pbrMetallicRoughness":{"baseColorTexture":{"index":0}}}],"meshes":[{"name":"Chicken","primitives":[{"attributes":{"POSITION":1,"TEXCOORD_0":2},"indices":0,"material":0,"mode":4},{"attributes":{"POSITION":4,"TEXCOORD_0":5},"indices":3,"material":7,"mode":4},{"attributes":{"POSITION":7,"TEXCOORD_0":8},"indices":6,"material":8,"mode":4},{"attributes":{"POSITION":10,"TEXCOORD_0":11},"indices":9,"material":9,"mode":4}]}],"nodes":[{"children":[1],"name":"root"},{"mesh":0,"name":"Chicken"}],"scenes":[{"nodes":[0]}],"textures":[{"source":0}]}
